{"glyphs":{"0":{"ha":778,"x_min":86,"x_max":693,"o":"m 393 -10 q 263 19 317 -10 q 175 99 210 49 q 121 212 140 149 q 94 346 101 275 q 86 486 86 417 q 93 626 86 556 q 119 759 100 696 q 173 872 139 822 q 260 951 207 922 q 388 979 313 979 q 510 952 458 979 q 598 878 563 925 q 653 768 633 831 q 683 633 674 706 q 693 485 693 561 q 684 336 693 408 q 654 201 675 264 q 599 92 633 139 q 513 17 564 44 q 393 -10 463 -10 m 393 75 q 515 128 468 75 q 583 272 561 181 q 604 482 604 364 q 582 697 604 604 q 513 843 560 790 q 388 896 465 896 q 284 863 325 896 q 219 772 243 829 q 185 641 196 715 q 175 483 175 567 q 185 329 175 403 q 220 199 196 256 q 287 108 244 142 q 393 75 329 75 z "},"1":{"ha":778,"x_min":164,"x_max":507,"o":"m 418 0 l 418 788 l 447 740 l 164 740 l 164 813 l 342 813 q 399 828 379 813 q 418 885 418 844 l 418 968 l 507 968 l 507 0 l 418 0 z "},"2":{"ha":778,"x_min":74,"x_max":707,"o":"m 74 0 l 74 79 q 192 171 125 121 q 328 278 260 221 q 453 401 396 336 q 547 538 511 467 q 582 688 582 610 q 529 835 582 779 q 379 892 476 892 q 260 860 308 892 q 187 774 211 829 q 161 644 163 718 l 75 650 q 95 778 75 719 q 155 882 115 838 q 251 951 194 926 q 382 976 308 976 q 532 941 468 976 q 632 842 596 906 q 668 690 668 778 q 637 535 668 610 q 552 394 606 461 q 431 268 499 328 q 290 155 364 208 q 144 56 217 101 l 167 82 l 707 82 l 707 0 l 74 0 z "},"3":{"ha":778,"x_min":44,"x_max":718,"o":"m 382 -10 q 204 27 281 -10 q 86 131 128 64 q 44 288 44 199 l 131 293 q 200 133 131 192 q 385 75 269 75 q 515 100 460 75 q 601 172 571 125 q 631 279 631 218 q 606 376 631 338 q 538 435 581 414 q 440 466 494 457 q 325 475 385 475 l 325 546 q 415 553 369 546 q 497 581 460 561 q 556 635 533 600 q 578 722 578 669 q 553 812 578 772 q 483 873 528 851 q 381 894 439 894 q 231 842 286 894 q 175 707 176 790 l 89 713 q 126 851 89 792 q 231 944 164 911 q 383 978 297 978 q 528 946 465 978 q 628 858 592 914 q 665 729 665 803 q 650 647 665 682 q 607 585 635 611 q 547 544 579 560 q 479 519 514 529 q 565 496 522 513 q 642 450 607 479 q 697 378 676 421 q 718 279 718 336 q 675 128 718 193 q 557 26 632 63 q 382 -10 482 -10 z "},"4":{"ha":778,"x_min":28,"x_max":753,"o":"m 507 0 l 507 232 l 28 232 l 28 304 l 511 968 l 594 968 l 594 314 l 753 314 l 753 232 l 594 232 l 594 0 l 507 0 m 101 282 l 94 314 l 507 314 l 507 871 l 517 864 l 101 282 z "},"5":{"ha":778,"x_min":60,"x_max":719,"o":"m 388 -10 q 236 25 306 -10 q 122 122 167 60 q 60 267 76 185 l 146 282 q 190 175 157 222 q 272 101 222 128 q 386 74 322 74 q 514 109 460 74 q 598 202 568 144 q 628 328 628 260 q 600 447 628 394 q 521 531 572 500 q 397 563 469 563 q 278 533 333 563 q 181 444 222 503 l 90 471 l 179 968 l 674 968 l 674 886 l 211 886 l 257 924 l 186 521 l 165 524 q 281 619 218 590 q 410 647 344 647 q 570 604 500 647 q 680 488 640 561 q 719 328 719 415 q 695 197 719 258 q 626 90 671 136 q 519 17 581 43 q 388 -10 458 -10 z "},"6":{"ha":778,"x_min":43,"x_max":697,"o":"m 486 968 l 235 556 l 225 569 q 300 610 260 596 q 382 624 340 624 q 542 581 469 624 q 656 467 614 539 q 697 308 697 396 q 653 147 697 219 q 535 33 608 75 q 371 -10 461 -10 q 207 32 282 -10 q 88 146 132 74 q 43 307 43 218 q 58 400 43 357 q 94 481 72 443 l 386 968 l 486 968 m 371 546 q 253 515 307 546 q 166 430 199 483 q 133 308 133 376 q 165 188 133 242 q 251 104 197 135 q 371 74 306 74 q 490 104 436 74 q 576 189 544 135 q 608 310 608 243 q 576 430 608 376 q 491 515 544 483 q 371 546 438 546 z "},"7":{"ha":778,"x_min":40,"x_max":732,"o":"m 158 0 l 644 914 l 668 886 l 40 886 l 40 968 l 732 968 l 732 897 l 256 0 l 158 0 z "},"8":{"ha":778,"x_min":65,"x_max":711,"o":"m 389 -10 q 233 22 307 -10 q 112 117 158 54 q 65 275 65 181 q 115 433 65 365 q 250 526 164 500 q 156 605 192 551 q 121 732 121 658 q 160 865 121 810 q 262 949 200 919 q 390 978 324 978 q 526 947 465 978 q 623 859 588 915 q 658 725 658 803 q 623 602 658 654 q 528 526 588 550 q 663 432 614 499 q 711 275 711 365 q 665 117 711 181 q 546 22 619 54 q 389 -10 472 -10 m 389 74 q 505 97 451 74 q 591 167 558 121 q 624 283 624 214 q 594 392 624 346 q 511 465 564 439 q 389 490 458 490 q 267 465 319 490 q 183 392 214 439 q 153 283 153 346 q 186 167 153 214 q 274 97 219 121 q 389 74 328 74 m 392 551 q 522 599 471 551 q 572 719 572 646 q 523 846 572 797 q 390 894 474 894 q 301 875 343 894 q 234 818 260 856 q 208 726 208 781 q 260 599 208 647 q 392 551 311 551 z "},"9":{"ha":778,"x_min":61,"x_max":715,"o":"m 274 0 l 524 413 l 533 399 q 460 359 500 374 q 376 344 419 344 q 217 387 289 344 q 103 501 146 429 q 61 660 61 572 q 106 822 61 750 q 224 935 150 893 q 388 978 299 978 q 552 936 478 978 q 671 823 626 894 q 715 661 715 751 q 701 569 715 611 q 664 488 686 526 l 372 0 l 274 0 m 388 422 q 506 453 453 422 q 592 538 560 485 q 625 660 625 592 q 593 780 625 726 q 507 864 561 833 q 388 894 453 894 q 268 864 322 894 q 182 779 214 833 q 150 658 150 725 q 182 538 150 592 q 268 453 214 485 q 388 422 322 422 z "},"A":{"ha":860,"x_min":32,"x_max":826,"o":"m 32 0 l 392 968 l 468 968 l 826 0 l 728 0 l 431 842 l 133 0 l 32 0 m 210 249 l 239 331 l 621 331 l 651 249 l 210 249 z "},"Á":{"ha":860,"x_min":32,"x_max":826,"o":"m 32 0 l 392 968 l 468 968 l 826 0 l 728 0 l 431 842 l 133 0 l 32 0 m 210 249 l 239 331 l 621 331 l 651 249 l 210 249 m 397 1057 l 546 1251 l 640 1251 l 464 1057 l 397 1057 z "},"Ă":{"ha":860,"x_min":32,"x_max":826,"o":"m 32 0 l 392 968 l 468 968 l 826 0 l 728 0 l 431 842 l 133 0 l 32 0 m 210 249 l 239 331 l 621 331 l 651 249 l 210 249 m 431 1029 q 274 1076 326 1029 q 222 1210 222 1122 l 286 1210 q 325 1115 286 1147 q 431 1083 364 1083 q 536 1116 497 1083 q 575 1210 575 1149 l 639 1210 q 585 1075 639 1121 q 431 1029 532 1029 z "},"Ắ":{"ha":860,"x_min":32,"x_max":826,"o":"m 32 0 l 392 968 l 468 968 l 826 0 l 728 0 l 431 842 l 133 0 l 32 0 m 210 249 l 239 331 l 621 331 l 651 249 l 210 249 m 431 1029 q 274 1076 326 1029 q 222 1210 222 1122 l 281 1210 q 320 1115 281 1147 q 431 1083 360 1083 q 541 1116 501 1083 q 581 1210 581 1149 l 639 1210 q 585 1075 639 1121 q 431 1029 532 1029 m 385 1194 l 483 1374 l 556 1374 l 442 1194 l 385 1194 z "},"Ặ":{"ha":860,"x_min":32,"x_max":826,"o":"m 32 0 l 392 968 l 468 968 l 826 0 l 728 0 l 431 842 l 133 0 l 32 0 m 210 249 l 239 331 l 621 331 l 651 249 l 210 249 m 378 -242 l 378 -101 l 482 -101 l 482 -242 l 378 -242 m 431 1029 q 274 1076 326 1029 q 222 1210 222 1122 l 286 1210 q 325 1115 286 1147 q 431 1083 364 1083 q 536 1116 497 1083 q 575 1210 575 1149 l 639 1210 q 585 1075 639 1121 q 431 1029 532 1029 z "},"Ằ":{"ha":860,"x_min":32,"x_max":826,"o":"m 32 0 l 392 968 l 468 968 l 826 0 l 728 0 l 431 842 l 133 0 l 32 0 m 210 249 l 239 331 l 621 331 l 651 249 l 210 249 m 431 1029 q 274 1076 326 1029 q 222 1210 222 1122 l 281 1210 q 320 1115 281 1147 q 431 1083 360 1083 q 541 1116 501 1083 q 581 1210 581 1149 l 639 1210 q 585 1075 639 1121 q 431 1029 532 1029 m 419 1194 l 306 1374 l 378 1374 l 476 1194 l 419 1194 z "},"Ẳ":{"ha":860,"x_min":32,"x_max":826,"o":"m 32 0 l 392 968 l 468 968 l 826 0 l 728 0 l 431 842 l 133 0 l 32 0 m 210 249 l 239 331 l 621 331 l 651 249 l 210 249 m 431 1029 q 274 1076 326 1029 q 222 1210 222 1122 l 281 1210 q 320 1115 281 1147 q 431 1083 360 1083 q 541 1116 501 1083 q 581 1210 581 1149 l 639 1210 q 585 1075 639 1121 q 431 1029 532 1029 m 399 1163 l 388 1193 q 461 1215 431 1199 q 492 1264 492 1231 q 452 1319 492 1301 q 364 1338 413 1338 l 343 1338 l 343 1378 l 364 1378 q 496 1349 446 1378 q 546 1268 546 1321 q 528 1215 546 1236 q 476 1181 510 1193 q 399 1163 443 1168 z "},"Ẵ":{"ha":860,"x_min":32,"x_max":826,"o":"m 32 0 l 392 968 l 468 968 l 826 0 l 728 0 l 431 842 l 133 0 l 32 0 m 210 249 l 239 331 l 621 331 l 651 249 l 210 249 m 431 1029 q 274 1076 326 1029 q 222 1210 222 1122 l 281 1210 q 320 1115 281 1147 q 431 1083 360 1083 q 541 1116 501 1083 q 581 1210 581 1149 l 639 1210 q 585 1075 639 1121 q 431 1029 532 1029 m 517 1243 q 460 1252 483 1243 q 420 1274 438 1261 q 385 1297 403 1288 q 343 1306 367 1306 q 302 1292 318 1306 q 278 1251 286 1278 l 228 1254 q 265 1327 236 1299 q 343 1356 293 1356 q 399 1347 376 1356 q 440 1326 422 1338 q 476 1305 458 1314 q 517 1296 493 1296 q 559 1308 543 1296 q 582 1346 575 1321 l 636 1344 q 600 1272 629 1300 q 517 1243 571 1243 z "},"Ǎ":{"ha":860,"x_min":32,"x_max":826,"o":"m 32 0 l 392 968 l 468 968 l 826 0 l 728 0 l 431 842 l 133 0 l 32 0 m 210 249 l 239 331 l 621 331 l 651 249 l 210 249 m 431 1042 l 225 1251 l 296 1251 l 431 1115 l 564 1251 l 636 1251 l 431 1042 z "},"Â":{"ha":860,"x_min":32,"x_max":826,"o":"m 32 0 l 392 968 l 468 968 l 826 0 l 728 0 l 431 842 l 133 0 l 32 0 m 210 249 l 239 331 l 621 331 l 651 249 l 210 249 m 225 1047 l 431 1264 l 636 1047 l 561 1047 l 431 1186 l 301 1047 l 225 1047 z "},"Ấ":{"ha":860,"x_min":32,"x_max":826,"o":"m 32 0 l 392 968 l 468 968 l 826 0 l 728 0 l 431 842 l 133 0 l 32 0 m 210 249 l 239 331 l 621 331 l 651 249 l 210 249 m 225 1035 l 431 1232 l 636 1035 l 561 1035 l 431 1164 l 300 1035 l 225 1035 m 542 1172 l 646 1361 l 719 1361 l 599 1172 l 542 1172 z "},"Ậ":{"ha":860,"x_min":32,"x_max":826,"o":"m 32 0 l 392 968 l 468 968 l 826 0 l 728 0 l 431 842 l 133 0 l 32 0 m 210 249 l 239 331 l 621 331 l 651 249 l 210 249 m 378 -242 l 378 -101 l 482 -101 l 482 -242 l 378 -242 m 225 1047 l 431 1264 l 636 1047 l 563 1047 l 431 1186 l 299 1047 l 225 1047 z "},"Ầ":{"ha":860,"x_min":32,"x_max":826,"o":"m 32 0 l 392 968 l 468 968 l 826 0 l 728 0 l 431 842 l 133 0 l 32 0 m 210 249 l 239 331 l 621 331 l 651 249 l 210 249 m 225 1035 l 431 1232 l 636 1035 l 561 1035 l 431 1164 l 301 1035 l 225 1035 m 614 1172 l 493 1361 l 567 1361 l 671 1172 l 614 1172 z "},"Ẩ":{"ha":860,"x_min":32,"x_max":826,"o":"m 32 0 l 392 968 l 468 968 l 826 0 l 728 0 l 431 842 l 133 0 l 32 0 m 210 249 l 239 331 l 621 331 l 651 249 l 210 249 m 225 1035 l 431 1232 l 636 1035 l 561 1035 l 431 1164 l 301 1035 l 225 1035 m 568 1142 l 557 1178 q 633 1201 604 1186 q 663 1250 663 1217 q 644 1294 663 1278 q 596 1319 625 1311 q 533 1326 567 1326 l 513 1326 l 513 1376 l 533 1376 q 666 1344 617 1376 q 715 1256 715 1313 q 695 1193 715 1215 q 641 1160 675 1171 q 568 1142 607 1149 z "},"Ẫ":{"ha":860,"x_min":32,"x_max":826,"o":"m 32 0 l 392 968 l 468 968 l 826 0 l 728 0 l 431 842 l 133 0 l 32 0 m 210 249 l 239 331 l 621 331 l 651 249 l 210 249 m 225 1035 l 431 1232 l 636 1035 l 563 1035 l 431 1164 l 300 1035 l 225 1035 m 515 1257 q 459 1267 482 1257 q 419 1289 436 1276 q 384 1311 401 1301 q 343 1321 367 1321 q 300 1306 315 1321 q 278 1265 285 1290 l 226 1269 q 265 1344 235 1317 q 343 1371 294 1371 q 399 1362 376 1371 q 439 1340 421 1353 q 474 1319 457 1328 q 515 1311 492 1311 q 558 1323 543 1311 q 581 1361 574 1335 l 635 1357 q 600 1286 628 1315 q 515 1257 572 1257 z "},"Ä":{"ha":860,"x_min":32,"x_max":826,"o":"m 32 0 l 392 968 l 468 968 l 826 0 l 728 0 l 431 842 l 133 0 l 32 0 m 210 249 l 239 331 l 621 331 l 651 249 l 210 249 m 503 1101 l 503 1251 l 607 1251 l 607 1101 l 503 1101 m 254 1101 l 254 1251 l 358 1251 l 358 1101 l 254 1101 z "},"Ạ":{"ha":860,"x_min":32,"x_max":826,"o":"m 32 0 l 392 968 l 468 968 l 826 0 l 728 0 l 431 842 l 133 0 l 32 0 m 210 249 l 239 331 l 621 331 l 651 249 l 210 249 m 378 -242 l 378 -101 l 482 -101 l 482 -242 l 378 -242 z "},"À":{"ha":860,"x_min":32,"x_max":826,"o":"m 32 0 l 392 968 l 468 968 l 826 0 l 728 0 l 431 842 l 133 0 l 32 0 m 210 249 l 239 331 l 621 331 l 651 249 l 210 249 m 396 1057 l 226 1251 l 319 1251 l 464 1057 l 396 1057 z "},"Ả":{"ha":860,"x_min":32,"x_max":826,"o":"m 32 0 l 392 968 l 468 968 l 826 0 l 728 0 l 431 842 l 133 0 l 32 0 m 210 249 l 239 331 l 621 331 l 651 249 l 210 249 m 410 1014 l 403 1050 q 478 1072 443 1058 q 514 1122 514 1085 q 472 1183 514 1165 q 379 1200 431 1200 l 358 1200 l 358 1253 l 379 1253 q 522 1220 465 1253 q 579 1129 579 1188 q 553 1065 579 1088 q 488 1031 526 1042 q 410 1014 449 1021 z "},"Ā":{"ha":860,"x_min":32,"x_max":826,"o":"m 32 0 l 392 968 l 468 968 l 826 0 l 728 0 l 431 842 l 133 0 l 32 0 m 210 249 l 239 331 l 621 331 l 651 249 l 210 249 m 243 1121 l 243 1175 l 617 1175 l 617 1121 l 243 1121 z "},"Ą":{"ha":860,"x_min":32,"x_max":864,"o":"m 32 0 l 392 968 l 468 968 l 826 0 l 728 0 l 431 842 l 133 0 l 32 0 m 210 249 l 239 331 l 621 331 l 651 249 l 210 249 m 738 -283 q 656 -256 690 -283 q 621 -175 621 -228 q 640 -102 621 -136 q 687 -41 658 -68 q 746 4 715 -14 l 817 0 q 767 -32 792 -14 q 721 -72 742 -50 q 688 -117 700 -93 q 675 -168 675 -142 q 693 -214 675 -199 q 738 -229 711 -229 q 786 -218 760 -229 q 836 -186 813 -207 l 865 -229 q 803 -270 836 -257 q 738 -283 769 -283 z "},"Å":{"ha":860,"x_min":32,"x_max":826,"o":"m 32 0 l 392 968 l 468 968 l 826 0 l 728 0 l 431 842 l 133 0 l 32 0 m 210 249 l 239 331 l 621 331 l 651 249 l 210 249 m 432 921 q 365 939 394 921 q 317 987 335 957 q 300 1053 300 1017 q 317 1119 300 1089 q 365 1167 335 1149 q 432 1185 396 1185 q 498 1167 468 1185 q 546 1119 528 1149 q 564 1053 564 1089 q 546 986 564 1017 q 498 938 528 956 q 432 921 468 921 m 432 971 q 489 994 465 971 q 513 1053 513 1018 q 490 1110 513 1088 q 432 1133 467 1133 q 373 1110 396 1133 q 350 1053 350 1086 q 374 994 350 1018 q 432 971 397 971 z "},"Ǻ":{"ha":860,"x_min":32,"x_max":826,"o":"m 32 0 l 392 968 l 468 968 l 826 0 l 728 0 l 431 842 l 133 0 l 32 0 m 210 249 l 239 331 l 621 331 l 651 249 l 210 249 m 432 921 q 365 939 394 921 q 317 987 335 957 q 300 1053 300 1017 q 317 1119 300 1089 q 365 1167 335 1149 q 432 1185 396 1185 q 498 1167 468 1185 q 546 1119 528 1149 q 564 1053 564 1089 q 546 986 564 1017 q 498 938 528 956 q 432 921 468 921 m 432 971 q 489 994 465 971 q 513 1053 513 1018 q 490 1110 513 1088 q 432 1133 467 1133 q 373 1110 396 1133 q 350 1053 350 1086 q 374 994 350 1018 q 432 971 397 971 m 469 1125 l 618 1319 l 713 1319 l 536 1125 l 469 1125 z "},"Ã":{"ha":860,"x_min":32,"x_max":826,"o":"m 32 0 l 392 968 l 468 968 l 826 0 l 728 0 l 431 842 l 133 0 l 32 0 m 210 249 l 239 331 l 621 331 l 651 249 l 210 249 m 526 1033 q 469 1047 492 1033 q 432 1079 447 1060 q 403 1118 417 1099 q 374 1151 390 1138 q 335 1164 358 1164 q 283 1133 303 1164 q 264 1047 264 1103 l 211 1047 q 245 1171 211 1126 q 338 1215 279 1215 q 390 1202 369 1215 q 426 1169 411 1189 q 456 1129 442 1149 q 486 1097 469 1110 q 528 1083 503 1083 q 574 1118 556 1083 q 593 1210 593 1153 l 649 1210 q 615 1081 649 1128 q 526 1033 582 1033 z "},"Æ":{"ha":1221,"x_min":32,"x_max":1157,"o":"m 32 0 l 392 968 l 1157 968 l 1157 886 l 631 886 l 631 528 l 1088 528 l 1088 444 l 631 444 l 631 82 l 1157 82 l 1157 0 l 539 0 l 539 888 l 449 888 l 133 0 l 32 0 m 203 249 l 232 332 l 563 332 l 563 249 l 203 249 z "},"Ǽ":{"ha":1221,"x_min":32,"x_max":1157,"o":"m 32 0 l 392 968 l 1157 968 l 1157 886 l 631 886 l 631 528 l 1088 528 l 1088 444 l 631 444 l 631 82 l 1157 82 l 1157 0 l 539 0 l 539 888 l 449 888 l 133 0 l 32 0 m 203 249 l 232 332 l 563 332 l 563 249 l 203 249 m 578 1057 l 726 1251 l 821 1251 l 644 1057 l 578 1057 z "},"B":{"ha":826,"x_min":118,"x_max":747,"o":"m 118 0 l 118 968 l 411 968 q 622 904 546 968 q 699 728 699 840 q 664 597 699 653 q 567 515 629 542 q 701 431 654 494 q 747 268 747 368 q 667 69 747 139 q 439 0 588 0 l 118 0 m 208 83 l 433 83 q 657 272 657 83 q 608 410 657 361 q 468 460 558 460 l 208 460 l 208 83 m 208 542 l 436 542 q 561 589 514 542 q 608 715 608 636 q 556 840 608 794 q 411 885 504 885 l 208 885 l 208 542 z "},"C":{"ha":974,"x_min":78,"x_max":913,"o":"m 517 -14 q 287 48 386 -14 q 133 222 188 110 q 78 485 78 335 q 133 747 78 635 q 287 920 188 858 q 517 982 386 982 q 763 912 658 982 q 913 718 867 842 l 828 686 q 711 839 790 783 q 517 894 632 894 q 333 844 411 894 q 211 703 254 794 q 168 485 168 611 q 211 266 168 358 q 333 124 254 174 q 517 74 411 74 q 711 130 632 74 q 828 282 790 186 l 913 251 q 763 57 867 128 q 517 -14 658 -14 z "},"Ć":{"ha":974,"x_min":78,"x_max":913,"o":"m 517 -14 q 287 48 386 -14 q 133 222 188 110 q 78 485 78 335 q 133 747 78 635 q 287 920 188 858 q 517 982 386 982 q 763 912 658 982 q 913 718 867 842 l 828 686 q 711 839 790 783 q 517 894 632 894 q 333 844 411 894 q 211 703 254 794 q 168 485 168 611 q 211 266 168 358 q 333 124 254 174 q 517 74 411 74 q 711 130 632 74 q 828 282 790 186 l 913 251 q 763 57 867 128 q 517 -14 658 -14 m 471 1057 l 619 1251 l 714 1251 l 538 1057 l 471 1057 z "},"Č":{"ha":974,"x_min":78,"x_max":913,"o":"m 517 -14 q 287 48 386 -14 q 133 222 188 110 q 78 485 78 335 q 133 747 78 635 q 287 920 188 858 q 517 982 386 982 q 763 912 658 982 q 913 718 867 842 l 828 686 q 711 839 790 783 q 517 894 632 894 q 333 844 411 894 q 211 703 254 794 q 168 485 168 611 q 211 266 168 358 q 333 124 254 174 q 517 74 411 74 q 711 130 632 74 q 828 282 790 186 l 913 251 q 763 57 867 128 q 517 -14 658 -14 m 506 1042 l 300 1251 l 371 1251 l 506 1115 l 639 1251 l 711 1251 l 506 1042 z "},"Ç":{"ha":974,"x_min":78,"x_max":913,"o":"m 517 -14 q 287 48 386 -14 q 133 222 188 110 q 78 485 78 335 q 133 747 78 635 q 287 920 188 858 q 517 982 386 982 q 763 912 658 982 q 913 718 867 842 l 828 686 q 711 839 790 783 q 517 894 632 894 q 333 844 411 894 q 211 703 254 794 q 168 485 168 611 q 211 266 168 358 q 333 124 254 174 q 517 74 411 74 q 711 130 632 74 q 828 282 790 186 l 913 251 q 763 57 867 128 q 517 -14 658 -14 m 478 -283 q 429 -277 454 -283 q 383 -258 404 -271 q 349 -229 363 -246 l 381 -194 q 424 -225 397 -214 q 476 -236 450 -236 q 536 -222 513 -236 q 560 -176 560 -207 q 544 -140 560 -153 q 503 -120 528 -126 q 450 -111 478 -114 q 399 -107 422 -108 l 482 8 l 539 8 l 475 -72 q 574 -103 533 -81 q 614 -174 614 -125 q 575 -255 614 -226 q 478 -283 536 -283 z "},"Ĉ":{"ha":974,"x_min":78,"x_max":913,"o":"m 517 -14 q 287 48 386 -14 q 133 222 188 110 q 78 485 78 335 q 133 747 78 635 q 287 920 188 858 q 517 982 386 982 q 763 912 658 982 q 913 718 867 842 l 828 686 q 711 839 790 783 q 517 894 632 894 q 333 844 411 894 q 211 703 254 794 q 168 485 168 611 q 211 266 168 358 q 333 124 254 174 q 517 74 411 74 q 711 130 632 74 q 828 282 790 186 l 913 251 q 763 57 867 128 q 517 -14 658 -14 m 299 1047 l 504 1264 l 710 1047 l 635 1047 l 504 1186 l 375 1047 l 299 1047 z "},"Ċ":{"ha":974,"x_min":78,"x_max":913,"o":"m 517 -14 q 287 48 386 -14 q 133 222 188 110 q 78 485 78 335 q 133 747 78 635 q 287 920 188 858 q 517 982 386 982 q 763 912 658 982 q 913 718 867 842 l 828 686 q 711 839 790 783 q 517 894 632 894 q 333 844 411 894 q 211 703 254 794 q 168 485 168 611 q 211 266 168 358 q 333 124 254 174 q 517 74 411 74 q 711 130 632 74 q 828 282 790 186 l 913 251 q 763 57 867 128 q 517 -14 658 -14 m 453 1101 l 453 1251 l 557 1251 l 557 1101 l 453 1101 z "},"D":{"ha":951,"x_min":118,"x_max":874,"o":"m 118 0 l 118 968 l 379 968 q 744 840 614 968 q 874 476 874 711 q 745 123 874 246 q 378 0 617 0 l 118 0 m 208 83 l 369 83 q 593 125 501 83 q 733 254 685 167 q 781 479 781 342 q 733 707 781 617 q 594 841 685 797 q 378 885 504 885 l 208 885 l 208 83 z "},"Ð":{"ha":951,"x_min":17,"x_max":874,"o":"m 118 0 l 118 968 l 379 968 q 744 840 614 968 q 874 476 874 711 q 745 123 874 246 q 378 0 617 0 l 118 0 m 208 83 l 369 83 q 593 125 501 83 q 733 254 685 167 q 781 479 781 342 q 733 707 781 617 q 594 841 685 797 q 378 885 504 885 l 208 885 l 208 83 m 17 456 l 17 515 l 382 515 l 382 456 l 17 456 z "},"Ď":{"ha":951,"x_min":118,"x_max":874,"o":"m 118 0 l 118 968 l 379 968 q 744 840 614 968 q 874 476 874 711 q 745 123 874 246 q 378 0 617 0 l 118 0 m 208 83 l 369 83 q 593 125 501 83 q 733 254 685 167 q 781 479 781 342 q 733 707 781 617 q 594 841 685 797 q 378 885 504 885 l 208 885 l 208 83 m 464 1042 l 258 1251 l 329 1251 l 464 1115 l 597 1251 l 669 1251 l 464 1042 z "},"Đ":{"ha":951,"x_min":17,"x_max":874,"o":"m 118 0 l 118 968 l 379 968 q 744 840 614 968 q 874 476 874 711 q 745 123 874 246 q 378 0 617 0 l 118 0 m 208 83 l 369 83 q 593 125 501 83 q 733 254 685 167 q 781 479 781 342 q 733 707 781 617 q 594 841 685 797 q 378 885 504 885 l 208 885 l 208 83 m 17 456 l 17 515 l 382 515 l 382 456 l 17 456 z "},"E":{"ha":815,"x_min":118,"x_max":751,"o":"m 118 0 l 118 968 l 751 968 l 751 886 l 208 886 l 208 533 l 696 533 l 696 451 l 208 451 l 208 82 l 751 82 l 751 0 l 118 0 z "},"É":{"ha":815,"x_min":118,"x_max":751,"o":"m 118 0 l 118 968 l 751 968 l 751 886 l 208 886 l 208 533 l 696 533 l 696 451 l 208 451 l 208 82 l 751 82 l 751 0 l 118 0 m 401 1057 l 550 1251 l 644 1251 l 468 1057 l 401 1057 z "},"Ĕ":{"ha":815,"x_min":118,"x_max":751,"o":"m 118 0 l 118 968 l 751 968 l 751 886 l 208 886 l 208 533 l 696 533 l 696 451 l 208 451 l 208 82 l 751 82 l 751 0 l 118 0 m 436 1029 q 280 1076 332 1029 q 228 1210 228 1122 l 292 1210 q 331 1115 292 1147 q 436 1083 369 1083 q 542 1116 503 1083 q 581 1210 581 1149 l 644 1210 q 591 1075 644 1121 q 436 1029 538 1029 z "},"Ě":{"ha":815,"x_min":118,"x_max":751,"o":"m 118 0 l 118 968 l 751 968 l 751 886 l 208 886 l 208 533 l 696 533 l 696 451 l 208 451 l 208 82 l 751 82 l 751 0 l 118 0 m 436 1042 l 231 1251 l 301 1251 l 436 1115 l 569 1251 l 642 1251 l 436 1042 z "},"Ê":{"ha":815,"x_min":118,"x_max":751,"o":"m 118 0 l 118 968 l 751 968 l 751 886 l 208 886 l 208 533 l 696 533 l 696 451 l 208 451 l 208 82 l 751 82 l 751 0 l 118 0 m 229 1047 l 435 1264 l 640 1047 l 565 1047 l 435 1186 l 306 1047 l 229 1047 z "},"Ế":{"ha":815,"x_min":118,"x_max":751,"o":"m 118 0 l 118 968 l 751 968 l 751 886 l 208 886 l 208 533 l 696 533 l 696 451 l 208 451 l 208 82 l 751 82 l 751 0 l 118 0 m 229 1035 l 435 1232 l 640 1035 l 565 1035 l 435 1164 l 304 1035 l 229 1035 m 546 1172 l 650 1361 l 724 1361 l 603 1172 l 546 1172 z "},"Ệ":{"ha":815,"x_min":118,"x_max":751,"o":"m 118 0 l 118 968 l 751 968 l 751 886 l 208 886 l 208 533 l 696 533 l 696 451 l 208 451 l 208 82 l 751 82 l 751 0 l 118 0 m 383 -242 l 383 -101 l 488 -101 l 488 -242 l 383 -242 m 229 1047 l 435 1264 l 640 1047 l 567 1047 l 435 1186 l 303 1047 l 229 1047 z "},"Ề":{"ha":815,"x_min":118,"x_max":751,"o":"m 118 0 l 118 968 l 751 968 l 751 886 l 208 886 l 208 533 l 696 533 l 696 451 l 208 451 l 208 82 l 751 82 l 751 0 l 118 0 m 229 1035 l 435 1232 l 640 1035 l 565 1035 l 435 1164 l 306 1035 l 229 1035 m 618 1172 l 497 1361 l 571 1361 l 675 1172 l 618 1172 z "},"Ể":{"ha":815,"x_min":118,"x_max":751,"o":"m 118 0 l 118 968 l 751 968 l 751 886 l 208 886 l 208 533 l 696 533 l 696 451 l 208 451 l 208 82 l 751 82 l 751 0 l 118 0 m 229 1035 l 435 1232 l 640 1035 l 565 1035 l 435 1164 l 306 1035 l 229 1035 m 572 1142 l 561 1178 q 638 1201 608 1186 q 667 1250 667 1217 q 648 1294 667 1278 q 600 1319 629 1311 q 538 1326 571 1326 l 517 1326 l 517 1376 l 538 1376 q 670 1344 621 1376 q 719 1256 719 1313 q 699 1193 719 1215 q 645 1160 679 1171 q 572 1142 611 1149 z "},"Ễ":{"ha":815,"x_min":118,"x_max":751,"o":"m 118 0 l 118 968 l 751 968 l 751 886 l 208 886 l 208 533 l 696 533 l 696 451 l 208 451 l 208 82 l 751 82 l 751 0 l 118 0 m 231 1035 l 436 1232 l 642 1035 l 568 1035 l 436 1164 l 306 1035 l 231 1035 m 521 1257 q 465 1267 488 1257 q 424 1289 442 1276 q 390 1311 407 1301 q 349 1321 372 1321 q 306 1306 321 1321 q 283 1265 290 1290 l 232 1269 q 270 1344 240 1317 q 349 1371 300 1371 q 404 1362 382 1371 q 444 1340 426 1353 q 480 1319 463 1328 q 521 1311 497 1311 q 564 1323 549 1311 q 586 1361 579 1335 l 640 1357 q 606 1286 633 1315 q 521 1257 578 1257 z "},"Ë":{"ha":815,"x_min":118,"x_max":751,"o":"m 118 0 l 118 968 l 751 968 l 751 886 l 208 886 l 208 533 l 696 533 l 696 451 l 208 451 l 208 82 l 751 82 l 751 0 l 118 0 m 508 1101 l 508 1251 l 613 1251 l 613 1101 l 508 1101 m 260 1101 l 260 1251 l 364 1251 l 364 1101 l 260 1101 z "},"Ė":{"ha":815,"x_min":118,"x_max":751,"o":"m 118 0 l 118 968 l 751 968 l 751 886 l 208 886 l 208 533 l 696 533 l 696 451 l 208 451 l 208 82 l 751 82 l 751 0 l 118 0 m 383 1101 l 383 1251 l 488 1251 l 488 1101 l 383 1101 z "},"Ẹ":{"ha":815,"x_min":118,"x_max":751,"o":"m 118 0 l 118 968 l 751 968 l 751 886 l 208 886 l 208 533 l 696 533 l 696 451 l 208 451 l 208 82 l 751 82 l 751 0 l 118 0 m 383 -242 l 383 -101 l 488 -101 l 488 -242 l 383 -242 z "},"È":{"ha":815,"x_min":118,"x_max":751,"o":"m 118 0 l 118 968 l 751 968 l 751 886 l 208 886 l 208 533 l 696 533 l 696 451 l 208 451 l 208 82 l 751 82 l 751 0 l 118 0 m 401 1057 l 232 1251 l 325 1251 l 469 1057 l 401 1057 z "},"Ẻ":{"ha":815,"x_min":118,"x_max":751,"o":"m 118 0 l 118 968 l 751 968 l 751 886 l 208 886 l 208 533 l 696 533 l 696 451 l 208 451 l 208 82 l 751 82 l 751 0 l 118 0 m 414 1014 l 407 1050 q 483 1072 447 1058 q 518 1122 518 1085 q 476 1183 518 1165 q 383 1200 435 1200 l 363 1200 l 363 1253 l 383 1253 q 526 1220 469 1253 q 583 1129 583 1188 q 557 1065 583 1088 q 492 1031 531 1042 q 414 1014 453 1021 z "},"Ē":{"ha":815,"x_min":118,"x_max":751,"o":"m 118 0 l 118 968 l 751 968 l 751 886 l 208 886 l 208 533 l 696 533 l 696 451 l 208 451 l 208 82 l 751 82 l 751 0 l 118 0 m 249 1121 l 249 1175 l 622 1175 l 622 1121 l 249 1121 z "},"Ę":{"ha":815,"x_min":118,"x_max":800,"o":"m 118 0 l 118 968 l 751 968 l 751 886 l 208 886 l 208 533 l 696 533 l 696 451 l 208 451 l 208 82 l 751 82 l 751 0 l 118 0 m 672 -283 q 590 -256 625 -283 q 556 -175 556 -228 q 574 -102 556 -136 q 622 -41 593 -68 q 681 4 650 -14 l 751 0 q 701 -32 726 -14 q 656 -72 676 -50 q 622 -117 635 -93 q 610 -168 610 -142 q 628 -214 610 -199 q 672 -229 646 -229 q 721 -218 694 -229 q 771 -186 747 -207 l 800 -229 q 738 -270 771 -257 q 672 -283 704 -283 z "},"Ẽ":{"ha":815,"x_min":118,"x_max":751,"o":"m 118 0 l 118 968 l 751 968 l 751 886 l 208 886 l 208 533 l 696 533 l 696 451 l 208 451 l 208 82 l 751 82 l 751 0 l 118 0 m 531 1033 q 474 1047 496 1033 q 436 1079 451 1060 q 408 1118 421 1099 q 378 1151 394 1138 q 339 1164 363 1164 q 288 1133 307 1164 q 268 1047 268 1103 l 215 1047 q 249 1171 215 1126 q 342 1215 283 1215 q 394 1202 374 1215 q 431 1169 415 1189 q 460 1129 446 1149 q 490 1097 474 1110 q 532 1083 507 1083 q 578 1118 560 1083 q 597 1210 597 1153 l 653 1210 q 619 1081 653 1128 q 531 1033 586 1033 z "},"Ə":{"ha":1032,"x_min":78,"x_max":954,"o":"m 515 -14 q 281 47 379 -14 q 131 219 183 107 q 78 488 78 331 l 168 488 q 259 182 168 290 q 515 74 350 74 q 772 182 682 74 q 863 488 863 290 q 772 790 863 685 q 510 896 681 896 q 316 845 394 896 q 197 686 238 794 l 114 719 q 264 917 164 850 q 510 983 364 983 q 748 924 649 983 q 901 753 847 864 q 954 486 954 643 q 901 219 954 331 q 751 47 849 107 q 515 -14 653 -14 m 125 417 l 125 488 l 932 488 l 932 417 l 125 417 z "},"F":{"ha":789,"x_min":118,"x_max":746,"o":"m 118 0 l 118 968 l 746 968 l 746 886 l 208 886 l 208 533 l 675 533 l 675 451 l 208 451 l 208 0 l 118 0 z "},"G":{"ha":1011,"x_min":78,"x_max":913,"o":"m 513 -14 q 284 48 382 -14 q 132 222 186 110 q 78 485 78 335 q 133 747 78 635 q 287 920 188 858 q 517 982 386 982 q 763 912 658 982 q 913 718 867 842 l 828 686 q 711 839 790 783 q 517 894 632 894 q 333 844 411 894 q 211 703 254 794 q 168 485 168 611 q 211 266 168 358 q 333 124 254 174 q 517 74 411 74 q 626 88 571 74 q 728 139 681 103 q 803 238 775 175 q 832 399 832 301 l 832 478 l 853 417 l 583 417 l 583 499 l 913 499 l 913 0 l 832 0 l 819 206 l 835 196 q 761 75 811 121 q 646 8 711 29 q 513 -14 581 -14 z "},"Ğ":{"ha":1011,"x_min":78,"x_max":913,"o":"m 513 -14 q 284 48 382 -14 q 132 222 186 110 q 78 485 78 335 q 133 747 78 635 q 287 920 188 858 q 517 982 386 982 q 763 912 658 982 q 913 718 867 842 l 828 686 q 711 839 790 783 q 517 894 632 894 q 333 844 411 894 q 211 703 254 794 q 168 485 168 611 q 211 266 168 358 q 333 124 254 174 q 517 74 411 74 q 626 88 571 74 q 728 139 681 103 q 803 238 775 175 q 832 399 832 301 l 832 478 l 853 417 l 583 417 l 583 499 l 913 499 l 913 0 l 832 0 l 819 206 l 835 196 q 761 75 811 121 q 646 8 711 29 q 513 -14 581 -14 m 518 1029 q 362 1076 414 1029 q 310 1210 310 1122 l 374 1210 q 413 1115 374 1147 q 518 1083 451 1083 q 624 1116 585 1083 q 663 1210 663 1149 l 726 1210 q 673 1075 726 1121 q 518 1029 619 1029 z "},"Ǧ":{"ha":1011,"x_min":78,"x_max":913,"o":"m 513 -14 q 284 48 382 -14 q 132 222 186 110 q 78 485 78 335 q 133 747 78 635 q 287 920 188 858 q 517 982 386 982 q 763 912 658 982 q 913 718 867 842 l 828 686 q 711 839 790 783 q 517 894 632 894 q 333 844 411 894 q 211 703 254 794 q 168 485 168 611 q 211 266 168 358 q 333 124 254 174 q 517 74 411 74 q 626 88 571 74 q 728 139 681 103 q 803 238 775 175 q 832 399 832 301 l 832 478 l 853 417 l 583 417 l 583 499 l 913 499 l 913 0 l 832 0 l 819 206 l 835 196 q 761 75 811 121 q 646 8 711 29 q 513 -14 581 -14 m 518 1042 l 313 1251 l 383 1251 l 518 1115 l 651 1251 l 724 1251 l 518 1042 z "},"Ĝ":{"ha":1011,"x_min":78,"x_max":913,"o":"m 513 -14 q 284 48 382 -14 q 132 222 186 110 q 78 485 78 335 q 133 747 78 635 q 287 920 188 858 q 517 982 386 982 q 763 912 658 982 q 913 718 867 842 l 828 686 q 711 839 790 783 q 517 894 632 894 q 333 844 411 894 q 211 703 254 794 q 168 485 168 611 q 211 266 168 358 q 333 124 254 174 q 517 74 411 74 q 626 88 571 74 q 728 139 681 103 q 803 238 775 175 q 832 399 832 301 l 832 478 l 853 417 l 583 417 l 583 499 l 913 499 l 913 0 l 832 0 l 819 206 l 835 196 q 761 75 811 121 q 646 8 711 29 q 513 -14 581 -14 m 311 1047 l 517 1264 l 722 1047 l 649 1047 l 517 1186 l 385 1047 l 311 1047 z "},"Ģ":{"ha":1011,"x_min":78,"x_max":913,"o":"m 513 -14 q 284 48 382 -14 q 132 222 186 110 q 78 485 78 335 q 133 747 78 635 q 287 920 188 858 q 517 982 386 982 q 763 912 658 982 q 913 718 867 842 l 828 686 q 711 839 790 783 q 517 894 632 894 q 333 844 411 894 q 211 703 254 794 q 168 485 168 611 q 211 266 168 358 q 333 124 254 174 q 517 74 411 74 q 626 88 571 74 q 728 139 681 103 q 803 238 775 175 q 832 399 832 301 l 832 478 l 853 417 l 583 417 l 583 499 l 913 499 l 913 0 l 832 0 l 819 206 l 835 196 q 761 75 811 121 q 646 8 711 29 q 513 -14 581 -14 m 344 -283 l 469 -78 l 564 -78 l 401 -283 l 344 -283 z "},"Ġ":{"ha":1011,"x_min":78,"x_max":913,"o":"m 513 -14 q 284 48 382 -14 q 132 222 186 110 q 78 485 78 335 q 133 747 78 635 q 287 920 188 858 q 517 982 386 982 q 763 912 658 982 q 913 718 867 842 l 828 686 q 711 839 790 783 q 517 894 632 894 q 333 844 411 894 q 211 703 254 794 q 168 485 168 611 q 211 266 168 358 q 333 124 254 174 q 517 74 411 74 q 626 88 571 74 q 728 139 681 103 q 803 238 775 175 q 832 399 832 301 l 832 478 l 853 417 l 583 417 l 583 499 l 913 499 l 913 0 l 832 0 l 819 206 l 835 196 q 761 75 811 121 q 646 8 711 29 q 513 -14 581 -14 m 465 1101 l 465 1251 l 569 1251 l 569 1101 l 465 1101 z "},"Ḡ":{"ha":1011,"x_min":78,"x_max":913,"o":"m 513 -14 q 284 48 382 -14 q 132 222 186 110 q 78 485 78 335 q 133 747 78 635 q 287 920 188 858 q 517 982 386 982 q 763 912 658 982 q 913 718 867 842 l 828 686 q 711 839 790 783 q 517 894 632 894 q 333 844 411 894 q 211 703 254 794 q 168 485 168 611 q 211 266 168 358 q 333 124 254 174 q 517 74 411 74 q 626 88 571 74 q 728 139 681 103 q 803 238 775 175 q 832 399 832 301 l 832 478 l 853 417 l 583 417 l 583 499 l 913 499 l 913 0 l 832 0 l 819 206 l 835 196 q 761 75 811 121 q 646 8 711 29 q 513 -14 581 -14 m 331 1121 l 331 1175 l 704 1175 l 704 1121 l 331 1121 z "},"H":{"ha":929,"x_min":118,"x_max":811,"o":"m 118 0 l 118 968 l 208 968 l 208 536 l 719 536 l 719 968 l 811 968 l 811 0 l 719 0 l 719 451 l 208 451 l 208 0 l 118 0 z "},"Ħ":{"ha":929,"x_min":26,"x_max":906,"o":"m 118 0 l 118 968 l 208 968 l 208 536 l 719 536 l 719 968 l 811 968 l 811 0 l 719 0 l 719 451 l 208 451 l 208 0 l 118 0 m 26 726 l 26 781 l 906 781 l 906 726 l 26 726 z "},"Ĥ":{"ha":929,"x_min":118,"x_max":811,"o":"m 118 0 l 118 968 l 208 968 l 208 536 l 719 536 l 719 968 l 811 968 l 811 0 l 719 0 l 719 451 l 208 451 l 208 0 l 118 0 m 260 1047 l 465 1264 l 671 1047 l 597 1047 l 465 1186 l 333 1047 l 260 1047 z "},"I":{"ha":326,"x_min":118,"x_max":208,"o":"m 118 0 l 118 968 l 208 968 l 208 0 l 118 0 z "},"Ĳ":{"ha":1092,"x_min":118,"x_max":983,"o":"m 118 0 l 118 968 l 208 968 l 208 0 l 118 0 m 681 -14 q 465 65 549 -14 q 372 283 382 144 l 461 292 q 527 126 469 182 q 681 71 585 71 q 841 143 789 71 q 893 351 893 215 l 893 886 l 499 886 l 499 968 l 983 968 l 983 347 q 948 152 983 233 q 845 28 913 71 q 681 -14 778 -14 z "},"Í":{"ha":326,"x_min":118,"x_max":375,"o":"m 118 0 l 118 968 l 208 968 l 208 0 l 118 0 m 131 1057 l 279 1251 l 374 1251 l 197 1057 l 131 1057 z "},"Ĭ":{"ha":326,"x_min":-44,"x_max":372,"o":"m 118 0 l 118 968 l 208 968 l 208 0 l 118 0 m 165 1029 q 9 1076 61 1029 q -43 1210 -43 1122 l 21 1210 q 60 1115 21 1147 q 165 1083 99 1083 q 271 1116 232 1083 q 310 1210 310 1149 l 374 1210 q 320 1075 374 1121 q 165 1029 267 1029 z "},"Ǐ":{"ha":326,"x_min":-42,"x_max":371,"o":"m 118 0 l 118 968 l 208 968 l 208 0 l 118 0 m 165 1042 l -40 1251 l 31 1251 l 165 1115 l 299 1251 l 371 1251 l 165 1042 z "},"Î":{"ha":326,"x_min":-42,"x_max":371,"o":"m 118 0 l 118 968 l 208 968 l 208 0 l 118 0 m -42 1047 l 164 1264 l 369 1047 l 296 1047 l 164 1186 l 32 1047 l -42 1047 z "},"Ï":{"ha":326,"x_min":-12,"x_max":342,"o":"m 118 0 l 118 968 l 208 968 l 208 0 l 118 0 m 238 1101 l 238 1251 l 342 1251 l 342 1101 l 238 1101 m -11 1101 l -11 1251 l 93 1251 l 93 1101 l -11 1101 z "},"İ":{"ha":326,"x_min":111,"x_max":217,"o":"m 118 0 l 118 968 l 208 968 l 208 0 l 118 0 m 113 1101 l 113 1251 l 217 1251 l 217 1101 l 113 1101 z "},"Ị":{"ha":326,"x_min":111,"x_max":217,"o":"m 118 0 l 118 968 l 208 968 l 208 0 l 118 0 m 113 -242 l 113 -101 l 217 -101 l 217 -242 l 113 -242 z "},"Ì":{"ha":326,"x_min":-40,"x_max":208,"o":"m 118 0 l 118 968 l 208 968 l 208 0 l 118 0 m 131 1057 l -39 1251 l 54 1251 l 199 1057 l 131 1057 z "},"Ỉ":{"ha":326,"x_min":92,"x_max":313,"o":"m 118 0 l 118 968 l 208 968 l 208 0 l 118 0 m 143 1014 l 136 1050 q 212 1072 176 1058 q 247 1122 247 1085 q 206 1183 247 1165 q 113 1200 164 1200 l 92 1200 l 92 1253 l 113 1253 q 256 1220 199 1253 q 313 1129 313 1188 q 286 1065 313 1088 q 221 1031 260 1042 q 143 1014 182 1021 z "},"Ī":{"ha":326,"x_min":-24,"x_max":351,"o":"m 118 0 l 118 968 l 208 968 l 208 0 l 118 0 m -22 1121 l -22 1175 l 351 1175 l 351 1121 l -22 1121 z "},"Į":{"ha":326,"x_min":13,"x_max":257,"o":"m 118 0 l 118 968 l 208 968 l 208 0 l 118 0 m 131 -283 q 49 -256 83 -283 q 14 -175 14 -228 q 33 -102 14 -136 q 80 -41 51 -68 q 139 4 108 -14 l 210 0 q 160 -32 185 -14 q 114 -72 135 -50 q 81 -117 93 -93 q 68 -168 68 -142 q 86 -214 68 -199 q 131 -229 104 -229 q 179 -218 153 -229 q 229 -186 206 -207 l 258 -229 q 196 -270 229 -257 q 131 -283 163 -283 z "},"Ĩ":{"ha":326,"x_min":-56,"x_max":382,"o":"m 118 0 l 118 968 l 208 968 l 208 0 l 118 0 m 260 1033 q 203 1047 225 1033 q 165 1079 181 1060 q 137 1118 150 1099 q 108 1151 124 1138 q 68 1164 92 1164 q 17 1133 36 1164 q -3 1047 -3 1103 l -56 1047 q -22 1171 -56 1126 q 71 1215 13 1215 q 124 1202 103 1215 q 160 1169 144 1189 q 189 1129 175 1149 q 219 1097 203 1110 q 261 1083 236 1083 q 308 1118 289 1083 q 326 1210 326 1153 l 382 1210 q 349 1081 382 1128 q 260 1033 315 1033 z "},"J":{"ha":765,"x_min":46,"x_max":657,"o":"m 354 -14 q 139 65 222 -14 q 46 283 56 144 l 135 292 q 201 126 143 182 q 354 71 258 71 q 515 143 463 71 q 567 351 567 215 l 567 886 l 172 886 l 172 968 l 657 968 l 657 347 q 622 152 657 233 q 519 28 586 71 q 354 -14 451 -14 z "},"Ĵ":{"ha":765,"x_min":46,"x_max":657,"o":"m 354 -14 q 139 65 222 -14 q 46 283 56 144 l 135 292 q 201 126 143 182 q 354 71 258 71 q 515 143 463 71 q 567 351 567 215 l 567 886 l 172 886 l 172 968 l 657 968 l 657 347 q 622 152 657 233 q 519 28 586 71 q 354 -14 451 -14 m 208 1047 l 414 1264 l 619 1047 l 546 1047 l 414 1186 l 282 1047 l 208 1047 z "},"K":{"ha":860,"x_min":118,"x_max":826,"o":"m 189 317 l 189 433 l 700 968 l 822 968 l 189 317 m 118 0 l 118 968 l 208 968 l 208 0 l 118 0 m 719 0 l 379 539 l 447 601 l 826 0 l 719 0 z "},"Ķ":{"ha":860,"x_min":118,"x_max":826,"o":"m 189 317 l 189 433 l 700 968 l 822 968 l 189 317 m 118 0 l 118 968 l 208 968 l 208 0 l 118 0 m 719 0 l 379 539 l 447 601 l 826 0 l 719 0 m 258 -283 l 383 -78 l 478 -78 l 315 -283 l 258 -283 z "},"L":{"ha":681,"x_min":118,"x_max":654,"o":"m 118 0 l 118 968 l 208 968 l 208 82 l 654 82 l 654 0 l 118 0 z "},"Ĺ":{"ha":681,"x_min":118,"x_max":654,"o":"m 118 0 l 118 968 l 208 968 l 208 82 l 654 82 l 654 0 l 118 0 m 131 1057 l 279 1251 l 374 1251 l 197 1057 l 131 1057 z "},"Ľ":{"ha":681,"x_min":118,"x_max":654,"o":"m 118 0 l 118 968 l 208 968 l 208 82 l 654 82 l 654 0 l 118 0 m 475 682 l 556 968 l 647 968 l 529 682 l 475 682 z "},"Ļ":{"ha":681,"x_min":118,"x_max":654,"o":"m 118 0 l 118 968 l 208 968 l 208 82 l 654 82 l 654 0 l 118 0 m 182 -283 l 307 -78 l 401 -78 l 239 -283 l 182 -283 z "},"Ŀ":{"ha":813,"x_min":118,"x_max":711,"o":"m 118 0 l 118 968 l 208 968 l 208 82 l 654 82 l 654 0 l 118 0 m 606 410 l 606 560 l 711 560 l 711 410 l 606 410 z "},"Ł":{"ha":681,"x_min":22,"x_max":654,"o":"m 118 0 l 118 968 l 208 968 l 208 82 l 654 82 l 654 0 l 118 0 m 24 290 l 22 382 l 431 704 l 431 613 l 24 290 z "},"M":{"ha":1150,"x_min":118,"x_max":1032,"o":"m 118 0 l 118 968 l 254 968 l 585 168 l 567 168 l 899 968 l 1032 968 l 1032 0 l 942 0 l 942 864 l 947 863 l 621 81 l 531 81 l 203 863 l 208 864 l 208 0 l 118 0 z "},"N":{"ha":926,"x_min":118,"x_max":808,"o":"m 118 0 l 118 968 l 217 968 l 736 117 l 718 117 l 718 968 l 808 968 l 808 0 l 707 0 l 190 853 l 208 853 l 208 0 l 118 0 z "},"Ń":{"ha":926,"x_min":118,"x_max":808,"o":"m 118 0 l 118 968 l 217 968 l 736 117 l 718 117 l 718 968 l 808 968 l 808 0 l 707 0 l 190 853 l 208 853 l 208 0 l 118 0 m 422 1057 l 571 1251 l 665 1251 l 489 1057 l 422 1057 z "},"Ň":{"ha":926,"x_min":118,"x_max":808,"o":"m 118 0 l 118 968 l 217 968 l 736 117 l 718 117 l 718 968 l 808 968 l 808 0 l 707 0 l 190 853 l 208 853 l 208 0 l 118 0 m 457 1042 l 251 1251 l 322 1251 l 457 1115 l 590 1251 l 663 1251 l 457 1042 z "},"Ņ":{"ha":926,"x_min":118,"x_max":808,"o":"m 118 0 l 118 968 l 217 968 l 736 117 l 718 117 l 718 968 l 808 968 l 808 0 l 707 0 l 190 853 l 208 853 l 208 0 l 118 0 m 283 -283 l 408 -78 l 503 -78 l 340 -283 l 283 -283 z "},"Ṅ":{"ha":926,"x_min":118,"x_max":808,"o":"m 118 0 l 118 968 l 217 968 l 736 117 l 718 117 l 718 968 l 808 968 l 808 0 l 707 0 l 190 853 l 208 853 l 208 0 l 118 0 m 404 1101 l 404 1251 l 508 1251 l 508 1101 l 404 1101 z "},"Ɲ":{"ha":928,"x_min":-11,"x_max":810,"o":"m 118 0 l 118 968 l 217 968 l 733 126 l 718 126 l 718 968 l 810 968 l 810 0 l 708 0 l 192 843 l 210 843 l 210 0 l 118 0 m -11 -236 l -11 -174 q 66 -155 38 -174 q 106 -107 94 -136 q 118 -47 118 -78 q 118 -20 118 -29 q 118 0 118 -11 l 210 0 l 210 -37 q 187 -138 210 -93 q 115 -210 164 -183 q -11 -236 67 -236 z "},"Ñ":{"ha":926,"x_min":118,"x_max":808,"o":"m 118 0 l 118 968 l 217 968 l 736 117 l 718 117 l 718 968 l 808 968 l 808 0 l 707 0 l 190 853 l 208 853 l 208 0 l 118 0 m 551 1033 q 494 1047 517 1033 q 457 1079 472 1060 q 428 1118 442 1099 q 399 1151 415 1138 q 360 1164 383 1164 q 308 1133 328 1164 q 289 1047 289 1103 l 236 1047 q 270 1171 236 1126 q 363 1215 304 1215 q 415 1202 394 1215 q 451 1169 436 1189 q 481 1129 467 1149 q 511 1097 494 1110 q 553 1083 528 1083 q 599 1118 581 1083 q 618 1210 618 1153 l 674 1210 q 640 1081 674 1128 q 551 1033 607 1033 z "},"Ŋ":{"ha":926,"x_min":118,"x_max":808,"o":"m 610 -236 q 561 -232 588 -236 q 510 -221 535 -228 l 513 -160 q 551 -170 531 -167 q 588 -174 572 -174 q 690 -136 660 -174 q 721 -50 721 -99 q 717 -21 721 -32 q 707 0 714 -10 l 192 843 l 208 843 l 208 0 l 118 0 l 118 968 l 217 968 l 733 126 l 718 126 l 718 968 l 808 968 l 808 -19 q 788 -128 808 -79 q 724 -207 768 -178 q 610 -236 681 -236 z "},"O":{"ha":1039,"x_min":78,"x_max":960,"o":"m 517 -14 q 287 48 386 -14 q 133 222 188 110 q 78 483 78 333 q 133 746 78 633 q 287 920 188 858 q 517 982 386 982 q 751 920 651 982 q 905 746 850 858 q 960 483 960 633 q 904 222 960 333 q 749 48 849 110 q 517 -14 650 -14 m 517 74 q 703 124 625 74 q 825 266 782 174 q 868 483 868 358 q 825 702 868 610 q 703 844 782 794 q 517 894 625 894 q 333 844 411 894 q 211 703 254 794 q 168 483 168 611 q 211 265 168 357 q 333 124 254 174 q 517 74 411 74 z "},"Ó":{"ha":1039,"x_min":78,"x_max":960,"o":"m 517 -14 q 287 48 386 -14 q 133 222 188 110 q 78 483 78 333 q 133 746 78 633 q 287 920 188 858 q 517 982 386 982 q 751 920 651 982 q 905 746 850 858 q 960 483 960 633 q 904 222 960 333 q 749 48 849 110 q 517 -14 650 -14 m 517 74 q 703 124 625 74 q 825 266 782 174 q 868 483 868 358 q 825 702 868 610 q 703 844 782 794 q 517 894 625 894 q 333 844 411 894 q 211 703 254 794 q 168 483 168 611 q 211 265 168 357 q 333 124 254 174 q 517 74 411 74 m 485 1057 l 633 1251 l 728 1251 l 551 1057 l 485 1057 z "},"Ŏ":{"ha":1039,"x_min":78,"x_max":960,"o":"m 517 -14 q 287 48 386 -14 q 133 222 188 110 q 78 483 78 333 q 133 746 78 633 q 287 920 188 858 q 517 982 386 982 q 751 920 651 982 q 905 746 850 858 q 960 483 960 633 q 904 222 960 333 q 749 48 849 110 q 517 -14 650 -14 m 517 74 q 703 124 625 74 q 825 266 782 174 q 868 483 868 358 q 825 702 868 610 q 703 844 782 794 q 517 894 625 894 q 333 844 411 894 q 211 703 254 794 q 168 483 168 611 q 211 265 168 357 q 333 124 254 174 q 517 74 411 74 m 519 1029 q 363 1076 415 1029 q 311 1210 311 1122 l 375 1210 q 414 1115 375 1147 q 519 1083 453 1083 q 625 1116 586 1083 q 664 1210 664 1149 l 728 1210 q 674 1075 728 1121 q 519 1029 621 1029 z "},"Ǒ":{"ha":1039,"x_min":78,"x_max":960,"o":"m 517 -14 q 287 48 386 -14 q 133 222 188 110 q 78 483 78 333 q 133 746 78 633 q 287 920 188 858 q 517 982 386 982 q 751 920 651 982 q 905 746 850 858 q 960 483 960 633 q 904 222 960 333 q 749 48 849 110 q 517 -14 650 -14 m 517 74 q 703 124 625 74 q 825 266 782 174 q 868 483 868 358 q 825 702 868 610 q 703 844 782 794 q 517 894 625 894 q 333 844 411 894 q 211 703 254 794 q 168 483 168 611 q 211 265 168 357 q 333 124 254 174 q 517 74 411 74 m 519 1042 l 314 1251 l 385 1251 l 519 1115 l 653 1251 l 725 1251 l 519 1042 z "},"Ô":{"ha":1039,"x_min":78,"x_max":960,"o":"m 517 -14 q 287 48 386 -14 q 133 222 188 110 q 78 483 78 333 q 133 746 78 633 q 287 920 188 858 q 517 982 386 982 q 751 920 651 982 q 905 746 850 858 q 960 483 960 633 q 904 222 960 333 q 749 48 849 110 q 517 -14 650 -14 m 517 74 q 703 124 625 74 q 825 266 782 174 q 868 483 868 358 q 825 702 868 610 q 703 844 782 794 q 517 894 625 894 q 333 844 411 894 q 211 703 254 794 q 168 483 168 611 q 211 265 168 357 q 333 124 254 174 q 517 74 411 74 m 313 1047 l 518 1264 l 724 1047 l 649 1047 l 518 1186 l 389 1047 l 313 1047 z "},"Ố":{"ha":1039,"x_min":78,"x_max":960,"o":"m 517 -14 q 287 48 386 -14 q 133 222 188 110 q 78 483 78 333 q 133 746 78 633 q 287 920 188 858 q 517 982 386 982 q 751 920 651 982 q 905 746 850 858 q 960 483 960 633 q 904 222 960 333 q 749 48 849 110 q 517 -14 650 -14 m 517 74 q 703 124 625 74 q 825 266 782 174 q 868 483 868 358 q 825 702 868 610 q 703 844 782 794 q 517 894 625 894 q 333 844 411 894 q 211 703 254 794 q 168 483 168 611 q 211 265 168 357 q 333 124 254 174 q 517 74 411 74 m 313 1035 l 518 1232 l 724 1035 l 649 1035 l 518 1164 l 388 1035 l 313 1035 m 629 1172 l 733 1361 l 807 1361 l 686 1172 l 629 1172 z "},"Ộ":{"ha":1039,"x_min":78,"x_max":960,"o":"m 517 -14 q 287 48 386 -14 q 133 222 188 110 q 78 483 78 333 q 133 746 78 633 q 287 920 188 858 q 517 982 386 982 q 751 920 651 982 q 905 746 850 858 q 960 483 960 633 q 904 222 960 333 q 749 48 849 110 q 517 -14 650 -14 m 517 74 q 703 124 625 74 q 825 266 782 174 q 868 483 868 358 q 825 702 868 610 q 703 844 782 794 q 517 894 625 894 q 333 844 411 894 q 211 703 254 794 q 168 483 168 611 q 211 265 168 357 q 333 124 254 174 q 517 74 411 74 m 467 -242 l 467 -101 l 571 -101 l 571 -242 l 467 -242 m 313 1047 l 518 1264 l 724 1047 l 649 1047 l 518 1186 l 389 1047 l 313 1047 z "},"Ồ":{"ha":1039,"x_min":78,"x_max":960,"o":"m 517 -14 q 287 48 386 -14 q 133 222 188 110 q 78 483 78 333 q 133 746 78 633 q 287 920 188 858 q 517 982 386 982 q 751 920 651 982 q 905 746 850 858 q 960 483 960 633 q 904 222 960 333 q 749 48 849 110 q 517 -14 650 -14 m 517 74 q 703 124 625 74 q 825 266 782 174 q 868 483 868 358 q 825 702 868 610 q 703 844 782 794 q 517 894 625 894 q 333 844 411 894 q 211 703 254 794 q 168 483 168 611 q 211 265 168 357 q 333 124 254 174 q 517 74 411 74 m 313 1035 l 518 1232 l 724 1035 l 649 1035 l 518 1164 l 389 1035 l 313 1035 m 701 1172 l 581 1361 l 654 1361 l 758 1172 l 701 1172 z "},"Ổ":{"ha":1039,"x_min":78,"x_max":960,"o":"m 517 -14 q 287 48 386 -14 q 133 222 188 110 q 78 483 78 333 q 133 746 78 633 q 287 920 188 858 q 517 982 386 982 q 751 920 651 982 q 905 746 850 858 q 960 483 960 633 q 904 222 960 333 q 749 48 849 110 q 517 -14 650 -14 m 517 74 q 703 124 625 74 q 825 266 782 174 q 868 483 868 358 q 825 702 868 610 q 703 844 782 794 q 517 894 625 894 q 333 844 411 894 q 211 703 254 794 q 168 483 168 611 q 211 265 168 357 q 333 124 254 174 q 517 74 411 74 m 313 1035 l 518 1232 l 724 1035 l 649 1035 l 518 1164 l 389 1035 l 313 1035 m 656 1142 l 644 1178 q 721 1201 692 1186 q 750 1250 750 1217 q 731 1294 750 1278 q 683 1319 713 1311 q 621 1326 654 1326 l 600 1326 l 600 1376 l 621 1376 q 753 1344 704 1376 q 803 1256 803 1313 q 783 1193 803 1215 q 728 1160 763 1171 q 656 1142 694 1149 z "},"Ỗ":{"ha":1039,"x_min":78,"x_max":960,"o":"m 517 -14 q 287 48 386 -14 q 133 222 188 110 q 78 483 78 333 q 133 746 78 633 q 287 920 188 858 q 517 982 386 982 q 751 920 651 982 q 905 746 850 858 q 960 483 960 633 q 904 222 960 333 q 749 48 849 110 q 517 -14 650 -14 m 517 74 q 703 124 625 74 q 825 266 782 174 q 868 483 868 358 q 825 702 868 610 q 703 844 782 794 q 517 894 625 894 q 333 844 411 894 q 211 703 254 794 q 168 483 168 611 q 211 265 168 357 q 333 124 254 174 q 517 74 411 74 m 314 1035 l 519 1232 l 725 1035 l 651 1035 l 519 1164 l 389 1035 l 314 1035 m 604 1257 q 548 1267 571 1257 q 508 1289 525 1276 q 473 1311 490 1301 q 432 1321 456 1321 q 389 1306 404 1321 q 367 1265 374 1290 l 315 1269 q 353 1344 324 1317 q 432 1371 383 1371 q 488 1362 465 1371 q 528 1340 510 1353 q 563 1319 546 1328 q 604 1311 581 1311 q 647 1323 632 1311 q 669 1361 663 1335 l 724 1357 q 689 1286 717 1315 q 604 1257 661 1257 z "},"Ö":{"ha":1039,"x_min":78,"x_max":960,"o":"m 517 -14 q 287 48 386 -14 q 133 222 188 110 q 78 483 78 333 q 133 746 78 633 q 287 920 188 858 q 517 982 386 982 q 751 920 651 982 q 905 746 850 858 q 960 483 960 633 q 904 222 960 333 q 749 48 849 110 q 517 -14 650 -14 m 517 74 q 703 124 625 74 q 825 266 782 174 q 868 483 868 358 q 825 702 868 610 q 703 844 782 794 q 517 894 625 894 q 333 844 411 894 q 211 703 254 794 q 168 483 168 611 q 211 265 168 357 q 333 124 254 174 q 517 74 411 74 m 592 1101 l 592 1251 l 696 1251 l 696 1101 l 592 1101 m 343 1101 l 343 1251 l 447 1251 l 447 1101 l 343 1101 z "},"Ọ":{"ha":1039,"x_min":78,"x_max":960,"o":"m 517 -14 q 287 48 386 -14 q 133 222 188 110 q 78 483 78 333 q 133 746 78 633 q 287 920 188 858 q 517 982 386 982 q 751 920 651 982 q 905 746 850 858 q 960 483 960 633 q 904 222 960 333 q 749 48 849 110 q 517 -14 650 -14 m 517 74 q 703 124 625 74 q 825 266 782 174 q 868 483 868 358 q 825 702 868 610 q 703 844 782 794 q 517 894 625 894 q 333 844 411 894 q 211 703 254 794 q 168 483 168 611 q 211 265 168 357 q 333 124 254 174 q 517 74 411 74 m 467 -242 l 467 -101 l 571 -101 l 571 -242 l 467 -242 z "},"Ò":{"ha":1039,"x_min":78,"x_max":960,"o":"m 517 -14 q 287 48 386 -14 q 133 222 188 110 q 78 483 78 333 q 133 746 78 633 q 287 920 188 858 q 517 982 386 982 q 751 920 651 982 q 905 746 850 858 q 960 483 960 633 q 904 222 960 333 q 749 48 849 110 q 517 -14 650 -14 m 517 74 q 703 124 625 74 q 825 266 782 174 q 868 483 868 358 q 825 702 868 610 q 703 844 782 794 q 517 894 625 894 q 333 844 411 894 q 211 703 254 794 q 168 483 168 611 q 211 265 168 357 q 333 124 254 174 q 517 74 411 74 m 485 1057 l 315 1251 l 408 1251 l 553 1057 l 485 1057 z "},"Ỏ":{"ha":1039,"x_min":78,"x_max":960,"o":"m 517 -14 q 287 48 386 -14 q 133 222 188 110 q 78 483 78 333 q 133 746 78 633 q 287 920 188 858 q 517 982 386 982 q 751 920 651 982 q 905 746 850 858 q 960 483 960 633 q 904 222 960 333 q 749 48 849 110 q 517 -14 650 -14 m 517 74 q 703 124 625 74 q 825 266 782 174 q 868 483 868 358 q 825 702 868 610 q 703 844 782 794 q 517 894 625 894 q 333 844 411 894 q 211 703 254 794 q 168 483 168 611 q 211 265 168 357 q 333 124 254 174 q 517 74 411 74 m 497 1014 l 490 1050 q 566 1072 531 1058 q 601 1122 601 1085 q 560 1183 601 1165 q 467 1200 518 1200 l 446 1200 l 446 1253 l 467 1253 q 610 1220 553 1253 q 667 1129 667 1188 q 640 1065 667 1088 q 575 1031 614 1042 q 497 1014 536 1021 z "},"Ơ":{"ha":1039,"x_min":78,"x_max":1025,"o":"m 517 -14 q 287 48 386 -14 q 133 222 188 110 q 78 483 78 333 q 133 746 78 633 q 287 920 188 858 q 517 982 386 982 q 751 920 651 982 q 905 746 850 858 q 960 483 960 633 q 904 222 960 333 q 749 48 849 110 q 517 -14 650 -14 m 517 74 q 703 124 625 74 q 825 266 782 174 q 868 483 868 358 q 825 702 868 610 q 703 844 782 794 q 517 894 625 894 q 333 844 411 894 q 211 703 254 794 q 168 483 168 611 q 211 265 168 357 q 333 124 254 174 q 517 74 411 74 m 836 690 l 836 750 q 933 790 903 750 q 963 906 963 829 l 963 968 l 1025 968 l 1025 900 q 1005 790 1025 836 q 944 717 985 743 q 836 690 903 690 z "},"Ớ":{"ha":1039,"x_min":78,"x_max":1025,"o":"m 517 -14 q 287 48 386 -14 q 133 222 188 110 q 78 483 78 333 q 133 746 78 633 q 287 920 188 858 q 517 982 386 982 q 751 920 651 982 q 905 746 850 858 q 960 483 960 633 q 904 222 960 333 q 749 48 849 110 q 517 -14 650 -14 m 517 74 q 703 124 625 74 q 825 266 782 174 q 868 483 868 358 q 825 702 868 610 q 703 844 782 794 q 517 894 625 894 q 333 844 411 894 q 211 703 254 794 q 168 483 168 611 q 211 265 168 357 q 333 124 254 174 q 517 74 411 74 m 836 690 l 836 750 q 933 790 903 750 q 963 906 963 829 l 963 968 l 1025 968 l 1025 900 q 1005 790 1025 836 q 944 717 985 743 q 836 690 903 690 m 485 1057 l 633 1251 l 728 1251 l 551 1057 l 485 1057 z "},"Ợ":{"ha":1039,"x_min":78,"x_max":1025,"o":"m 517 -14 q 287 48 386 -14 q 133 222 188 110 q 78 483 78 333 q 133 746 78 633 q 287 920 188 858 q 517 982 386 982 q 751 920 651 982 q 905 746 850 858 q 960 483 960 633 q 904 222 960 333 q 749 48 849 110 q 517 -14 650 -14 m 517 74 q 703 124 625 74 q 825 266 782 174 q 868 483 868 358 q 825 702 868 610 q 703 844 782 794 q 517 894 625 894 q 333 844 411 894 q 211 703 254 794 q 168 483 168 611 q 211 265 168 357 q 333 124 254 174 q 517 74 411 74 m 836 690 l 836 750 q 933 790 903 750 q 963 906 963 829 l 963 968 l 1025 968 l 1025 900 q 1005 790 1025 836 q 944 717 985 743 q 836 690 903 690 m 467 -242 l 467 -101 l 571 -101 l 571 -242 l 467 -242 z "},"Ờ":{"ha":1039,"x_min":78,"x_max":1025,"o":"m 517 -14 q 287 48 386 -14 q 133 222 188 110 q 78 483 78 333 q 133 746 78 633 q 287 920 188 858 q 517 982 386 982 q 751 920 651 982 q 905 746 850 858 q 960 483 960 633 q 904 222 960 333 q 749 48 849 110 q 517 -14 650 -14 m 517 74 q 703 124 625 74 q 825 266 782 174 q 868 483 868 358 q 825 702 868 610 q 703 844 782 794 q 517 894 625 894 q 333 844 411 894 q 211 703 254 794 q 168 483 168 611 q 211 265 168 357 q 333 124 254 174 q 517 74 411 74 m 836 690 l 836 750 q 933 790 903 750 q 963 906 963 829 l 963 968 l 1025 968 l 1025 900 q 1005 790 1025 836 q 944 717 985 743 q 836 690 903 690 m 485 1057 l 315 1251 l 408 1251 l 553 1057 l 485 1057 z "},"Ở":{"ha":1039,"x_min":78,"x_max":1025,"o":"m 517 -14 q 287 48 386 -14 q 133 222 188 110 q 78 483 78 333 q 133 746 78 633 q 287 920 188 858 q 517 982 386 982 q 751 920 651 982 q 905 746 850 858 q 960 483 960 633 q 904 222 960 333 q 749 48 849 110 q 517 -14 650 -14 m 517 74 q 703 124 625 74 q 825 266 782 174 q 868 483 868 358 q 825 702 868 610 q 703 844 782 794 q 517 894 625 894 q 333 844 411 894 q 211 703 254 794 q 168 483 168 611 q 211 265 168 357 q 333 124 254 174 q 517 74 411 74 m 836 690 l 836 750 q 933 790 903 750 q 963 906 963 829 l 963 968 l 1025 968 l 1025 900 q 1005 790 1025 836 q 944 717 985 743 q 836 690 903 690 m 497 1014 l 490 1050 q 566 1072 531 1058 q 601 1122 601 1085 q 560 1183 601 1165 q 467 1200 518 1200 l 446 1200 l 446 1253 l 467 1253 q 610 1220 553 1253 q 667 1129 667 1188 q 640 1065 667 1088 q 575 1031 614 1042 q 497 1014 536 1021 z "},"Ỡ":{"ha":1039,"x_min":78,"x_max":1025,"o":"m 517 -14 q 287 48 386 -14 q 133 222 188 110 q 78 483 78 333 q 133 746 78 633 q 287 920 188 858 q 517 982 386 982 q 751 920 651 982 q 905 746 850 858 q 960 483 960 633 q 904 222 960 333 q 749 48 849 110 q 517 -14 650 -14 m 517 74 q 703 124 625 74 q 825 266 782 174 q 868 483 868 358 q 825 702 868 610 q 703 844 782 794 q 517 894 625 894 q 333 844 411 894 q 211 703 254 794 q 168 483 168 611 q 211 265 168 357 q 333 124 254 174 q 517 74 411 74 m 836 690 l 836 750 q 933 790 903 750 q 963 906 963 829 l 963 968 l 1025 968 l 1025 900 q 1005 790 1025 836 q 944 717 985 743 q 836 690 903 690 m 614 1033 q 557 1047 579 1033 q 519 1079 535 1060 q 491 1118 504 1099 q 462 1151 478 1138 q 422 1164 446 1164 q 371 1133 390 1164 q 351 1047 351 1103 l 299 1047 q 333 1171 299 1126 q 425 1215 367 1215 q 478 1202 457 1215 q 514 1169 499 1189 q 543 1129 529 1149 q 574 1097 557 1110 q 615 1083 590 1083 q 662 1118 643 1083 q 681 1210 681 1153 l 736 1210 q 703 1081 736 1128 q 614 1033 669 1033 z "},"Ő":{"ha":1039,"x_min":78,"x_max":960,"o":"m 517 -14 q 287 48 386 -14 q 133 222 188 110 q 78 483 78 333 q 133 746 78 633 q 287 920 188 858 q 517 982 386 982 q 751 920 651 982 q 905 746 850 858 q 960 483 960 633 q 904 222 960 333 q 749 48 849 110 q 517 -14 650 -14 m 517 74 q 703 124 625 74 q 825 266 782 174 q 868 483 868 358 q 825 702 868 610 q 703 844 782 794 q 517 894 625 894 q 333 844 411 894 q 211 703 254 794 q 168 483 168 611 q 211 265 168 357 q 333 124 254 174 q 517 74 411 74 m 601 1043 l 751 1251 l 844 1251 l 669 1043 l 601 1043 m 369 1043 l 518 1251 l 599 1251 l 436 1043 l 369 1043 z "},"Ō":{"ha":1039,"x_min":78,"x_max":960,"o":"m 517 -14 q 287 48 386 -14 q 133 222 188 110 q 78 483 78 333 q 133 746 78 633 q 287 920 188 858 q 517 982 386 982 q 751 920 651 982 q 905 746 850 858 q 960 483 960 633 q 904 222 960 333 q 749 48 849 110 q 517 -14 650 -14 m 517 74 q 703 124 625 74 q 825 266 782 174 q 868 483 868 358 q 825 702 868 610 q 703 844 782 794 q 517 894 625 894 q 333 844 411 894 q 211 703 254 794 q 168 483 168 611 q 211 265 168 357 q 333 124 254 174 q 517 74 411 74 m 332 1121 l 332 1175 l 706 1175 l 706 1121 l 332 1121 z "},"Ǫ":{"ha":1039,"x_min":78,"x_max":960,"o":"m 517 -14 q 287 48 386 -14 q 133 222 188 110 q 78 483 78 333 q 133 746 78 633 q 287 920 188 858 q 517 982 386 982 q 751 920 651 982 q 905 746 850 858 q 960 483 960 633 q 904 222 960 333 q 749 48 849 110 q 517 -14 650 -14 m 517 74 q 703 124 625 74 q 825 266 782 174 q 868 483 868 358 q 825 702 868 610 q 703 844 782 794 q 517 894 625 894 q 333 844 411 894 q 211 703 254 794 q 168 483 168 611 q 211 265 168 357 q 333 124 254 174 q 517 74 411 74 m 538 -283 q 456 -256 490 -283 q 421 -175 421 -228 q 440 -102 421 -136 q 487 -41 458 -68 q 546 4 515 -14 l 617 0 q 567 -32 592 -14 q 521 -72 542 -50 q 488 -117 500 -93 q 475 -168 475 -142 q 493 -214 475 -199 q 538 -229 511 -229 q 586 -218 560 -229 q 636 -186 613 -207 l 665 -229 q 603 -270 636 -257 q 538 -283 569 -283 z "},"Ø":{"ha":1039,"x_min":78,"x_max":960,"o":"m 517 -14 q 287 48 386 -14 q 133 222 188 110 q 78 483 78 333 q 133 746 78 633 q 287 920 188 858 q 517 982 386 982 q 751 920 651 982 q 905 746 850 858 q 960 483 960 633 q 904 222 960 333 q 749 48 849 110 q 517 -14 650 -14 m 517 74 q 703 124 625 74 q 825 266 782 174 q 868 483 868 358 q 825 702 868 610 q 703 844 782 794 q 517 894 625 894 q 333 844 411 894 q 211 703 254 794 q 168 483 168 611 q 211 265 168 357 q 333 124 254 174 q 517 74 411 74 m 151 0 l 821 968 l 883 968 l 215 0 l 151 0 z "},"Ǿ":{"ha":1039,"x_min":78,"x_max":960,"o":"m 517 -14 q 287 48 386 -14 q 133 222 188 110 q 78 483 78 333 q 133 746 78 633 q 287 920 188 858 q 517 982 386 982 q 751 920 651 982 q 905 746 850 858 q 960 483 960 633 q 904 222 960 333 q 749 48 849 110 q 517 -14 650 -14 m 517 74 q 703 124 625 74 q 825 266 782 174 q 868 483 868 358 q 825 702 868 610 q 703 844 782 794 q 517 894 625 894 q 333 844 411 894 q 211 703 254 794 q 168 483 168 611 q 211 265 168 357 q 333 124 254 174 q 517 74 411 74 m 151 0 l 821 968 l 883 968 l 215 0 l 151 0 m 485 1057 l 633 1251 l 728 1251 l 551 1057 l 485 1057 z "},"Õ":{"ha":1039,"x_min":78,"x_max":960,"o":"m 517 -14 q 287 48 386 -14 q 133 222 188 110 q 78 483 78 333 q 133 746 78 633 q 287 920 188 858 q 517 982 386 982 q 751 920 651 982 q 905 746 850 858 q 960 483 960 633 q 904 222 960 333 q 749 48 849 110 q 517 -14 650 -14 m 517 74 q 703 124 625 74 q 825 266 782 174 q 868 483 868 358 q 825 702 868 610 q 703 844 782 794 q 517 894 625 894 q 333 844 411 894 q 211 703 254 794 q 168 483 168 611 q 211 265 168 357 q 333 124 254 174 q 517 74 411 74 m 614 1033 q 557 1047 579 1033 q 519 1079 535 1060 q 491 1118 504 1099 q 462 1151 478 1138 q 422 1164 446 1164 q 371 1133 390 1164 q 351 1047 351 1103 l 299 1047 q 333 1171 299 1126 q 425 1215 367 1215 q 478 1202 457 1215 q 514 1169 499 1189 q 543 1129 529 1149 q 574 1097 557 1110 q 615 1083 590 1083 q 662 1118 643 1083 q 681 1210 681 1153 l 736 1210 q 703 1081 736 1128 q 614 1033 669 1033 z "},"Œ":{"ha":1438,"x_min":78,"x_max":1374,"o":"m 572 0 q 206 123 333 0 q 78 476 78 246 q 207 840 78 711 q 571 968 336 968 l 1374 968 l 1374 886 l 832 886 l 832 533 l 1318 533 l 1318 451 l 832 451 l 832 82 l 1374 82 l 1374 0 l 572 0 m 582 83 l 740 83 l 740 885 l 574 885 q 356 841 446 885 q 217 707 265 797 q 169 479 169 617 q 217 254 169 342 q 358 125 265 167 q 582 83 450 83 z "},"P":{"ha":764,"x_min":118,"x_max":708,"o":"m 118 0 l 118 968 l 390 968 q 626 899 543 968 q 708 697 708 829 q 626 496 708 567 q 390 425 543 425 l 208 425 l 208 0 l 118 0 m 208 506 l 381 506 q 554 553 492 506 q 617 697 617 601 q 556 838 617 790 q 381 886 494 886 l 208 886 l 208 506 z "},"Þ":{"ha":874,"x_min":188,"x_max":769,"o":"m 188 0 l 188 968 l 271 968 l 271 828 l 467 828 q 689 757 608 828 q 769 560 769 686 q 685 360 769 432 q 449 288 600 288 l 271 288 l 271 0 l 188 0 m 271 364 l 449 364 q 624 413 561 364 q 686 558 686 463 q 623 706 686 656 q 449 756 560 756 l 271 756 l 271 364 z "},"Q":{"ha":1067,"x_min":78,"x_max":988,"o":"m 517 -14 q 287 48 386 -14 q 133 222 188 110 q 78 483 78 335 q 133 746 78 633 q 287 920 188 858 q 517 982 386 982 q 751 920 651 982 q 905 746 850 858 q 960 483 960 633 q 904 222 960 333 q 749 48 849 110 q 517 -14 650 -14 m 932 -57 l 567 301 l 621 358 l 988 -3 l 932 -57 m 517 74 q 703 124 625 74 q 825 266 782 174 q 868 483 868 358 q 825 702 868 610 q 703 844 782 794 q 517 894 625 894 q 333 844 411 894 q 211 703 254 794 q 168 483 168 611 q 211 265 168 357 q 333 124 254 174 q 517 74 411 74 z "},"R":{"ha":821,"x_min":118,"x_max":772,"o":"m 118 0 l 118 968 l 390 968 q 567 936 497 968 q 673 844 638 904 q 708 700 708 785 q 642 517 708 585 q 449 435 575 449 q 402 433 429 433 q 350 432 375 432 l 208 432 l 208 0 l 118 0 m 668 0 l 411 444 l 504 457 l 772 0 l 668 0 m 208 513 l 381 513 q 507 533 454 513 q 588 594 560 553 q 617 700 617 635 q 588 806 617 765 q 506 867 558 847 q 381 886 453 886 l 208 886 l 208 513 z "},"Ŕ":{"ha":821,"x_min":118,"x_max":772,"o":"m 118 0 l 118 968 l 390 968 q 567 936 497 968 q 673 844 638 904 q 708 700 708 785 q 642 517 708 585 q 449 435 575 449 q 402 433 429 433 q 350 432 375 432 l 208 432 l 208 0 l 118 0 m 668 0 l 411 444 l 504 457 l 772 0 l 668 0 m 208 513 l 381 513 q 507 533 454 513 q 588 594 560 553 q 617 700 617 635 q 588 806 617 765 q 506 867 558 847 q 381 886 453 886 l 208 886 l 208 513 m 364 1057 l 513 1251 l 607 1251 l 431 1057 l 364 1057 z "},"Ř":{"ha":821,"x_min":118,"x_max":772,"o":"m 118 0 l 118 968 l 390 968 q 567 936 497 968 q 673 844 638 904 q 708 700 708 785 q 642 517 708 585 q 449 435 575 449 q 402 433 429 433 q 350 432 375 432 l 208 432 l 208 0 l 118 0 m 668 0 l 411 444 l 504 457 l 772 0 l 668 0 m 208 513 l 381 513 q 507 533 454 513 q 588 594 560 553 q 617 700 617 635 q 588 806 617 765 q 506 867 558 847 q 381 886 453 886 l 208 886 l 208 513 m 397 1042 l 192 1251 l 263 1251 l 397 1115 l 531 1251 l 603 1251 l 397 1042 z "},"Ŗ":{"ha":821,"x_min":118,"x_max":772,"o":"m 118 0 l 118 968 l 390 968 q 567 936 497 968 q 673 844 638 904 q 708 700 708 785 q 642 517 708 585 q 449 435 575 449 q 402 433 429 433 q 350 432 375 432 l 208 432 l 208 0 l 118 0 m 668 0 l 411 444 l 504 457 l 772 0 l 668 0 m 208 513 l 381 513 q 507 533 454 513 q 588 594 560 553 q 617 700 617 635 q 588 806 617 765 q 506 867 558 847 q 381 886 453 886 l 208 886 l 208 513 m 225 -283 l 350 -78 l 444 -78 l 282 -283 l 225 -283 z "},"S":{"ha":776,"x_min":61,"x_max":706,"o":"m 403 -12 q 171 61 261 -12 q 61 257 81 135 l 150 279 q 235 123 167 176 q 406 69 304 69 q 513 93 465 69 q 589 160 561 117 q 617 258 617 203 q 585 355 617 318 q 500 418 553 392 q 381 469 447 444 q 246 533 306 499 q 152 615 186 567 q 118 736 118 664 q 153 863 118 808 q 251 950 188 918 q 397 982 314 982 q 554 942 486 982 q 664 824 622 901 l 592 779 q 509 869 558 838 q 394 901 460 901 q 297 881 339 901 q 232 823 256 860 q 208 739 208 786 q 235 654 208 689 q 313 594 263 619 q 432 544 364 569 q 574 478 513 514 q 671 392 636 443 q 706 264 706 340 q 667 121 706 183 q 560 23 628 58 q 403 -12 492 -12 z "},"Ś":{"ha":776,"x_min":61,"x_max":706,"o":"m 403 -12 q 171 61 261 -12 q 61 257 81 135 l 150 279 q 235 123 167 176 q 406 69 304 69 q 513 93 465 69 q 589 160 561 117 q 617 258 617 203 q 585 355 617 318 q 500 418 553 392 q 381 469 447 444 q 246 533 306 499 q 152 615 186 567 q 118 736 118 664 q 153 863 118 808 q 251 950 188 918 q 397 982 314 982 q 554 942 486 982 q 664 824 622 901 l 592 779 q 509 869 558 838 q 394 901 460 901 q 297 881 339 901 q 232 823 256 860 q 208 739 208 786 q 235 654 208 689 q 313 594 263 619 q 432 544 364 569 q 574 478 513 514 q 671 392 636 443 q 706 264 706 340 q 667 121 706 183 q 560 23 628 58 q 403 -12 492 -12 m 354 1057 l 503 1251 l 597 1251 l 421 1057 l 354 1057 z "},"Š":{"ha":776,"x_min":61,"x_max":706,"o":"m 403 -12 q 171 61 261 -12 q 61 257 81 135 l 150 279 q 235 123 167 176 q 406 69 304 69 q 513 93 465 69 q 589 160 561 117 q 617 258 617 203 q 585 355 617 318 q 500 418 553 392 q 381 469 447 444 q 246 533 306 499 q 152 615 186 567 q 118 736 118 664 q 153 863 118 808 q 251 950 188 918 q 397 982 314 982 q 554 942 486 982 q 664 824 622 901 l 592 779 q 509 869 558 838 q 394 901 460 901 q 297 881 339 901 q 232 823 256 860 q 208 739 208 786 q 235 654 208 689 q 313 594 263 619 q 432 544 364 569 q 574 478 513 514 q 671 392 636 443 q 706 264 706 340 q 667 121 706 183 q 560 23 628 58 q 403 -12 492 -12 m 389 1042 l 183 1251 l 254 1251 l 389 1115 l 522 1251 l 594 1251 l 389 1042 z "},"Ş":{"ha":776,"x_min":61,"x_max":706,"o":"m 403 -12 q 171 61 261 -12 q 61 257 81 135 l 150 279 q 235 123 167 176 q 406 69 304 69 q 513 93 465 69 q 589 160 561 117 q 617 258 617 203 q 585 355 617 318 q 500 418 553 392 q 381 469 447 444 q 246 533 306 499 q 152 615 186 567 q 118 736 118 664 q 153 863 118 808 q 251 950 188 918 q 397 982 314 982 q 554 942 486 982 q 664 824 622 901 l 592 779 q 509 869 558 838 q 394 901 460 901 q 297 881 339 901 q 232 823 256 860 q 208 739 208 786 q 235 654 208 689 q 313 594 263 619 q 432 544 364 569 q 574 478 513 514 q 671 392 636 443 q 706 264 706 340 q 667 121 706 183 q 560 23 628 58 q 403 -12 492 -12 m 361 -283 q 313 -277 338 -283 q 267 -258 288 -271 q 232 -229 246 -246 l 264 -194 q 307 -225 281 -214 q 360 -236 333 -236 q 419 -222 396 -236 q 443 -176 443 -207 q 427 -140 443 -153 q 386 -120 411 -126 q 333 -111 361 -114 q 282 -107 306 -108 l 365 8 l 422 8 l 358 -72 q 457 -103 417 -81 q 497 -174 497 -125 q 458 -255 497 -226 q 361 -283 419 -283 z "},"Ŝ":{"ha":776,"x_min":61,"x_max":706,"o":"m 403 -12 q 171 61 261 -12 q 61 257 81 135 l 150 279 q 235 123 167 176 q 406 69 304 69 q 513 93 465 69 q 589 160 561 117 q 617 258 617 203 q 585 355 617 318 q 500 418 553 392 q 381 469 447 444 q 246 533 306 499 q 152 615 186 567 q 118 736 118 664 q 153 863 118 808 q 251 950 188 918 q 397 982 314 982 q 554 942 486 982 q 664 824 622 901 l 592 779 q 509 869 558 838 q 394 901 460 901 q 297 881 339 901 q 232 823 256 860 q 208 739 208 786 q 235 654 208 689 q 313 594 263 619 q 432 544 364 569 q 574 478 513 514 q 671 392 636 443 q 706 264 706 340 q 667 121 706 183 q 560 23 628 58 q 403 -12 492 -12 m 182 1047 l 388 1264 l 593 1047 l 518 1047 l 388 1186 l 258 1047 l 182 1047 z "},"Ș":{"ha":776,"x_min":61,"x_max":706,"o":"m 403 -12 q 171 61 261 -12 q 61 257 81 135 l 150 279 q 235 123 167 176 q 406 69 304 69 q 513 93 465 69 q 589 160 561 117 q 617 258 617 203 q 585 355 617 318 q 500 418 553 392 q 381 469 447 444 q 246 533 306 499 q 152 615 186 567 q 118 736 118 664 q 153 863 118 808 q 251 950 188 918 q 397 982 314 982 q 554 942 486 982 q 664 824 622 901 l 592 779 q 509 869 558 838 q 394 901 460 901 q 297 881 339 901 q 232 823 256 860 q 208 739 208 786 q 235 654 208 689 q 313 594 263 619 q 432 544 364 569 q 574 478 513 514 q 671 392 636 443 q 706 264 706 340 q 667 121 706 183 q 560 23 628 58 q 403 -12 492 -12 m 215 -283 l 340 -78 l 435 -78 l 272 -283 l 215 -283 z "},"ẞ":{"ha":1029,"x_min":118,"x_max":960,"o":"m 118 0 l 118 968 l 917 968 l 917 886 l 208 886 l 208 0 l 118 0 m 647 -12 q 488 21 558 -12 q 372 115 417 54 q 313 257 326 176 l 403 279 q 484 124 418 179 q 649 69 550 69 q 763 93 713 69 q 840 160 813 117 q 868 257 868 203 q 838 353 868 315 q 756 417 808 390 q 633 472 703 444 q 498 536 557 503 q 405 619 439 569 q 371 749 371 669 q 415 861 371 817 q 529 913 458 906 l 611 904 q 502 855 543 897 q 461 749 461 813 q 489 658 461 693 q 567 597 517 622 q 683 544 617 572 q 823 479 760 514 q 923 394 886 444 q 960 264 960 344 q 919 122 960 185 q 807 23 878 58 q 647 -12 736 -12 z "},"T":{"ha":821,"x_min":25,"x_max":793,"o":"m 364 0 l 364 886 l 25 886 l 25 968 l 793 968 l 793 886 l 456 886 l 456 0 l 364 0 z "},"Ŧ":{"ha":821,"x_min":25,"x_max":793,"o":"m 364 0 l 364 886 l 25 886 l 25 968 l 793 968 l 793 886 l 456 886 l 456 0 l 364 0 m 226 456 l 226 515 l 592 515 l 592 456 l 226 456 z "},"Ť":{"ha":821,"x_min":25,"x_max":793,"o":"m 364 0 l 364 886 l 25 886 l 25 968 l 793 968 l 793 886 l 456 886 l 456 0 l 364 0 m 410 1042 l 204 1251 l 275 1251 l 410 1115 l 543 1251 l 615 1251 l 410 1042 z "},"Ţ":{"ha":821,"x_min":25,"x_max":793,"o":"m 364 0 l 364 886 l 25 886 l 25 968 l 793 968 l 793 886 l 456 886 l 456 0 l 364 0 m 383 -283 q 335 -277 360 -283 q 289 -258 310 -271 q 254 -229 268 -246 l 286 -194 q 329 -225 303 -214 q 382 -236 356 -236 q 442 -222 418 -236 q 465 -176 465 -207 q 449 -140 465 -153 q 408 -120 433 -126 q 356 -111 383 -114 q 304 -107 328 -108 l 388 8 l 444 8 l 381 -72 q 479 -103 439 -81 q 519 -174 519 -125 q 481 -255 519 -226 q 383 -283 442 -283 z "},"Ț":{"ha":821,"x_min":25,"x_max":793,"o":"m 364 0 l 364 886 l 25 886 l 25 968 l 793 968 l 793 886 l 456 886 l 456 0 l 364 0 m 238 -283 l 363 -78 l 457 -78 l 294 -283 l 238 -283 z "},"U":{"ha":908,"x_min":108,"x_max":799,"o":"m 453 -14 q 197 79 286 -14 q 108 350 108 172 l 108 968 l 199 968 l 199 360 q 225 201 199 265 q 308 103 251 136 q 453 71 364 71 q 597 105 540 71 q 682 203 654 139 q 710 363 710 268 l 710 968 l 799 968 l 799 357 q 710 81 799 176 q 453 -14 621 -14 z "},"Ú":{"ha":908,"x_min":108,"x_max":799,"o":"m 453 -14 q 197 79 286 -14 q 108 350 108 172 l 108 968 l 199 968 l 199 360 q 225 201 199 265 q 308 103 251 136 q 453 71 364 71 q 597 105 540 71 q 682 203 654 139 q 710 363 710 268 l 710 968 l 799 968 l 799 357 q 710 81 799 176 q 453 -14 621 -14 m 421 1057 l 569 1251 l 664 1251 l 488 1057 l 421 1057 z "},"Ŭ":{"ha":908,"x_min":108,"x_max":799,"o":"m 453 -14 q 197 79 286 -14 q 108 350 108 172 l 108 968 l 199 968 l 199 360 q 225 201 199 265 q 308 103 251 136 q 453 71 364 71 q 597 105 540 71 q 682 203 654 139 q 710 363 710 268 l 710 968 l 799 968 l 799 357 q 710 81 799 176 q 453 -14 621 -14 m 454 1029 q 298 1076 350 1029 q 246 1210 246 1122 l 310 1210 q 349 1115 310 1147 q 454 1083 388 1083 q 560 1116 521 1083 q 599 1210 599 1149 l 663 1210 q 609 1075 663 1121 q 454 1029 556 1029 z "},"Ǔ":{"ha":908,"x_min":108,"x_max":799,"o":"m 453 -14 q 197 79 286 -14 q 108 350 108 172 l 108 968 l 199 968 l 199 360 q 225 201 199 265 q 308 103 251 136 q 453 71 364 71 q 597 105 540 71 q 682 203 654 139 q 710 363 710 268 l 710 968 l 799 968 l 799 357 q 710 81 799 176 q 453 -14 621 -14 m 454 1042 l 249 1251 l 319 1251 l 454 1115 l 588 1251 l 660 1251 l 454 1042 z "},"Û":{"ha":908,"x_min":108,"x_max":799,"o":"m 453 -14 q 197 79 286 -14 q 108 350 108 172 l 108 968 l 199 968 l 199 360 q 225 201 199 265 q 308 103 251 136 q 453 71 364 71 q 597 105 540 71 q 682 203 654 139 q 710 363 710 268 l 710 968 l 799 968 l 799 357 q 710 81 799 176 q 453 -14 621 -14 m 249 1047 l 454 1264 l 660 1047 l 585 1047 l 454 1186 l 325 1047 l 249 1047 z "},"Ü":{"ha":908,"x_min":108,"x_max":799,"o":"m 453 -14 q 197 79 286 -14 q 108 350 108 172 l 108 968 l 199 968 l 199 360 q 225 201 199 265 q 308 103 251 136 q 453 71 364 71 q 597 105 540 71 q 682 203 654 139 q 710 363 710 268 l 710 968 l 799 968 l 799 357 q 710 81 799 176 q 453 -14 621 -14 m 526 1101 l 526 1251 l 631 1251 l 631 1101 l 526 1101 m 278 1101 l 278 1251 l 382 1251 l 382 1101 l 278 1101 z "},"Ụ":{"ha":908,"x_min":108,"x_max":799,"o":"m 453 -14 q 197 79 286 -14 q 108 350 108 172 l 108 968 l 199 968 l 199 360 q 225 201 199 265 q 308 103 251 136 q 453 71 364 71 q 597 105 540 71 q 682 203 654 139 q 710 363 710 268 l 710 968 l 799 968 l 799 357 q 710 81 799 176 q 453 -14 621 -14 m 401 -242 l 401 -101 l 506 -101 l 506 -242 l 401 -242 z "},"Ù":{"ha":908,"x_min":108,"x_max":799,"o":"m 453 -14 q 197 79 286 -14 q 108 350 108 172 l 108 968 l 199 968 l 199 360 q 225 201 199 265 q 308 103 251 136 q 453 71 364 71 q 597 105 540 71 q 682 203 654 139 q 710 363 710 268 l 710 968 l 799 968 l 799 357 q 710 81 799 176 q 453 -14 621 -14 m 419 1057 l 250 1251 l 343 1251 l 488 1057 l 419 1057 z "},"Ủ":{"ha":908,"x_min":108,"x_max":799,"o":"m 453 -14 q 197 79 286 -14 q 108 350 108 172 l 108 968 l 199 968 l 199 360 q 225 201 199 265 q 308 103 251 136 q 453 71 364 71 q 597 105 540 71 q 682 203 654 139 q 710 363 710 268 l 710 968 l 799 968 l 799 357 q 710 81 799 176 q 453 -14 621 -14 m 433 1014 l 426 1050 q 502 1072 467 1058 q 538 1122 538 1085 q 496 1183 538 1165 q 403 1200 454 1200 l 382 1200 l 382 1253 l 403 1253 q 546 1220 489 1253 q 603 1129 603 1188 q 576 1065 603 1088 q 511 1031 550 1042 q 433 1014 472 1021 z "},"Ư":{"ha":1014,"x_min":108,"x_max":969,"o":"m 453 -14 q 197 79 286 -14 q 108 350 108 172 l 108 968 l 199 968 l 199 360 q 225 201 199 265 q 308 103 251 136 q 453 71 364 71 q 597 105 540 71 q 682 203 654 139 q 710 363 710 268 l 710 968 l 799 968 l 799 357 q 710 81 799 176 q 453 -14 621 -14 m 781 690 l 781 750 q 877 790 847 750 q 907 906 907 829 l 907 968 l 969 968 l 969 900 q 949 790 969 836 q 888 717 929 743 q 781 690 847 690 z "},"Ứ":{"ha":1014,"x_min":108,"x_max":969,"o":"m 453 -14 q 197 79 286 -14 q 108 350 108 172 l 108 968 l 199 968 l 199 360 q 225 201 199 265 q 308 103 251 136 q 453 71 364 71 q 597 105 540 71 q 682 203 654 139 q 710 363 710 268 l 710 968 l 799 968 l 799 357 q 710 81 799 176 q 453 -14 621 -14 m 781 690 l 781 750 q 877 790 847 750 q 907 906 907 829 l 907 968 l 969 968 l 969 900 q 949 790 969 836 q 888 717 929 743 q 781 690 847 690 m 421 1057 l 569 1251 l 664 1251 l 488 1057 l 421 1057 z "},"Ự":{"ha":1014,"x_min":108,"x_max":969,"o":"m 453 -14 q 197 79 286 -14 q 108 350 108 172 l 108 968 l 199 968 l 199 360 q 225 201 199 265 q 308 103 251 136 q 453 71 364 71 q 597 105 540 71 q 682 203 654 139 q 710 363 710 268 l 710 968 l 799 968 l 799 357 q 710 81 799 176 q 453 -14 621 -14 m 781 690 l 781 750 q 877 790 847 750 q 907 906 907 829 l 907 968 l 969 968 l 969 900 q 949 790 969 836 q 888 717 929 743 q 781 690 847 690 m 401 -242 l 401 -101 l 506 -101 l 506 -242 l 401 -242 z "},"Ừ":{"ha":1014,"x_min":108,"x_max":969,"o":"m 453 -14 q 197 79 286 -14 q 108 350 108 172 l 108 968 l 199 968 l 199 360 q 225 201 199 265 q 308 103 251 136 q 453 71 364 71 q 597 105 540 71 q 682 203 654 139 q 710 363 710 268 l 710 968 l 799 968 l 799 357 q 710 81 799 176 q 453 -14 621 -14 m 781 690 l 781 750 q 877 790 847 750 q 907 906 907 829 l 907 968 l 969 968 l 969 900 q 949 790 969 836 q 888 717 929 743 q 781 690 847 690 m 419 1057 l 250 1251 l 343 1251 l 488 1057 l 419 1057 z "},"Ử":{"ha":1014,"x_min":108,"x_max":969,"o":"m 453 -14 q 197 79 286 -14 q 108 350 108 172 l 108 968 l 199 968 l 199 360 q 225 201 199 265 q 308 103 251 136 q 453 71 364 71 q 597 105 540 71 q 682 203 654 139 q 710 363 710 268 l 710 968 l 799 968 l 799 357 q 710 81 799 176 q 453 -14 621 -14 m 781 690 l 781 750 q 877 790 847 750 q 907 906 907 829 l 907 968 l 969 968 l 969 900 q 949 790 969 836 q 888 717 929 743 q 781 690 847 690 m 433 1014 l 426 1050 q 502 1072 467 1058 q 538 1122 538 1085 q 496 1183 538 1165 q 403 1200 454 1200 l 382 1200 l 382 1253 l 403 1253 q 546 1220 489 1253 q 603 1129 603 1188 q 576 1065 603 1088 q 511 1031 550 1042 q 433 1014 472 1021 z "},"Ữ":{"ha":1014,"x_min":108,"x_max":969,"o":"m 453 -14 q 197 79 286 -14 q 108 350 108 172 l 108 968 l 199 968 l 199 360 q 225 201 199 265 q 308 103 251 136 q 453 71 364 71 q 597 105 540 71 q 682 203 654 139 q 710 363 710 268 l 710 968 l 799 968 l 799 357 q 710 81 799 176 q 453 -14 621 -14 m 781 690 l 781 750 q 877 790 847 750 q 907 906 907 829 l 907 968 l 969 968 l 969 900 q 949 790 969 836 q 888 717 929 743 q 781 690 847 690 m 549 1033 q 492 1047 514 1033 q 454 1079 469 1060 q 426 1118 439 1099 q 397 1151 413 1138 q 357 1164 381 1164 q 306 1133 325 1164 q 286 1047 286 1103 l 233 1047 q 267 1171 233 1126 q 360 1215 301 1215 q 413 1202 392 1215 q 449 1169 433 1189 q 478 1129 464 1149 q 508 1097 492 1110 q 550 1083 525 1083 q 597 1118 578 1083 q 615 1210 615 1153 l 671 1210 q 638 1081 671 1128 q 549 1033 604 1033 z "},"Ű":{"ha":908,"x_min":108,"x_max":799,"o":"m 453 -14 q 197 79 286 -14 q 108 350 108 172 l 108 968 l 199 968 l 199 360 q 225 201 199 265 q 308 103 251 136 q 453 71 364 71 q 597 105 540 71 q 682 203 654 139 q 710 363 710 268 l 710 968 l 799 968 l 799 357 q 710 81 799 176 q 453 -14 621 -14 m 536 1043 l 686 1251 l 779 1251 l 604 1043 l 536 1043 m 304 1043 l 453 1251 l 533 1251 l 371 1043 l 304 1043 z "},"Ū":{"ha":908,"x_min":108,"x_max":799,"o":"m 453 -14 q 197 79 286 -14 q 108 350 108 172 l 108 968 l 199 968 l 199 360 q 225 201 199 265 q 308 103 251 136 q 453 71 364 71 q 597 105 540 71 q 682 203 654 139 q 710 363 710 268 l 710 968 l 799 968 l 799 357 q 710 81 799 176 q 453 -14 621 -14 m 267 1121 l 267 1175 l 640 1175 l 640 1121 l 267 1121 z "},"Ų":{"ha":908,"x_min":108,"x_max":799,"o":"m 453 -14 q 197 79 286 -14 q 108 350 108 172 l 108 968 l 199 968 l 199 360 q 225 201 199 265 q 308 103 251 136 q 453 71 364 71 q 597 105 540 71 q 682 203 654 139 q 710 363 710 268 l 710 968 l 799 968 l 799 357 q 710 81 799 176 q 453 -14 621 -14 m 471 -283 q 389 -256 424 -283 q 354 -175 354 -228 q 373 -102 354 -136 q 420 -41 392 -68 q 479 4 449 -14 l 550 0 q 500 -32 525 -14 q 454 -72 475 -50 q 421 -117 433 -93 q 408 -168 408 -142 q 426 -214 408 -199 q 471 -229 444 -229 q 519 -218 493 -229 q 569 -186 546 -207 l 599 -229 q 536 -270 569 -257 q 471 -283 503 -283 z "},"Ů":{"ha":908,"x_min":108,"x_max":799,"o":"m 453 -14 q 197 79 286 -14 q 108 350 108 172 l 108 968 l 199 968 l 199 360 q 225 201 199 265 q 308 103 251 136 q 453 71 364 71 q 597 105 540 71 q 682 203 654 139 q 710 363 710 268 l 710 968 l 799 968 l 799 357 q 710 81 799 176 q 453 -14 621 -14 m 454 947 q 387 965 417 947 q 340 1013 357 983 q 322 1079 322 1043 q 340 1145 322 1115 q 388 1193 357 1175 q 454 1211 418 1211 q 520 1193 490 1211 q 568 1145 550 1175 q 586 1079 586 1115 q 568 1013 586 1043 q 520 965 550 982 q 454 947 490 947 m 454 997 q 511 1021 488 997 q 535 1079 535 1044 q 512 1137 535 1114 q 454 1160 489 1160 q 395 1136 418 1160 q 372 1079 372 1113 q 396 1021 372 1044 q 454 997 419 997 z "},"Ũ":{"ha":908,"x_min":108,"x_max":799,"o":"m 453 -14 q 197 79 286 -14 q 108 350 108 172 l 108 968 l 199 968 l 199 360 q 225 201 199 265 q 308 103 251 136 q 453 71 364 71 q 597 105 540 71 q 682 203 654 139 q 710 363 710 268 l 710 968 l 799 968 l 799 357 q 710 81 799 176 q 453 -14 621 -14 m 549 1033 q 492 1047 514 1033 q 454 1079 469 1060 q 426 1118 439 1099 q 397 1151 413 1138 q 357 1164 381 1164 q 306 1133 325 1164 q 286 1047 286 1103 l 233 1047 q 267 1171 233 1126 q 360 1215 301 1215 q 413 1202 392 1215 q 449 1169 433 1189 q 478 1129 464 1149 q 508 1097 492 1110 q 550 1083 525 1083 q 597 1118 578 1083 q 615 1210 615 1153 l 671 1210 q 638 1081 671 1128 q 549 1033 604 1033 z "},"V":{"ha":903,"x_min":32,"x_max":871,"o":"m 415 0 l 32 968 l 132 968 l 464 110 l 442 110 l 771 968 l 871 968 l 489 0 l 415 0 z "},"W":{"ha":1314,"x_min":40,"x_max":1274,"o":"m 319 0 l 40 968 l 136 968 l 371 135 l 611 917 l 704 917 l 944 135 l 1179 968 l 1274 968 l 996 0 l 903 0 l 650 808 l 665 808 l 413 0 l 319 0 z "},"Ẃ":{"ha":1314,"x_min":40,"x_max":1274,"o":"m 319 0 l 40 968 l 136 968 l 371 135 l 611 917 l 704 917 l 944 135 l 1179 968 l 1274 968 l 996 0 l 903 0 l 650 808 l 665 808 l 413 0 l 319 0 m 625 1057 l 774 1251 l 868 1251 l 692 1057 l 625 1057 z "},"Ŵ":{"ha":1314,"x_min":40,"x_max":1274,"o":"m 319 0 l 40 968 l 136 968 l 371 135 l 611 917 l 704 917 l 944 135 l 1179 968 l 1274 968 l 996 0 l 903 0 l 650 808 l 665 808 l 413 0 l 319 0 m 453 1047 l 658 1264 l 864 1047 l 789 1047 l 658 1186 l 529 1047 l 453 1047 z "},"Ẅ":{"ha":1314,"x_min":40,"x_max":1274,"o":"m 319 0 l 40 968 l 136 968 l 371 135 l 611 917 l 704 917 l 944 135 l 1179 968 l 1274 968 l 996 0 l 903 0 l 650 808 l 665 808 l 413 0 l 319 0 m 731 1101 l 731 1251 l 835 1251 l 835 1101 l 731 1101 m 482 1101 l 482 1251 l 586 1251 l 586 1101 l 482 1101 z "},"Ẁ":{"ha":1314,"x_min":40,"x_max":1274,"o":"m 319 0 l 40 968 l 136 968 l 371 135 l 611 917 l 704 917 l 944 135 l 1179 968 l 1274 968 l 996 0 l 903 0 l 650 808 l 665 808 l 413 0 l 319 0 m 624 1057 l 454 1251 l 547 1251 l 692 1057 l 624 1057 z "},"X":{"ha":872,"x_min":36,"x_max":838,"o":"m 36 0 l 374 488 l 43 968 l 151 968 l 436 553 l 722 968 l 831 968 l 499 488 l 838 0 l 729 0 l 436 421 l 144 0 l 36 0 z "},"Y":{"ha":824,"x_min":25,"x_max":799,"o":"m 367 0 l 367 371 l 25 968 l 128 968 l 410 463 l 694 968 l 799 968 l 458 371 l 458 0 l 367 0 z "},"Ý":{"ha":824,"x_min":25,"x_max":799,"o":"m 367 0 l 367 371 l 25 968 l 128 968 l 410 463 l 694 968 l 799 968 l 458 371 l 458 0 l 367 0 m 379 1057 l 528 1251 l 622 1251 l 446 1057 l 379 1057 z "},"Ŷ":{"ha":824,"x_min":25,"x_max":799,"o":"m 367 0 l 367 371 l 25 968 l 128 968 l 410 463 l 694 968 l 799 968 l 458 371 l 458 0 l 367 0 m 207 1047 l 413 1264 l 618 1047 l 543 1047 l 413 1186 l 283 1047 l 207 1047 z "},"Ÿ":{"ha":824,"x_min":25,"x_max":799,"o":"m 367 0 l 367 371 l 25 968 l 128 968 l 410 463 l 694 968 l 799 968 l 458 371 l 458 0 l 367 0 m 485 1101 l 485 1251 l 589 1251 l 589 1101 l 485 1101 m 236 1101 l 236 1251 l 340 1251 l 340 1101 l 236 1101 z "},"Ỵ":{"ha":824,"x_min":25,"x_max":799,"o":"m 367 0 l 367 371 l 25 968 l 128 968 l 410 463 l 694 968 l 799 968 l 458 371 l 458 0 l 367 0 m 360 -242 l 360 -101 l 464 -101 l 464 -242 l 360 -242 z "},"Ỳ":{"ha":824,"x_min":25,"x_max":799,"o":"m 367 0 l 367 371 l 25 968 l 128 968 l 410 463 l 694 968 l 799 968 l 458 371 l 458 0 l 367 0 m 378 1057 l 208 1251 l 301 1251 l 446 1057 l 378 1057 z "},"Ỷ":{"ha":824,"x_min":25,"x_max":799,"o":"m 367 0 l 367 371 l 25 968 l 128 968 l 410 463 l 694 968 l 799 968 l 458 371 l 458 0 l 367 0 m 392 1014 l 385 1050 q 460 1072 425 1058 q 496 1122 496 1085 q 454 1183 496 1165 q 361 1200 413 1200 l 340 1200 l 340 1253 l 361 1253 q 504 1220 447 1253 q 561 1129 561 1188 q 535 1065 561 1088 q 469 1031 508 1042 q 392 1014 431 1021 z "},"Ȳ":{"ha":824,"x_min":25,"x_max":799,"o":"m 367 0 l 367 371 l 25 968 l 128 968 l 410 463 l 694 968 l 799 968 l 458 371 l 458 0 l 367 0 m 225 1121 l 225 1175 l 599 1175 l 599 1121 l 225 1121 z "},"Ỹ":{"ha":824,"x_min":25,"x_max":799,"o":"m 367 0 l 367 371 l 25 968 l 128 968 l 410 463 l 694 968 l 799 968 l 458 371 l 458 0 l 367 0 m 508 1033 q 451 1047 474 1033 q 414 1079 429 1060 q 385 1118 399 1099 q 356 1151 372 1138 q 317 1164 340 1164 q 265 1133 285 1164 q 246 1047 246 1103 l 193 1047 q 227 1171 193 1126 q 319 1215 261 1215 q 372 1202 351 1215 q 408 1169 393 1189 q 438 1129 424 1149 q 468 1097 451 1110 q 510 1083 485 1083 q 556 1118 538 1083 q 575 1210 575 1153 l 631 1210 q 597 1081 631 1128 q 508 1033 564 1033 z "},"Z":{"ha":790,"x_min":47,"x_max":742,"o":"m 47 0 l 47 81 l 636 913 l 649 886 l 81 886 l 81 968 l 726 968 l 726 889 l 144 67 l 135 82 l 742 82 l 742 0 l 47 0 z "},"Ź":{"ha":790,"x_min":47,"x_max":742,"o":"m 47 0 l 47 81 l 636 913 l 649 886 l 81 886 l 81 968 l 726 968 l 726 889 l 144 67 l 135 82 l 742 82 l 742 0 l 47 0 m 364 1057 l 513 1251 l 607 1251 l 431 1057 l 364 1057 z "},"Ž":{"ha":790,"x_min":47,"x_max":742,"o":"m 47 0 l 47 81 l 636 913 l 649 886 l 81 886 l 81 968 l 726 968 l 726 889 l 144 67 l 135 82 l 742 82 l 742 0 l 47 0 m 399 1042 l 193 1251 l 264 1251 l 399 1115 l 532 1251 l 604 1251 l 399 1042 z "},"Ż":{"ha":790,"x_min":47,"x_max":742,"o":"m 47 0 l 47 81 l 636 913 l 649 886 l 81 886 l 81 968 l 726 968 l 726 889 l 144 67 l 135 82 l 742 82 l 742 0 l 47 0 m 346 1101 l 346 1251 l 450 1251 l 450 1101 l 346 1101 z "},"a":{"ha":746,"x_min":75,"x_max":646,"o":"m 565 0 l 560 156 l 560 426 q 511 569 560 521 q 368 618 463 618 q 256 594 307 618 q 158 511 204 569 l 94 565 q 219 663 150 632 q 374 694 288 694 q 575 626 504 694 q 646 426 646 557 l 646 0 l 565 0 m 324 -10 q 191 17 247 -10 q 105 90 135 43 q 75 199 75 136 q 97 292 75 254 q 153 353 118 331 q 238 388 190 378 q 342 397 286 397 l 568 397 l 568 331 l 353 331 q 274 324 313 331 q 210 296 236 317 q 176 256 188 281 q 164 199 164 232 q 209 99 164 136 q 332 63 254 63 q 446 92 394 63 q 528 175 497 122 q 560 293 560 228 l 597 251 q 553 114 590 174 q 456 22 515 54 q 324 -10 396 -10 z "},"á":{"ha":746,"x_min":75,"x_max":646,"o":"m 565 0 l 560 156 l 560 426 q 511 569 560 521 q 368 618 463 618 q 256 594 307 618 q 158 511 204 569 l 94 565 q 219 663 150 632 q 374 694 288 694 q 575 626 504 694 q 646 426 646 557 l 646 0 l 565 0 m 324 -10 q 191 17 247 -10 q 105 90 135 43 q 75 199 75 136 q 97 292 75 254 q 153 353 118 331 q 238 388 190 378 q 342 397 286 397 l 568 397 l 568 331 l 353 331 q 274 324 313 331 q 210 296 236 317 q 176 256 188 281 q 164 199 164 232 q 209 99 164 136 q 332 63 254 63 q 446 92 394 63 q 528 175 497 122 q 560 293 560 228 l 597 251 q 553 114 590 174 q 456 22 515 54 q 324 -10 396 -10 m 347 774 l 496 968 l 590 968 l 414 774 l 347 774 z "},"ă":{"ha":746,"x_min":75,"x_max":646,"o":"m 565 0 l 560 156 l 560 426 q 511 569 560 521 q 368 618 463 618 q 256 594 307 618 q 158 511 204 569 l 94 565 q 219 663 150 632 q 374 694 288 694 q 575 626 504 694 q 646 426 646 557 l 646 0 l 565 0 m 324 -10 q 191 17 247 -10 q 105 90 135 43 q 75 199 75 136 q 97 292 75 254 q 153 353 118 331 q 238 388 190 378 q 342 397 286 397 l 568 397 l 568 331 l 353 331 q 274 324 313 331 q 210 296 236 317 q 176 256 188 281 q 164 199 164 232 q 209 99 164 136 q 332 63 254 63 q 446 92 394 63 q 528 175 497 122 q 560 293 560 228 l 597 251 q 553 114 590 174 q 456 22 515 54 q 324 -10 396 -10 m 381 778 q 224 825 276 778 q 172 968 172 872 l 231 968 q 270 864 231 897 q 381 831 310 831 q 492 865 453 831 q 531 968 531 899 l 589 968 q 535 824 589 871 q 381 778 482 778 z "},"ắ":{"ha":746,"x_min":75,"x_max":646,"o":"m 565 0 l 560 156 l 560 426 q 511 569 560 521 q 368 618 463 618 q 256 594 307 618 q 158 511 204 569 l 94 565 q 219 663 150 632 q 374 694 288 694 q 575 626 504 694 q 646 426 646 557 l 646 0 l 565 0 m 324 -10 q 191 17 247 -10 q 105 90 135 43 q 75 199 75 136 q 97 292 75 254 q 153 353 118 331 q 238 388 190 378 q 342 397 286 397 l 568 397 l 568 331 l 353 331 q 274 324 313 331 q 210 296 236 317 q 176 256 188 281 q 164 199 164 232 q 209 99 164 136 q 332 63 254 63 q 446 92 394 63 q 528 175 497 122 q 560 293 560 228 l 597 251 q 553 114 590 174 q 456 22 515 54 q 324 -10 396 -10 m 381 778 q 224 825 276 778 q 172 968 172 872 l 231 968 q 270 864 231 897 q 381 831 310 831 q 492 865 453 831 q 531 968 531 899 l 589 968 q 535 824 589 871 q 381 778 482 778 m 335 953 l 438 1136 l 508 1136 l 392 953 l 335 953 z "},"ặ":{"ha":746,"x_min":75,"x_max":646,"o":"m 565 0 l 560 156 l 560 426 q 511 569 560 521 q 368 618 463 618 q 256 594 307 618 q 158 511 204 569 l 94 565 q 219 663 150 632 q 374 694 288 694 q 575 626 504 694 q 646 426 646 557 l 646 0 l 565 0 m 324 -10 q 191 17 247 -10 q 105 90 135 43 q 75 199 75 136 q 97 292 75 254 q 153 353 118 331 q 238 388 190 378 q 342 397 286 397 l 568 397 l 568 331 l 353 331 q 274 324 313 331 q 210 296 236 317 q 176 256 188 281 q 164 199 164 232 q 209 99 164 136 q 332 63 254 63 q 446 92 394 63 q 528 175 497 122 q 560 293 560 228 l 597 251 q 553 114 590 174 q 456 22 515 54 q 324 -10 396 -10 m 328 -242 l 328 -101 l 432 -101 l 432 -242 l 328 -242 m 381 778 q 224 825 276 778 q 172 968 172 872 l 231 968 q 270 864 231 897 q 381 831 310 831 q 492 865 453 831 q 531 968 531 899 l 589 968 q 535 824 589 871 q 381 778 482 778 z "},"ằ":{"ha":746,"x_min":75,"x_max":646,"o":"m 565 0 l 560 156 l 560 426 q 511 569 560 521 q 368 618 463 618 q 256 594 307 618 q 158 511 204 569 l 94 565 q 219 663 150 632 q 374 694 288 694 q 575 626 504 694 q 646 426 646 557 l 646 0 l 565 0 m 324 -10 q 191 17 247 -10 q 105 90 135 43 q 75 199 75 136 q 97 292 75 254 q 153 353 118 331 q 238 388 190 378 q 342 397 286 397 l 568 397 l 568 331 l 353 331 q 274 324 313 331 q 210 296 236 317 q 176 256 188 281 q 164 199 164 232 q 209 99 164 136 q 332 63 254 63 q 446 92 394 63 q 528 175 497 122 q 560 293 560 228 l 597 251 q 553 114 590 174 q 456 22 515 54 q 324 -10 396 -10 m 381 778 q 224 825 276 778 q 172 968 172 872 l 231 968 q 270 864 231 897 q 381 831 310 831 q 492 865 453 831 q 531 968 531 899 l 589 968 q 535 824 589 871 q 381 778 482 778 m 369 953 l 251 1136 l 325 1136 l 426 953 l 369 953 z "},"ẳ":{"ha":746,"x_min":75,"x_max":646,"o":"m 565 0 l 560 156 l 560 426 q 511 569 560 521 q 368 618 463 618 q 256 594 307 618 q 158 511 204 569 l 94 565 q 219 663 150 632 q 374 694 288 694 q 575 626 504 694 q 646 426 646 557 l 646 0 l 565 0 m 324 -10 q 191 17 247 -10 q 105 90 135 43 q 75 199 75 136 q 97 292 75 254 q 153 353 118 331 q 238 388 190 378 q 342 397 286 397 l 568 397 l 568 331 l 353 331 q 274 324 313 331 q 210 296 236 317 q 176 256 188 281 q 164 199 164 232 q 209 99 164 136 q 332 63 254 63 q 446 92 394 63 q 528 175 497 122 q 560 293 560 228 l 597 251 q 553 114 590 174 q 456 22 515 54 q 324 -10 396 -10 m 381 778 q 224 825 276 778 q 172 968 172 872 l 231 968 q 270 864 231 897 q 381 831 310 831 q 492 865 453 831 q 531 968 531 899 l 589 968 q 535 824 589 871 q 381 778 482 778 m 349 935 l 338 971 q 414 994 386 976 q 442 1043 442 1011 q 423 1088 442 1071 q 375 1112 404 1104 q 314 1119 346 1119 l 293 1119 l 293 1169 l 314 1169 q 446 1138 396 1169 q 496 1050 496 1106 q 475 986 496 1010 q 420 951 454 963 q 349 935 386 940 z "},"ẵ":{"ha":746,"x_min":75,"x_max":646,"o":"m 565 0 l 560 156 l 560 426 q 511 569 560 521 q 368 618 463 618 q 256 594 307 618 q 158 511 204 569 l 94 565 q 219 663 150 632 q 374 694 288 694 q 575 626 504 694 q 646 426 646 557 l 646 0 l 565 0 m 324 -10 q 191 17 247 -10 q 105 90 135 43 q 75 199 75 136 q 97 292 75 254 q 153 353 118 331 q 238 388 190 378 q 342 397 286 397 l 568 397 l 568 331 l 353 331 q 274 324 313 331 q 210 296 236 317 q 176 256 188 281 q 164 199 164 232 q 209 99 164 136 q 332 63 254 63 q 446 92 394 63 q 528 175 497 122 q 560 293 560 228 l 597 251 q 553 114 590 174 q 456 22 515 54 q 324 -10 396 -10 m 381 778 q 224 825 276 778 q 172 968 172 872 l 231 968 q 270 864 231 897 q 381 831 310 831 q 492 865 453 831 q 531 968 531 899 l 589 968 q 535 824 589 871 q 381 778 482 778 m 472 1013 q 416 1022 438 1013 q 378 1044 394 1032 q 344 1066 363 1057 q 299 1075 326 1075 q 252 1061 268 1075 q 228 1021 236 1047 l 178 1025 q 216 1099 186 1072 q 293 1126 246 1126 q 349 1117 326 1126 q 390 1096 372 1108 q 425 1075 407 1083 q 467 1067 443 1067 q 509 1078 493 1067 q 532 1117 525 1090 l 585 1114 q 551 1043 578 1074 q 472 1013 525 1013 z "},"ǎ":{"ha":746,"x_min":75,"x_max":646,"o":"m 565 0 l 560 156 l 560 426 q 511 569 560 521 q 368 618 463 618 q 256 594 307 618 q 158 511 204 569 l 94 565 q 219 663 150 632 q 374 694 288 694 q 575 626 504 694 q 646 426 646 557 l 646 0 l 565 0 m 324 -10 q 191 17 247 -10 q 105 90 135 43 q 75 199 75 136 q 97 292 75 254 q 153 353 118 331 q 238 388 190 378 q 342 397 286 397 l 568 397 l 568 331 l 353 331 q 274 324 313 331 q 210 296 236 317 q 176 256 188 281 q 164 199 164 232 q 209 99 164 136 q 332 63 254 63 q 446 92 394 63 q 528 175 497 122 q 560 293 560 228 l 597 251 q 553 114 590 174 q 456 22 515 54 q 324 -10 396 -10 m 381 758 l 175 968 l 246 968 l 381 832 l 514 968 l 586 968 l 381 758 z "},"â":{"ha":746,"x_min":75,"x_max":646,"o":"m 565 0 l 560 156 l 560 426 q 511 569 560 521 q 368 618 463 618 q 256 594 307 618 q 158 511 204 569 l 94 565 q 219 663 150 632 q 374 694 288 694 q 575 626 504 694 q 646 426 646 557 l 646 0 l 565 0 m 324 -10 q 191 17 247 -10 q 105 90 135 43 q 75 199 75 136 q 97 292 75 254 q 153 353 118 331 q 238 388 190 378 q 342 397 286 397 l 568 397 l 568 331 l 353 331 q 274 324 313 331 q 210 296 236 317 q 176 256 188 281 q 164 199 164 232 q 209 99 164 136 q 332 63 254 63 q 446 92 394 63 q 528 175 497 122 q 560 293 560 228 l 597 251 q 553 114 590 174 q 456 22 515 54 q 324 -10 396 -10 m 175 764 l 381 981 l 586 764 l 513 764 l 381 903 l 249 764 l 175 764 z "},"ấ":{"ha":746,"x_min":75,"x_max":669,"o":"m 565 0 l 560 156 l 560 426 q 511 569 560 521 q 368 618 463 618 q 256 594 307 618 q 158 511 204 569 l 94 565 q 219 663 150 632 q 374 694 288 694 q 575 626 504 694 q 646 426 646 557 l 646 0 l 565 0 m 324 -10 q 191 17 247 -10 q 105 90 135 43 q 75 199 75 136 q 97 292 75 254 q 153 353 118 331 q 238 388 190 378 q 342 397 286 397 l 568 397 l 568 331 l 353 331 q 274 324 313 331 q 210 296 236 317 q 176 256 188 281 q 164 199 164 232 q 209 99 164 136 q 332 63 254 63 q 446 92 394 63 q 528 175 497 122 q 560 293 560 228 l 597 251 q 553 114 590 174 q 456 22 515 54 q 324 -10 396 -10 m 175 764 l 381 969 l 586 764 l 511 764 l 381 892 l 250 764 l 175 764 m 492 901 l 596 1089 l 669 1089 l 549 901 l 492 901 z "},"ậ":{"ha":746,"x_min":75,"x_max":646,"o":"m 565 0 l 560 156 l 560 426 q 511 569 560 521 q 368 618 463 618 q 256 594 307 618 q 158 511 204 569 l 94 565 q 219 663 150 632 q 374 694 288 694 q 575 626 504 694 q 646 426 646 557 l 646 0 l 565 0 m 324 -10 q 191 17 247 -10 q 105 90 135 43 q 75 199 75 136 q 97 292 75 254 q 153 353 118 331 q 238 388 190 378 q 342 397 286 397 l 568 397 l 568 331 l 353 331 q 274 324 313 331 q 210 296 236 317 q 176 256 188 281 q 164 199 164 232 q 209 99 164 136 q 332 63 254 63 q 446 92 394 63 q 528 175 497 122 q 560 293 560 228 l 597 251 q 553 114 590 174 q 456 22 515 54 q 324 -10 396 -10 m 328 -242 l 328 -101 l 432 -101 l 432 -242 l 328 -242 m 175 764 l 381 981 l 586 764 l 513 764 l 381 903 l 249 764 l 175 764 z "},"ầ":{"ha":746,"x_min":75,"x_max":646,"o":"m 565 0 l 560 156 l 560 426 q 511 569 560 521 q 368 618 463 618 q 256 594 307 618 q 158 511 204 569 l 94 565 q 219 663 150 632 q 374 694 288 694 q 575 626 504 694 q 646 426 646 557 l 646 0 l 565 0 m 324 -10 q 191 17 247 -10 q 105 90 135 43 q 75 199 75 136 q 97 292 75 254 q 153 353 118 331 q 238 388 190 378 q 342 397 286 397 l 568 397 l 568 331 l 353 331 q 274 324 313 331 q 210 296 236 317 q 176 256 188 281 q 164 199 164 232 q 209 99 164 136 q 332 63 254 63 q 446 92 394 63 q 528 175 497 122 q 560 293 560 228 l 597 251 q 553 114 590 174 q 456 22 515 54 q 324 -10 396 -10 m 175 764 l 381 969 l 586 764 l 511 764 l 381 892 l 251 764 l 175 764 m 564 901 l 443 1089 l 517 1089 l 621 901 l 564 901 z "},"ẩ":{"ha":746,"x_min":75,"x_max":656,"o":"m 565 0 l 560 156 l 560 426 q 511 569 560 521 q 368 618 463 618 q 256 594 307 618 q 158 511 204 569 l 94 565 q 219 663 150 632 q 374 694 288 694 q 575 626 504 694 q 646 426 646 557 l 646 0 l 565 0 m 324 -10 q 191 17 247 -10 q 105 90 135 43 q 75 199 75 136 q 97 292 75 254 q 153 353 118 331 q 238 388 190 378 q 342 397 286 397 l 568 397 l 568 331 l 353 331 q 274 324 313 331 q 210 296 236 317 q 176 256 188 281 q 164 199 164 232 q 209 99 164 136 q 332 63 254 63 q 446 92 394 63 q 528 175 497 122 q 560 293 560 228 l 597 251 q 553 114 590 174 q 456 22 515 54 q 324 -10 396 -10 m 175 764 l 381 969 l 586 764 l 511 764 l 381 892 l 251 764 l 175 764 m 508 882 l 497 917 q 572 940 542 925 q 603 990 603 956 q 563 1049 603 1031 q 474 1067 522 1067 l 453 1067 l 453 1115 l 474 1115 q 606 1083 556 1115 q 656 994 656 1051 q 635 933 656 956 q 581 900 615 911 q 508 882 547 889 z "},"ẫ":{"ha":746,"x_min":75,"x_max":646,"o":"m 565 0 l 560 156 l 560 426 q 511 569 560 521 q 368 618 463 618 q 256 594 307 618 q 158 511 204 569 l 94 565 q 219 663 150 632 q 374 694 288 694 q 575 626 504 694 q 646 426 646 557 l 646 0 l 565 0 m 324 -10 q 191 17 247 -10 q 105 90 135 43 q 75 199 75 136 q 97 292 75 254 q 153 353 118 331 q 238 388 190 378 q 342 397 286 397 l 568 397 l 568 331 l 353 331 q 274 324 313 331 q 210 296 236 317 q 176 256 188 281 q 164 199 164 232 q 209 99 164 136 q 332 63 254 63 q 446 92 394 63 q 528 175 497 122 q 560 293 560 228 l 597 251 q 553 114 590 174 q 456 22 515 54 q 324 -10 396 -10 m 175 764 l 381 969 l 586 764 l 513 764 l 381 892 l 250 764 l 175 764 m 471 992 q 416 1001 438 992 q 378 1024 394 1011 q 343 1046 361 1036 q 297 1056 325 1056 q 251 1040 267 1056 q 228 1000 235 1025 l 176 1004 q 213 1077 183 1049 q 293 1106 242 1106 q 349 1097 326 1106 q 389 1075 371 1088 q 424 1054 407 1063 q 465 1046 442 1046 q 508 1058 493 1046 q 531 1096 524 1069 l 585 1092 q 550 1021 578 1050 q 471 992 522 992 z "},"ä":{"ha":746,"x_min":75,"x_max":646,"o":"m 565 0 l 560 156 l 560 426 q 511 569 560 521 q 368 618 463 618 q 256 594 307 618 q 158 511 204 569 l 94 565 q 219 663 150 632 q 374 694 288 694 q 575 626 504 694 q 646 426 646 557 l 646 0 l 565 0 m 324 -10 q 191 17 247 -10 q 105 90 135 43 q 75 199 75 136 q 97 292 75 254 q 153 353 118 331 q 238 388 190 378 q 342 397 286 397 l 568 397 l 568 331 l 353 331 q 274 324 313 331 q 210 296 236 317 q 176 256 188 281 q 164 199 164 232 q 209 99 164 136 q 332 63 254 63 q 446 92 394 63 q 528 175 497 122 q 560 293 560 228 l 597 251 q 553 114 590 174 q 456 22 515 54 q 324 -10 396 -10 m 453 818 l 453 968 l 557 968 l 557 818 l 453 818 m 204 818 l 204 968 l 308 968 l 308 818 l 204 818 z "},"ạ":{"ha":746,"x_min":75,"x_max":646,"o":"m 565 0 l 560 156 l 560 426 q 511 569 560 521 q 368 618 463 618 q 256 594 307 618 q 158 511 204 569 l 94 565 q 219 663 150 632 q 374 694 288 694 q 575 626 504 694 q 646 426 646 557 l 646 0 l 565 0 m 324 -10 q 191 17 247 -10 q 105 90 135 43 q 75 199 75 136 q 97 292 75 254 q 153 353 118 331 q 238 388 190 378 q 342 397 286 397 l 568 397 l 568 331 l 353 331 q 274 324 313 331 q 210 296 236 317 q 176 256 188 281 q 164 199 164 232 q 209 99 164 136 q 332 63 254 63 q 446 92 394 63 q 528 175 497 122 q 560 293 560 228 l 597 251 q 553 114 590 174 q 456 22 515 54 q 324 -10 396 -10 m 328 -242 l 328 -101 l 432 -101 l 432 -242 l 328 -242 z "},"à":{"ha":746,"x_min":75,"x_max":646,"o":"m 565 0 l 560 156 l 560 426 q 511 569 560 521 q 368 618 463 618 q 256 594 307 618 q 158 511 204 569 l 94 565 q 219 663 150 632 q 374 694 288 694 q 575 626 504 694 q 646 426 646 557 l 646 0 l 565 0 m 324 -10 q 191 17 247 -10 q 105 90 135 43 q 75 199 75 136 q 97 292 75 254 q 153 353 118 331 q 238 388 190 378 q 342 397 286 397 l 568 397 l 568 331 l 353 331 q 274 324 313 331 q 210 296 236 317 q 176 256 188 281 q 164 199 164 232 q 209 99 164 136 q 332 63 254 63 q 446 92 394 63 q 528 175 497 122 q 560 293 560 228 l 597 251 q 553 114 590 174 q 456 22 515 54 q 324 -10 396 -10 m 346 774 l 176 968 l 269 968 l 414 774 l 346 774 z "},"ả":{"ha":746,"x_min":75,"x_max":646,"o":"m 565 0 l 560 156 l 560 426 q 511 569 560 521 q 368 618 463 618 q 256 594 307 618 q 158 511 204 569 l 94 565 q 219 663 150 632 q 374 694 288 694 q 575 626 504 694 q 646 426 646 557 l 646 0 l 565 0 m 324 -10 q 191 17 247 -10 q 105 90 135 43 q 75 199 75 136 q 97 292 75 254 q 153 353 118 331 q 238 388 190 378 q 342 397 286 397 l 568 397 l 568 331 l 353 331 q 274 324 313 331 q 210 296 236 317 q 176 256 188 281 q 164 199 164 232 q 209 99 164 136 q 332 63 254 63 q 446 92 394 63 q 528 175 497 122 q 560 293 560 228 l 597 251 q 553 114 590 174 q 456 22 515 54 q 324 -10 396 -10 m 360 731 l 353 767 q 428 788 393 775 q 464 839 464 801 q 422 899 464 882 q 329 917 381 917 l 308 917 l 308 969 l 329 969 q 472 937 415 969 q 529 846 529 904 q 503 781 529 804 q 438 748 476 758 q 360 731 399 738 z "},"ā":{"ha":746,"x_min":75,"x_max":646,"o":"m 565 0 l 560 156 l 560 426 q 511 569 560 521 q 368 618 463 618 q 256 594 307 618 q 158 511 204 569 l 94 565 q 219 663 150 632 q 374 694 288 694 q 575 626 504 694 q 646 426 646 557 l 646 0 l 565 0 m 324 -10 q 191 17 247 -10 q 105 90 135 43 q 75 199 75 136 q 97 292 75 254 q 153 353 118 331 q 238 388 190 378 q 342 397 286 397 l 568 397 l 568 331 l 353 331 q 274 324 313 331 q 210 296 236 317 q 176 256 188 281 q 164 199 164 232 q 209 99 164 136 q 332 63 254 63 q 446 92 394 63 q 528 175 497 122 q 560 293 560 228 l 597 251 q 553 114 590 174 q 456 22 515 54 q 324 -10 396 -10 m 193 838 l 193 892 l 567 892 l 567 838 l 193 838 z "},"ą":{"ha":746,"x_min":75,"x_max":694,"o":"m 565 0 l 560 156 l 560 426 q 511 569 560 521 q 368 618 463 618 q 256 594 307 618 q 158 511 204 569 l 94 565 q 219 663 150 632 q 374 694 288 694 q 575 626 504 694 q 646 426 646 557 l 646 0 l 565 0 m 324 -10 q 191 17 247 -10 q 105 90 135 43 q 75 199 75 136 q 97 292 75 254 q 153 353 118 331 q 238 388 190 378 q 342 397 286 397 l 568 397 l 568 331 l 353 331 q 274 324 313 331 q 210 296 236 317 q 176 256 188 281 q 164 199 164 232 q 209 99 164 136 q 332 63 254 63 q 446 92 394 63 q 528 175 497 122 q 560 293 560 228 l 597 251 q 553 114 590 174 q 456 22 515 54 q 324 -10 396 -10 m 568 -283 q 486 -256 521 -283 q 451 -175 451 -228 q 470 -102 451 -136 q 517 -41 489 -68 q 576 4 546 -14 l 647 0 q 597 -32 622 -14 q 551 -72 572 -50 q 518 -117 531 -93 q 506 -168 506 -142 q 524 -214 506 -199 q 568 -229 542 -229 q 617 -218 590 -229 q 667 -186 643 -207 l 696 -229 q 633 -270 667 -257 q 568 -283 600 -283 z "},"å":{"ha":746,"x_min":75,"x_max":646,"o":"m 565 0 l 560 156 l 560 426 q 511 569 560 521 q 368 618 463 618 q 256 594 307 618 q 158 511 204 569 l 94 565 q 219 663 150 632 q 374 694 288 694 q 575 626 504 694 q 646 426 646 557 l 646 0 l 565 0 m 324 -10 q 191 17 247 -10 q 105 90 135 43 q 75 199 75 136 q 97 292 75 254 q 153 353 118 331 q 238 388 190 378 q 342 397 286 397 l 568 397 l 568 331 l 353 331 q 274 324 313 331 q 210 296 236 317 q 176 256 188 281 q 164 199 164 232 q 209 99 164 136 q 332 63 254 63 q 446 92 394 63 q 528 175 497 122 q 560 293 560 228 l 597 251 q 553 114 590 174 q 456 22 515 54 q 324 -10 396 -10 m 381 751 q 313 769 343 751 q 266 817 283 788 q 249 883 249 847 q 266 949 249 919 q 314 997 283 979 q 381 1015 344 1015 q 447 997 417 1015 q 494 949 476 979 q 513 883 513 919 q 494 817 513 847 q 447 769 476 786 q 381 751 417 751 m 381 801 q 438 825 414 801 q 461 883 461 849 q 438 941 461 918 q 381 964 415 964 q 322 940 344 964 q 299 883 299 917 q 322 825 299 849 q 381 801 346 801 z "},"ǻ":{"ha":746,"x_min":75,"x_max":658,"o":"m 565 0 l 560 156 l 560 426 q 511 569 560 521 q 368 618 463 618 q 256 594 307 618 q 158 511 204 569 l 94 565 q 219 663 150 632 q 374 694 288 694 q 575 626 504 694 q 646 426 646 557 l 646 0 l 565 0 m 324 -10 q 191 17 247 -10 q 105 90 135 43 q 75 199 75 136 q 97 292 75 254 q 153 353 118 331 q 238 388 190 378 q 342 397 286 397 l 568 397 l 568 331 l 353 331 q 274 324 313 331 q 210 296 236 317 q 176 256 188 281 q 164 199 164 232 q 209 99 164 136 q 332 63 254 63 q 446 92 394 63 q 528 175 497 122 q 560 293 560 228 l 597 251 q 553 114 590 174 q 456 22 515 54 q 324 -10 396 -10 m 381 751 q 313 769 343 751 q 266 817 283 788 q 249 883 249 847 q 266 949 249 919 q 314 997 283 979 q 381 1015 344 1015 q 447 997 417 1015 q 494 949 476 979 q 513 883 513 919 q 494 817 513 847 q 447 769 476 786 q 381 751 417 751 m 381 801 q 438 825 414 801 q 461 883 461 849 q 438 941 461 918 q 381 964 415 964 q 322 940 344 964 q 299 883 299 917 q 322 825 299 849 q 381 801 346 801 m 415 958 l 564 1153 l 658 1153 l 482 958 l 415 958 z "},"ã":{"ha":746,"x_min":75,"x_max":646,"o":"m 565 0 l 560 156 l 560 426 q 511 569 560 521 q 368 618 463 618 q 256 594 307 618 q 158 511 204 569 l 94 565 q 219 663 150 632 q 374 694 288 694 q 575 626 504 694 q 646 426 646 557 l 646 0 l 565 0 m 324 -10 q 191 17 247 -10 q 105 90 135 43 q 75 199 75 136 q 97 292 75 254 q 153 353 118 331 q 238 388 190 378 q 342 397 286 397 l 568 397 l 568 331 l 353 331 q 274 324 313 331 q 210 296 236 317 q 176 256 188 281 q 164 199 164 232 q 209 99 164 136 q 332 63 254 63 q 446 92 394 63 q 528 175 497 122 q 560 293 560 228 l 597 251 q 553 114 590 174 q 456 22 515 54 q 324 -10 396 -10 m 475 796 q 407 814 432 796 q 365 856 382 832 q 329 899 347 881 q 283 917 311 917 q 232 888 251 917 q 213 807 213 858 l 160 807 q 194 930 160 886 q 286 974 228 974 q 349 955 325 974 q 391 913 374 936 q 427 870 408 889 q 476 851 446 851 q 523 883 504 851 q 542 968 542 915 l 597 968 q 564 842 597 889 q 475 796 531 796 z "},"æ":{"ha":1218,"x_min":75,"x_max":1143,"o":"m 315 -10 q 138 48 201 -10 q 75 197 75 106 q 96 285 75 250 q 151 340 117 319 q 227 372 186 361 q 309 385 268 382 q 383 388 350 388 l 560 388 l 560 426 q 511 569 560 519 q 371 618 463 618 q 257 594 308 618 q 163 511 206 569 l 97 565 q 226 665 158 636 q 379 694 294 694 q 538 652 478 694 q 617 528 599 610 q 710 647 650 603 q 854 692 771 692 q 990 665 935 692 q 1078 594 1044 639 q 1127 496 1111 550 q 1143 385 1143 442 q 1142 349 1143 367 q 1139 319 1142 332 l 642 319 q 702 136 646 201 q 858 71 758 71 q 970 90 924 71 q 1061 158 1017 110 l 1124 103 q 1043 35 1083 60 q 958 0 1003 10 q 857 -10 913 -10 q 685 46 754 -10 q 590 197 617 101 l 581 197 q 477 40 543 90 q 315 -10 411 -10 m 325 67 q 435 92 385 67 q 519 171 485 117 q 560 313 553 225 l 560 324 l 389 324 q 217 291 271 324 q 164 194 164 258 q 206 101 164 136 q 325 67 249 67 m 642 385 l 1061 385 q 1053 456 1063 417 q 1019 533 1043 496 q 955 594 996 569 q 854 618 914 618 q 741 587 788 618 q 669 502 694 556 q 642 385 643 449 z "},"ǽ":{"ha":1218,"x_min":75,"x_max":1143,"o":"m 315 -10 q 138 48 201 -10 q 75 197 75 106 q 96 285 75 250 q 151 340 117 319 q 227 372 186 361 q 309 385 268 382 q 383 388 350 388 l 560 388 l 560 426 q 511 569 560 519 q 371 618 463 618 q 257 594 308 618 q 163 511 206 569 l 97 565 q 226 665 158 636 q 379 694 294 694 q 538 652 478 694 q 617 528 599 610 q 710 647 650 603 q 854 692 771 692 q 990 665 935 692 q 1078 594 1044 639 q 1127 496 1111 550 q 1143 385 1143 442 q 1142 349 1143 367 q 1139 319 1142 332 l 642 319 q 702 136 646 201 q 858 71 758 71 q 970 90 924 71 q 1061 158 1017 110 l 1124 103 q 1043 35 1083 60 q 958 0 1003 10 q 857 -10 913 -10 q 685 46 754 -10 q 590 197 617 101 l 581 197 q 477 40 543 90 q 315 -10 411 -10 m 325 67 q 435 92 385 67 q 519 171 485 117 q 560 313 553 225 l 560 324 l 389 324 q 217 291 271 324 q 164 194 164 258 q 206 101 164 136 q 325 67 249 67 m 642 385 l 1061 385 q 1053 456 1063 417 q 1019 533 1043 496 q 955 594 996 569 q 854 618 914 618 q 741 587 788 618 q 669 502 694 556 q 642 385 643 449 m 579 774 l 728 968 l 822 968 l 646 774 l 579 774 z "},"b":{"ha":824,"x_min":107,"x_max":747,"o":"m 436 -10 q 315 17 369 -10 q 222 93 260 44 q 167 206 185 142 l 194 215 l 194 0 l 107 0 l 107 968 l 194 968 l 194 471 l 171 485 q 224 592 186 544 q 315 667 261 639 q 436 694 369 694 q 594 651 524 694 q 706 528 664 607 q 747 343 747 449 q 708 163 747 243 q 598 37 668 83 q 436 -10 528 -10 m 422 71 q 545 106 492 71 q 629 203 599 142 q 660 343 660 264 q 629 483 660 422 q 545 579 599 544 q 422 614 492 614 q 300 579 353 614 q 217 483 247 544 q 188 343 188 422 q 217 203 188 264 q 300 106 247 142 q 422 71 353 71 z "},"c":{"ha":717,"x_min":76,"x_max":653,"o":"m 383 -10 q 254 17 311 -10 q 158 93 197 44 q 97 206 118 142 q 76 343 76 269 q 97 479 76 415 q 158 592 118 543 q 254 667 197 640 q 383 694 311 694 q 547 649 476 694 q 653 508 618 603 l 574 478 q 503 581 551 543 q 383 618 454 618 q 260 579 308 618 q 187 478 211 540 q 163 343 163 415 q 187 208 163 271 q 260 106 211 144 q 383 67 308 67 q 503 104 454 67 q 574 208 551 142 l 653 178 q 549 38 619 85 q 383 -10 478 -10 z "},"ć":{"ha":717,"x_min":76,"x_max":653,"o":"m 383 -10 q 254 17 311 -10 q 158 93 197 44 q 97 206 118 142 q 76 343 76 269 q 97 479 76 415 q 158 592 118 543 q 254 667 197 640 q 383 694 311 694 q 547 649 476 694 q 653 508 618 603 l 574 478 q 503 581 551 543 q 383 618 454 618 q 260 579 308 618 q 187 478 211 540 q 163 343 163 415 q 187 208 163 271 q 260 106 211 144 q 383 67 308 67 q 503 104 454 67 q 574 208 551 142 l 653 178 q 549 38 619 85 q 383 -10 478 -10 m 342 774 l 490 968 l 585 968 l 408 774 l 342 774 z "},"č":{"ha":717,"x_min":76,"x_max":653,"o":"m 383 -10 q 254 17 311 -10 q 158 93 197 44 q 97 206 118 142 q 76 343 76 269 q 97 479 76 415 q 158 592 118 543 q 254 667 197 640 q 383 694 311 694 q 547 649 476 694 q 653 508 618 603 l 574 478 q 503 581 551 543 q 383 618 454 618 q 260 579 308 618 q 187 478 211 540 q 163 343 163 415 q 187 208 163 271 q 260 106 211 144 q 383 67 308 67 q 503 104 454 67 q 574 208 551 142 l 653 178 q 549 38 619 85 q 383 -10 478 -10 m 375 758 l 169 968 l 240 968 l 375 832 l 508 968 l 581 968 l 375 758 z "},"ç":{"ha":717,"x_min":76,"x_max":653,"o":"m 383 -10 q 254 17 311 -10 q 158 93 197 44 q 97 206 118 142 q 76 343 76 269 q 97 479 76 415 q 158 592 118 543 q 254 667 197 640 q 383 694 311 694 q 547 649 476 694 q 653 508 618 603 l 574 478 q 503 581 551 543 q 383 618 454 618 q 260 579 308 618 q 187 478 211 540 q 163 343 163 415 q 187 208 163 271 q 260 106 211 144 q 383 67 308 67 q 503 104 454 67 q 574 208 551 142 l 653 178 q 549 38 619 85 q 383 -10 478 -10 m 371 -283 q 322 -277 347 -283 q 276 -258 297 -271 q 242 -229 256 -246 l 274 -194 q 317 -225 290 -214 q 369 -236 343 -236 q 429 -222 406 -236 q 453 -176 453 -207 q 437 -140 453 -153 q 396 -120 421 -126 q 343 -111 371 -114 q 292 -107 315 -108 l 375 8 l 432 8 l 368 -72 q 467 -103 426 -81 q 507 -174 507 -125 q 468 -255 507 -226 q 371 -283 429 -283 z "},"ĉ":{"ha":717,"x_min":76,"x_max":653,"o":"m 383 -10 q 254 17 311 -10 q 158 93 197 44 q 97 206 118 142 q 76 343 76 269 q 97 479 76 415 q 158 592 118 543 q 254 667 197 640 q 383 694 311 694 q 547 649 476 694 q 653 508 618 603 l 574 478 q 503 581 551 543 q 383 618 454 618 q 260 579 308 618 q 187 478 211 540 q 163 343 163 415 q 187 208 163 271 q 260 106 211 144 q 383 67 308 67 q 503 104 454 67 q 574 208 551 142 l 653 178 q 549 38 619 85 q 383 -10 478 -10 m 169 764 l 375 981 l 581 764 l 507 764 l 375 903 l 243 764 l 169 764 z "},"ċ":{"ha":717,"x_min":76,"x_max":653,"o":"m 383 -10 q 254 17 311 -10 q 158 93 197 44 q 97 206 118 142 q 76 343 76 269 q 97 479 76 415 q 158 592 118 543 q 254 667 197 640 q 383 694 311 694 q 547 649 476 694 q 653 508 618 603 l 574 478 q 503 581 551 543 q 383 618 454 618 q 260 579 308 618 q 187 478 211 540 q 163 343 163 415 q 187 208 163 271 q 260 106 211 144 q 383 67 308 67 q 503 104 454 67 q 574 208 551 142 l 653 178 q 549 38 619 85 q 383 -10 478 -10 m 322 818 l 322 968 l 426 968 l 426 818 l 322 818 z "},"d":{"ha":825,"x_min":76,"x_max":717,"o":"m 388 -10 q 226 37 296 -10 q 116 163 156 83 q 76 343 76 243 q 118 528 76 449 q 231 651 160 607 q 388 694 301 694 q 510 667 456 694 q 601 593 564 640 q 653 486 639 546 l 629 471 l 629 968 l 717 968 l 717 0 l 629 0 l 629 215 l 657 206 q 601 93 639 142 q 510 17 564 44 q 388 -10 456 -10 m 401 71 q 524 106 471 71 q 606 203 576 142 q 636 343 636 264 q 606 483 636 422 q 524 579 576 544 q 401 614 471 614 q 279 579 333 614 q 194 483 225 544 q 164 343 164 422 q 194 203 164 264 q 279 106 225 142 q 401 71 333 71 z "},"ð":{"ha":875,"x_min":97,"x_max":840,"o":"m 396 -10 q 237 29 304 -10 q 133 138 169 68 q 97 297 97 207 q 126 459 97 386 q 206 585 154 532 q 327 667 258 639 q 476 696 396 696 q 571 677 529 696 q 642 627 613 658 q 688 556 671 596 q 714 474 706 515 q 685 734 726 633 q 544 885 644 835 q 276 938 444 935 l 283 999 q 532 958 433 993 q 688 861 631 924 q 768 710 744 799 q 792 508 792 622 q 767 308 792 401 q 694 142 743 214 q 570 31 644 71 q 396 -10 496 -10 m 400 67 q 544 103 482 67 q 645 203 606 139 q 694 350 685 268 q 692 438 700 390 q 658 527 683 485 q 591 597 633 569 q 485 624 549 624 q 320 579 389 624 q 215 461 251 535 q 179 297 179 388 q 208 174 179 226 q 286 94 236 122 q 400 67 336 67 m 392 760 l 382 799 l 831 939 l 840 900 l 392 760 z "},"ď":{"ha":1018,"x_min":76,"x_max":968,"o":"m 388 -10 q 226 37 296 -10 q 116 163 156 83 q 76 343 76 243 q 118 528 76 449 q 231 651 160 607 q 388 694 301 694 q 510 667 456 694 q 601 593 564 640 q 653 486 639 546 l 629 471 l 629 968 l 717 968 l 717 0 l 629 0 l 629 215 l 657 206 q 601 93 639 142 q 510 17 564 44 q 388 -10 456 -10 m 401 71 q 524 106 471 71 q 606 203 576 142 q 636 343 636 264 q 606 483 636 422 q 524 579 576 544 q 401 614 471 614 q 279 579 333 614 q 194 483 225 544 q 164 343 164 422 q 194 203 164 264 q 279 106 225 142 q 401 71 333 71 m 796 682 l 876 968 l 968 968 l 850 682 l 796 682 z "},"đ":{"ha":825,"x_min":76,"x_max":807,"o":"m 388 -10 q 226 37 296 -10 q 116 163 156 83 q 76 343 76 243 q 118 528 76 449 q 231 651 160 607 q 388 694 301 694 q 510 667 456 694 q 601 593 564 640 q 653 486 639 546 l 629 471 l 629 968 l 717 968 l 717 0 l 629 0 l 629 215 l 657 206 q 601 93 639 142 q 510 17 564 44 q 388 -10 456 -10 m 401 71 q 524 106 471 71 q 606 203 576 142 q 636 343 636 264 q 606 483 636 422 q 524 579 576 544 q 401 614 471 614 q 279 579 333 614 q 194 483 225 544 q 164 343 164 422 q 194 203 164 264 q 279 106 225 142 q 401 71 333 71 m 440 815 l 440 875 l 806 875 l 806 815 l 440 815 z "},"e":{"ha":749,"x_min":76,"x_max":674,"o":"m 389 -10 q 253 17 313 -10 q 156 90 194 43 q 97 201 117 138 q 76 338 76 265 q 96 476 76 411 q 153 590 115 540 q 248 667 192 639 q 378 694 304 694 q 512 667 456 694 q 603 594 568 640 q 656 492 639 547 q 674 379 674 436 q 673 350 674 368 q 669 319 672 332 l 163 319 q 226 136 165 201 q 389 71 286 71 q 501 91 454 71 q 590 158 547 111 l 653 103 q 574 38 614 63 q 488 2 533 14 q 389 -10 443 -10 m 586 364 q 589 387 589 375 q 589 410 589 399 q 577 483 589 446 q 540 551 565 521 q 475 601 515 582 q 379 621 435 621 q 267 589 315 621 q 193 504 219 557 q 163 385 167 451 l 615 385 l 586 364 z "},"é":{"ha":749,"x_min":76,"x_max":674,"o":"m 389 -10 q 253 17 313 -10 q 156 90 194 43 q 97 201 117 138 q 76 338 76 265 q 96 476 76 411 q 153 590 115 540 q 248 667 192 639 q 378 694 304 694 q 512 667 456 694 q 603 594 568 640 q 656 492 639 547 q 674 379 674 436 q 673 350 674 368 q 669 319 672 332 l 163 319 q 226 136 165 201 q 389 71 286 71 q 501 91 454 71 q 590 158 547 111 l 653 103 q 574 38 614 63 q 488 2 533 14 q 389 -10 443 -10 m 586 364 q 589 387 589 375 q 589 410 589 399 q 577 483 589 446 q 540 551 565 521 q 475 601 515 582 q 379 621 435 621 q 267 589 315 621 q 193 504 219 557 q 163 385 167 451 l 615 385 l 586 364 m 344 774 l 493 968 l 588 968 l 411 774 l 344 774 z "},"ĕ":{"ha":749,"x_min":76,"x_max":674,"o":"m 389 -10 q 253 17 313 -10 q 156 90 194 43 q 97 201 117 138 q 76 338 76 265 q 96 476 76 411 q 153 590 115 540 q 248 667 192 639 q 378 694 304 694 q 512 667 456 694 q 603 594 568 640 q 656 492 639 547 q 674 379 674 436 q 673 350 674 368 q 669 319 672 332 l 163 319 q 226 136 165 201 q 389 71 286 71 q 501 91 454 71 q 590 158 547 111 l 653 103 q 574 38 614 63 q 488 2 533 14 q 389 -10 443 -10 m 586 364 q 589 387 589 375 q 589 410 589 399 q 577 483 589 446 q 540 551 565 521 q 475 601 515 582 q 379 621 435 621 q 267 589 315 621 q 193 504 219 557 q 163 385 167 451 l 615 385 l 586 364 m 379 778 q 223 825 275 778 q 171 968 171 872 l 229 968 q 269 864 229 897 q 379 831 308 831 q 490 865 451 831 q 529 968 529 899 l 588 968 q 534 824 588 871 q 379 778 481 778 z "},"ě":{"ha":749,"x_min":76,"x_max":674,"o":"m 389 -10 q 253 17 313 -10 q 156 90 194 43 q 97 201 117 138 q 76 338 76 265 q 96 476 76 411 q 153 590 115 540 q 248 667 192 639 q 378 694 304 694 q 512 667 456 694 q 603 594 568 640 q 656 492 639 547 q 674 379 674 436 q 673 350 674 368 q 669 319 672 332 l 163 319 q 226 136 165 201 q 389 71 286 71 q 501 91 454 71 q 590 158 547 111 l 653 103 q 574 38 614 63 q 488 2 533 14 q 389 -10 443 -10 m 586 364 q 589 387 589 375 q 589 410 589 399 q 577 483 589 446 q 540 551 565 521 q 475 601 515 582 q 379 621 435 621 q 267 589 315 621 q 193 504 219 557 q 163 385 167 451 l 615 385 l 586 364 m 379 758 l 174 968 l 244 968 l 379 832 l 513 968 l 585 968 l 379 758 z "},"ê":{"ha":749,"x_min":76,"x_max":674,"o":"m 389 -10 q 253 17 313 -10 q 156 90 194 43 q 97 201 117 138 q 76 338 76 265 q 96 476 76 411 q 153 590 115 540 q 248 667 192 639 q 378 694 304 694 q 512 667 456 694 q 603 594 568 640 q 656 492 639 547 q 674 379 674 436 q 673 350 674 368 q 669 319 672 332 l 163 319 q 226 136 165 201 q 389 71 286 71 q 501 91 454 71 q 590 158 547 111 l 653 103 q 574 38 614 63 q 488 2 533 14 q 389 -10 443 -10 m 586 364 q 589 387 589 375 q 589 410 589 399 q 577 483 589 446 q 540 551 565 521 q 475 601 515 582 q 379 621 435 621 q 267 589 315 621 q 193 504 219 557 q 163 385 167 451 l 615 385 l 586 364 m 172 764 l 378 981 l 583 764 l 510 764 l 378 903 l 246 764 l 172 764 z "},"ế":{"ha":749,"x_min":76,"x_max":674,"o":"m 389 -10 q 253 17 313 -10 q 156 90 194 43 q 97 201 117 138 q 76 338 76 265 q 96 476 76 411 q 153 590 115 540 q 248 667 192 639 q 378 694 304 694 q 512 667 456 694 q 603 594 568 640 q 656 492 639 547 q 674 379 674 436 q 673 350 674 368 q 669 319 672 332 l 163 319 q 226 136 165 201 q 389 71 286 71 q 501 91 454 71 q 590 158 547 111 l 653 103 q 574 38 614 63 q 488 2 533 14 q 389 -10 443 -10 m 586 364 q 589 387 589 375 q 589 410 589 399 q 577 483 589 446 q 540 551 565 521 q 475 601 515 582 q 379 621 435 621 q 267 589 315 621 q 193 504 219 557 q 163 385 167 451 l 615 385 l 586 364 m 172 764 l 378 969 l 583 764 l 508 764 l 378 892 l 247 764 l 172 764 m 489 901 l 593 1089 l 667 1089 l 546 901 l 489 901 z "},"ệ":{"ha":749,"x_min":76,"x_max":674,"o":"m 389 -10 q 253 17 313 -10 q 156 90 194 43 q 97 201 117 138 q 76 338 76 265 q 96 476 76 411 q 153 590 115 540 q 248 667 192 639 q 378 694 304 694 q 512 667 456 694 q 603 594 568 640 q 656 492 639 547 q 674 379 674 436 q 673 350 674 368 q 669 319 672 332 l 163 319 q 226 136 165 201 q 389 71 286 71 q 501 91 454 71 q 590 158 547 111 l 653 103 q 574 38 614 63 q 488 2 533 14 q 389 -10 443 -10 m 586 364 q 589 387 589 375 q 589 410 589 399 q 577 483 589 446 q 540 551 565 521 q 475 601 515 582 q 379 621 435 621 q 267 589 315 621 q 193 504 219 557 q 163 385 167 451 l 615 385 l 586 364 m 336 -242 l 336 -101 l 440 -101 l 440 -242 l 336 -242 m 172 764 l 378 981 l 583 764 l 510 764 l 378 903 l 246 764 l 172 764 z "},"ề":{"ha":749,"x_min":76,"x_max":674,"o":"m 389 -10 q 253 17 313 -10 q 156 90 194 43 q 97 201 117 138 q 76 338 76 265 q 96 476 76 411 q 153 590 115 540 q 248 667 192 639 q 378 694 304 694 q 512 667 456 694 q 603 594 568 640 q 656 492 639 547 q 674 379 674 436 q 673 350 674 368 q 669 319 672 332 l 163 319 q 226 136 165 201 q 389 71 286 71 q 501 91 454 71 q 590 158 547 111 l 653 103 q 574 38 614 63 q 488 2 533 14 q 389 -10 443 -10 m 586 364 q 589 387 589 375 q 589 410 589 399 q 577 483 589 446 q 540 551 565 521 q 475 601 515 582 q 379 621 435 621 q 267 589 315 621 q 193 504 219 557 q 163 385 167 451 l 615 385 l 586 364 m 172 764 l 378 969 l 583 764 l 508 764 l 378 892 l 249 764 l 172 764 m 561 901 l 440 1089 l 514 1089 l 618 901 l 561 901 z "},"ể":{"ha":749,"x_min":76,"x_max":674,"o":"m 389 -10 q 253 17 313 -10 q 156 90 194 43 q 97 201 117 138 q 76 338 76 265 q 96 476 76 411 q 153 590 115 540 q 248 667 192 639 q 378 694 304 694 q 512 667 456 694 q 603 594 568 640 q 656 492 639 547 q 674 379 674 436 q 673 350 674 368 q 669 319 672 332 l 163 319 q 226 136 165 201 q 389 71 286 71 q 501 91 454 71 q 590 158 547 111 l 653 103 q 574 38 614 63 q 488 2 533 14 q 389 -10 443 -10 m 586 364 q 589 387 589 375 q 589 410 589 399 q 577 483 589 446 q 540 551 565 521 q 475 601 515 582 q 379 621 435 621 q 267 589 315 621 q 193 504 219 557 q 163 385 167 451 l 615 385 l 586 364 m 172 764 l 378 969 l 583 764 l 508 764 l 378 892 l 249 764 l 172 764 m 506 882 l 494 917 q 569 940 539 925 q 600 990 600 956 q 560 1049 600 1031 q 471 1067 519 1067 l 450 1067 l 450 1115 l 471 1115 q 603 1083 553 1115 q 653 994 653 1051 q 633 933 653 956 q 578 900 613 911 q 506 882 544 889 z "},"ễ":{"ha":749,"x_min":76,"x_max":674,"o":"m 389 -10 q 253 17 313 -10 q 156 90 194 43 q 97 201 117 138 q 76 338 76 265 q 96 476 76 411 q 153 590 115 540 q 248 667 192 639 q 378 694 304 694 q 512 667 456 694 q 603 594 568 640 q 656 492 639 547 q 674 379 674 436 q 673 350 674 368 q 669 319 672 332 l 163 319 q 226 136 165 201 q 389 71 286 71 q 501 91 454 71 q 590 158 547 111 l 653 103 q 574 38 614 63 q 488 2 533 14 q 389 -10 443 -10 m 586 364 q 589 387 589 375 q 589 410 589 399 q 577 483 589 446 q 540 551 565 521 q 475 601 515 582 q 379 621 435 621 q 267 589 315 621 q 193 504 219 557 q 163 385 167 451 l 615 385 l 586 364 m 174 764 l 379 969 l 585 764 l 511 764 l 379 892 l 249 764 l 174 764 m 469 992 q 415 1001 436 992 q 376 1024 393 1011 q 342 1046 360 1036 q 296 1056 324 1056 q 249 1040 265 1056 q 226 1000 233 1025 l 175 1004 q 211 1077 182 1049 q 292 1106 240 1106 q 347 1097 325 1106 q 388 1075 369 1088 q 423 1054 406 1063 q 464 1046 440 1046 q 507 1058 492 1046 q 529 1096 522 1069 l 583 1092 q 549 1021 576 1050 q 469 992 521 992 z "},"ë":{"ha":749,"x_min":76,"x_max":674,"o":"m 389 -10 q 253 17 313 -10 q 156 90 194 43 q 97 201 117 138 q 76 338 76 265 q 96 476 76 411 q 153 590 115 540 q 248 667 192 639 q 378 694 304 694 q 512 667 456 694 q 603 594 568 640 q 656 492 639 547 q 674 379 674 436 q 673 350 674 368 q 669 319 672 332 l 163 319 q 226 136 165 201 q 389 71 286 71 q 501 91 454 71 q 590 158 547 111 l 653 103 q 574 38 614 63 q 488 2 533 14 q 389 -10 443 -10 m 586 364 q 589 387 589 375 q 589 410 589 399 q 577 483 589 446 q 540 551 565 521 q 475 601 515 582 q 379 621 435 621 q 267 589 315 621 q 193 504 219 557 q 163 385 167 451 l 615 385 l 586 364 m 451 818 l 451 968 l 556 968 l 556 818 l 451 818 m 203 818 l 203 968 l 307 968 l 307 818 l 203 818 z "},"ė":{"ha":749,"x_min":76,"x_max":674,"o":"m 389 -10 q 253 17 313 -10 q 156 90 194 43 q 97 201 117 138 q 76 338 76 265 q 96 476 76 411 q 153 590 115 540 q 248 667 192 639 q 378 694 304 694 q 512 667 456 694 q 603 594 568 640 q 656 492 639 547 q 674 379 674 436 q 673 350 674 368 q 669 319 672 332 l 163 319 q 226 136 165 201 q 389 71 286 71 q 501 91 454 71 q 590 158 547 111 l 653 103 q 574 38 614 63 q 488 2 533 14 q 389 -10 443 -10 m 586 364 q 589 387 589 375 q 589 410 589 399 q 577 483 589 446 q 540 551 565 521 q 475 601 515 582 q 379 621 435 621 q 267 589 315 621 q 193 504 219 557 q 163 385 167 451 l 615 385 l 586 364 m 326 818 l 326 968 l 431 968 l 431 818 l 326 818 z "},"ẹ":{"ha":749,"x_min":76,"x_max":674,"o":"m 389 -10 q 253 17 313 -10 q 156 90 194 43 q 97 201 117 138 q 76 338 76 265 q 96 476 76 411 q 153 590 115 540 q 248 667 192 639 q 378 694 304 694 q 512 667 456 694 q 603 594 568 640 q 656 492 639 547 q 674 379 674 436 q 673 350 674 368 q 669 319 672 332 l 163 319 q 226 136 165 201 q 389 71 286 71 q 501 91 454 71 q 590 158 547 111 l 653 103 q 574 38 614 63 q 488 2 533 14 q 389 -10 443 -10 m 586 364 q 589 387 589 375 q 589 410 589 399 q 577 483 589 446 q 540 551 565 521 q 475 601 515 582 q 379 621 435 621 q 267 589 315 621 q 193 504 219 557 q 163 385 167 451 l 615 385 l 586 364 m 336 -242 l 336 -101 l 440 -101 l 440 -242 l 336 -242 z "},"è":{"ha":749,"x_min":76,"x_max":674,"o":"m 389 -10 q 253 17 313 -10 q 156 90 194 43 q 97 201 117 138 q 76 338 76 265 q 96 476 76 411 q 153 590 115 540 q 248 667 192 639 q 378 694 304 694 q 512 667 456 694 q 603 594 568 640 q 656 492 639 547 q 674 379 674 436 q 673 350 674 368 q 669 319 672 332 l 163 319 q 226 136 165 201 q 389 71 286 71 q 501 91 454 71 q 590 158 547 111 l 653 103 q 574 38 614 63 q 488 2 533 14 q 389 -10 443 -10 m 586 364 q 589 387 589 375 q 589 410 589 399 q 577 483 589 446 q 540 551 565 521 q 475 601 515 582 q 379 621 435 621 q 267 589 315 621 q 193 504 219 557 q 163 385 167 451 l 615 385 l 586 364 m 344 774 l 175 968 l 268 968 l 413 774 l 344 774 z "},"ẻ":{"ha":749,"x_min":76,"x_max":674,"o":"m 389 -10 q 253 17 313 -10 q 156 90 194 43 q 97 201 117 138 q 76 338 76 265 q 96 476 76 411 q 153 590 115 540 q 248 667 192 639 q 378 694 304 694 q 512 667 456 694 q 603 594 568 640 q 656 492 639 547 q 674 379 674 436 q 673 350 674 368 q 669 319 672 332 l 163 319 q 226 136 165 201 q 389 71 286 71 q 501 91 454 71 q 590 158 547 111 l 653 103 q 574 38 614 63 q 488 2 533 14 q 389 -10 443 -10 m 586 364 q 589 387 589 375 q 589 410 589 399 q 577 483 589 446 q 540 551 565 521 q 475 601 515 582 q 379 621 435 621 q 267 589 315 621 q 193 504 219 557 q 163 385 167 451 l 615 385 l 586 364 m 357 731 l 350 767 q 426 788 390 775 q 461 839 461 801 q 419 899 461 882 q 326 917 378 917 l 306 917 l 306 969 l 326 969 q 469 937 413 969 q 526 846 526 904 q 500 781 526 804 q 435 748 474 758 q 357 731 396 738 z "},"ē":{"ha":749,"x_min":76,"x_max":674,"o":"m 389 -10 q 253 17 313 -10 q 156 90 194 43 q 97 201 117 138 q 76 338 76 265 q 96 476 76 411 q 153 590 115 540 q 248 667 192 639 q 378 694 304 694 q 512 667 456 694 q 603 594 568 640 q 656 492 639 547 q 674 379 674 436 q 673 350 674 368 q 669 319 672 332 l 163 319 q 226 136 165 201 q 389 71 286 71 q 501 91 454 71 q 590 158 547 111 l 653 103 q 574 38 614 63 q 488 2 533 14 q 389 -10 443 -10 m 586 364 q 589 387 589 375 q 589 410 589 399 q 577 483 589 446 q 540 551 565 521 q 475 601 515 582 q 379 621 435 621 q 267 589 315 621 q 193 504 219 557 q 163 385 167 451 l 615 385 l 586 364 m 192 838 l 192 892 l 565 892 l 565 838 l 192 838 z "},"ę":{"ha":749,"x_min":76,"x_max":674,"o":"m 389 -10 q 253 17 313 -10 q 156 90 194 43 q 97 201 117 138 q 76 338 76 265 q 96 476 76 411 q 153 590 115 540 q 248 667 192 639 q 378 694 304 694 q 512 667 456 694 q 603 594 568 640 q 656 492 639 547 q 674 379 674 436 q 673 350 674 368 q 669 319 672 332 l 163 319 q 226 136 165 201 q 389 71 286 71 q 501 91 454 71 q 590 158 547 111 l 653 103 q 574 38 614 63 q 488 2 533 14 q 389 -10 443 -10 m 586 364 q 589 387 589 375 q 589 410 589 399 q 577 483 589 446 q 540 551 565 521 q 475 601 515 582 q 379 621 435 621 q 267 589 315 621 q 193 504 219 557 q 163 385 167 451 l 615 385 l 586 364 m 397 -283 q 315 -256 350 -283 q 281 -175 281 -228 q 299 -102 281 -136 q 347 -41 318 -68 q 406 4 375 -14 l 476 0 q 426 -32 451 -14 q 381 -72 401 -50 q 347 -117 360 -93 q 335 -168 335 -142 q 353 -214 335 -199 q 397 -229 371 -229 q 446 -218 419 -229 q 496 -186 472 -207 l 525 -229 q 463 -270 496 -257 q 397 -283 429 -283 z "},"ẽ":{"ha":749,"x_min":76,"x_max":674,"o":"m 389 -10 q 253 17 313 -10 q 156 90 194 43 q 97 201 117 138 q 76 338 76 265 q 96 476 76 411 q 153 590 115 540 q 248 667 192 639 q 378 694 304 694 q 512 667 456 694 q 603 594 568 640 q 656 492 639 547 q 674 379 674 436 q 673 350 674 368 q 669 319 672 332 l 163 319 q 226 136 165 201 q 389 71 286 71 q 501 91 454 71 q 590 158 547 111 l 653 103 q 574 38 614 63 q 488 2 533 14 q 389 -10 443 -10 m 586 364 q 589 387 589 375 q 589 410 589 399 q 577 483 589 446 q 540 551 565 521 q 475 601 515 582 q 379 621 435 621 q 267 589 315 621 q 193 504 219 557 q 163 385 167 451 l 615 385 l 586 364 m 474 796 q 406 814 431 796 q 363 856 381 832 q 328 899 346 881 q 282 917 310 917 q 231 888 250 917 q 211 807 211 858 l 158 807 q 192 930 158 886 q 285 974 226 974 q 348 955 324 974 q 390 913 372 936 q 426 870 407 889 q 475 851 444 851 q 522 883 503 851 q 540 968 540 915 l 596 968 q 563 842 596 889 q 474 796 529 796 z "},"ə":{"ha":749,"x_min":75,"x_max":672,"o":"m 360 694 q 495 668 436 694 q 593 594 554 642 q 652 484 632 547 q 672 347 672 421 q 653 209 672 274 q 595 95 633 144 q 501 18 557 46 q 371 -10 444 -10 q 237 17 293 -10 q 145 91 181 44 q 92 193 110 138 q 75 306 75 249 q 76 336 75 318 q 79 365 78 354 l 586 365 q 523 549 583 483 q 360 614 463 614 q 249 594 294 614 q 158 526 203 574 l 96 582 q 176 647 136 622 q 260 683 215 671 q 360 694 306 694 m 163 321 q 160 298 161 310 q 160 275 160 286 q 172 201 160 239 q 208 133 183 164 q 274 83 233 103 q 369 64 314 64 q 482 96 435 64 q 556 181 529 128 q 586 300 582 233 l 133 300 l 163 321 z "},"f":{"ha":457,"x_min":14,"x_max":461,"o":"m 165 0 l 165 615 l 14 615 l 14 685 l 167 685 l 167 783 q 190 897 167 854 q 253 959 213 940 q 346 978 294 978 q 408 972 381 978 q 461 951 436 965 l 432 885 q 397 899 415 894 q 356 904 378 904 q 278 873 304 904 q 253 783 253 842 l 253 685 l 419 685 l 419 615 l 253 615 l 253 0 l 165 0 z "},"g":{"ha":704,"x_min":63,"x_max":683,"o":"m 376 -294 q 147 -240 231 -294 q 63 -90 63 -186 q 63 -73 63 -83 q 65 -54 63 -62 l 224 72 l 257 50 l 150 -74 q 149 -84 149 -79 q 149 -93 149 -89 q 213 -193 149 -160 q 376 -226 276 -226 q 516 -199 461 -226 q 571 -115 571 -172 q 552 -62 571 -82 q 500 -30 533 -42 q 422 -10 467 -18 q 326 6 378 -3 q 209 33 265 15 q 117 83 153 50 q 82 171 82 115 q 113 255 82 218 q 197 318 143 292 l 253 279 q 185 241 206 265 q 165 183 165 217 q 187 132 165 151 q 247 102 208 113 q 336 85 285 92 q 458 64 400 75 q 560 33 515 53 q 631 -19 606 14 q 657 -106 657 -51 q 581 -246 657 -197 q 376 -294 506 -294 m 357 226 q 223 256 282 226 q 131 338 164 285 q 99 458 99 390 q 133 581 99 528 q 225 665 167 635 q 354 694 283 694 q 483 665 425 694 q 574 581 540 635 q 608 454 608 526 q 576 335 608 386 q 487 255 543 283 q 357 226 431 226 m 356 299 q 476 344 432 299 q 521 460 521 390 q 475 578 521 533 q 356 624 429 624 q 233 578 281 624 q 186 461 186 532 q 232 345 186 392 q 356 299 278 299 m 565 567 l 501 610 l 639 726 l 683 671 l 565 567 z "},"ğ":{"ha":704,"x_min":63,"x_max":683,"o":"m 376 -294 q 147 -240 231 -294 q 63 -90 63 -186 q 63 -73 63 -83 q 65 -54 63 -62 l 224 72 l 257 50 l 150 -74 q 149 -84 149 -79 q 149 -93 149 -89 q 213 -193 149 -160 q 376 -226 276 -226 q 516 -199 461 -226 q 571 -115 571 -172 q 552 -62 571 -82 q 500 -30 533 -42 q 422 -10 467 -18 q 326 6 378 -3 q 209 33 265 15 q 117 83 153 50 q 82 171 82 115 q 113 255 82 218 q 197 318 143 292 l 253 279 q 185 241 206 265 q 165 183 165 217 q 187 132 165 151 q 247 102 208 113 q 336 85 285 92 q 458 64 400 75 q 560 33 515 53 q 631 -19 606 14 q 657 -106 657 -51 q 581 -246 657 -197 q 376 -294 506 -294 m 357 226 q 223 256 282 226 q 131 338 164 285 q 99 458 99 390 q 133 581 99 528 q 225 665 167 635 q 354 694 283 694 q 483 665 425 694 q 574 581 540 635 q 608 454 608 526 q 576 335 608 386 q 487 255 543 283 q 357 226 431 226 m 356 299 q 476 344 432 299 q 521 460 521 390 q 475 578 521 533 q 356 624 429 624 q 233 578 281 624 q 186 461 186 532 q 232 345 186 392 q 356 299 278 299 m 565 567 l 501 610 l 639 726 l 683 671 l 565 567 m 360 778 q 203 825 256 778 q 151 968 151 872 l 210 968 q 249 864 210 897 q 360 831 289 831 q 471 865 432 831 q 510 968 510 899 l 568 968 q 515 824 568 871 q 360 778 461 778 z "},"ǧ":{"ha":704,"x_min":63,"x_max":683,"o":"m 376 -294 q 147 -240 231 -294 q 63 -90 63 -186 q 63 -73 63 -83 q 65 -54 63 -62 l 224 72 l 257 50 l 150 -74 q 149 -84 149 -79 q 149 -93 149 -89 q 213 -193 149 -160 q 376 -226 276 -226 q 516 -199 461 -226 q 571 -115 571 -172 q 552 -62 571 -82 q 500 -30 533 -42 q 422 -10 467 -18 q 326 6 378 -3 q 209 33 265 15 q 117 83 153 50 q 82 171 82 115 q 113 255 82 218 q 197 318 143 292 l 253 279 q 185 241 206 265 q 165 183 165 217 q 187 132 165 151 q 247 102 208 113 q 336 85 285 92 q 458 64 400 75 q 560 33 515 53 q 631 -19 606 14 q 657 -106 657 -51 q 581 -246 657 -197 q 376 -294 506 -294 m 357 226 q 223 256 282 226 q 131 338 164 285 q 99 458 99 390 q 133 581 99 528 q 225 665 167 635 q 354 694 283 694 q 483 665 425 694 q 574 581 540 635 q 608 454 608 526 q 576 335 608 386 q 487 255 543 283 q 357 226 431 226 m 356 299 q 476 344 432 299 q 521 460 521 390 q 475 578 521 533 q 356 624 429 624 q 233 578 281 624 q 186 461 186 532 q 232 345 186 392 q 356 299 278 299 m 565 567 l 501 610 l 639 726 l 683 671 l 565 567 m 360 758 l 154 968 l 225 968 l 360 832 l 493 968 l 565 968 l 360 758 z "},"ĝ":{"ha":704,"x_min":63,"x_max":683,"o":"m 376 -294 q 147 -240 231 -294 q 63 -90 63 -186 q 63 -73 63 -83 q 65 -54 63 -62 l 224 72 l 257 50 l 150 -74 q 149 -84 149 -79 q 149 -93 149 -89 q 213 -193 149 -160 q 376 -226 276 -226 q 516 -199 461 -226 q 571 -115 571 -172 q 552 -62 571 -82 q 500 -30 533 -42 q 422 -10 467 -18 q 326 6 378 -3 q 209 33 265 15 q 117 83 153 50 q 82 171 82 115 q 113 255 82 218 q 197 318 143 292 l 253 279 q 185 241 206 265 q 165 183 165 217 q 187 132 165 151 q 247 102 208 113 q 336 85 285 92 q 458 64 400 75 q 560 33 515 53 q 631 -19 606 14 q 657 -106 657 -51 q 581 -246 657 -197 q 376 -294 506 -294 m 357 226 q 223 256 282 226 q 131 338 164 285 q 99 458 99 390 q 133 581 99 528 q 225 665 167 635 q 354 694 283 694 q 483 665 425 694 q 574 581 540 635 q 608 454 608 526 q 576 335 608 386 q 487 255 543 283 q 357 226 431 226 m 356 299 q 476 344 432 299 q 521 460 521 390 q 475 578 521 533 q 356 624 429 624 q 233 578 281 624 q 186 461 186 532 q 232 345 186 392 q 356 299 278 299 m 565 567 l 501 610 l 639 726 l 683 671 l 565 567 m 153 764 l 358 981 l 564 764 l 490 764 l 358 903 l 226 764 l 153 764 z "},"ģ":{"ha":704,"x_min":63,"x_max":683,"o":"m 376 -294 q 147 -240 231 -294 q 63 -90 63 -186 q 63 -73 63 -83 q 65 -54 63 -62 l 224 72 l 257 50 l 150 -74 q 149 -84 149 -79 q 149 -93 149 -89 q 213 -193 149 -160 q 376 -226 276 -226 q 516 -199 461 -226 q 571 -115 571 -172 q 552 -62 571 -82 q 500 -30 533 -42 q 422 -10 467 -18 q 326 6 378 -3 q 209 33 265 15 q 117 83 153 50 q 82 171 82 115 q 113 255 82 218 q 197 318 143 292 l 253 279 q 185 241 206 265 q 165 183 165 217 q 187 132 165 151 q 247 102 208 113 q 336 85 285 92 q 458 64 400 75 q 560 33 515 53 q 631 -19 606 14 q 657 -106 657 -51 q 581 -246 657 -197 q 376 -294 506 -294 m 357 226 q 223 256 282 226 q 131 338 164 285 q 99 458 99 390 q 133 581 99 528 q 225 665 167 635 q 354 694 283 694 q 483 665 425 694 q 574 581 540 635 q 608 454 608 526 q 576 335 608 386 q 487 255 543 283 q 357 226 431 226 m 356 299 q 476 344 432 299 q 521 460 521 390 q 475 578 521 533 q 356 624 429 624 q 233 578 281 624 q 186 461 186 532 q 232 345 186 392 q 356 299 278 299 m 565 567 l 501 610 l 639 726 l 683 671 l 565 567 m 250 771 l 411 975 l 469 975 l 343 771 l 250 771 z "},"ġ":{"ha":704,"x_min":63,"x_max":683,"o":"m 376 -294 q 147 -240 231 -294 q 63 -90 63 -186 q 63 -73 63 -83 q 65 -54 63 -62 l 224 72 l 257 50 l 150 -74 q 149 -84 149 -79 q 149 -93 149 -89 q 213 -193 149 -160 q 376 -226 276 -226 q 516 -199 461 -226 q 571 -115 571 -172 q 552 -62 571 -82 q 500 -30 533 -42 q 422 -10 467 -18 q 326 6 378 -3 q 209 33 265 15 q 117 83 153 50 q 82 171 82 115 q 113 255 82 218 q 197 318 143 292 l 253 279 q 185 241 206 265 q 165 183 165 217 q 187 132 165 151 q 247 102 208 113 q 336 85 285 92 q 458 64 400 75 q 560 33 515 53 q 631 -19 606 14 q 657 -106 657 -51 q 581 -246 657 -197 q 376 -294 506 -294 m 357 226 q 223 256 282 226 q 131 338 164 285 q 99 458 99 390 q 133 581 99 528 q 225 665 167 635 q 354 694 283 694 q 483 665 425 694 q 574 581 540 635 q 608 454 608 526 q 576 335 608 386 q 487 255 543 283 q 357 226 431 226 m 356 299 q 476 344 432 299 q 521 460 521 390 q 475 578 521 533 q 356 624 429 624 q 233 578 281 624 q 186 461 186 532 q 232 345 186 392 q 356 299 278 299 m 565 567 l 501 610 l 639 726 l 683 671 l 565 567 m 307 818 l 307 968 l 411 968 l 411 818 l 307 818 z "},"ḡ":{"ha":704,"x_min":63,"x_max":683,"o":"m 376 -294 q 147 -240 231 -294 q 63 -90 63 -186 q 63 -73 63 -83 q 65 -54 63 -62 l 224 72 l 257 50 l 150 -74 q 149 -84 149 -79 q 149 -93 149 -89 q 213 -193 149 -160 q 376 -226 276 -226 q 516 -199 461 -226 q 571 -115 571 -172 q 552 -62 571 -82 q 500 -30 533 -42 q 422 -10 467 -18 q 326 6 378 -3 q 209 33 265 15 q 117 83 153 50 q 82 171 82 115 q 113 255 82 218 q 197 318 143 292 l 253 279 q 185 241 206 265 q 165 183 165 217 q 187 132 165 151 q 247 102 208 113 q 336 85 285 92 q 458 64 400 75 q 560 33 515 53 q 631 -19 606 14 q 657 -106 657 -51 q 581 -246 657 -197 q 376 -294 506 -294 m 357 226 q 223 256 282 226 q 131 338 164 285 q 99 458 99 390 q 133 581 99 528 q 225 665 167 635 q 354 694 283 694 q 483 665 425 694 q 574 581 540 635 q 608 454 608 526 q 576 335 608 386 q 487 255 543 283 q 357 226 431 226 m 356 299 q 476 344 432 299 q 521 460 521 390 q 475 578 521 533 q 356 624 429 624 q 233 578 281 624 q 186 461 186 532 q 232 345 186 392 q 356 299 278 299 m 565 567 l 501 610 l 639 726 l 683 671 l 565 567 m 172 838 l 172 892 l 546 892 l 546 838 l 172 838 z "},"h":{"ha":746,"x_min":107,"x_max":646,"o":"m 107 0 l 107 968 l 196 968 l 196 525 l 174 518 q 226 614 192 575 q 306 674 260 653 q 410 694 353 694 q 584 627 522 694 q 646 428 646 560 l 646 0 l 558 0 l 558 396 q 516 564 558 510 q 389 618 474 618 q 248 551 300 618 q 196 339 196 485 l 196 0 l 107 0 z "},"ħ":{"ha":746,"x_min":31,"x_max":646,"o":"m 107 0 l 107 968 l 196 968 l 196 525 l 174 518 q 226 614 192 575 q 306 674 260 653 q 410 694 353 694 q 584 627 522 694 q 646 428 646 560 l 646 0 l 558 0 l 558 396 q 516 564 558 510 q 389 618 474 618 q 248 551 300 618 q 196 339 196 485 l 196 0 l 107 0 m 31 806 l 31 865 l 396 865 l 396 806 l 31 806 z "},"ĥ":{"ha":746,"x_min":-54,"x_max":646,"o":"m 107 0 l 107 968 l 196 968 l 196 525 l 174 518 q 226 614 192 575 q 306 674 260 653 q 410 694 353 694 q 584 627 522 694 q 646 428 646 560 l 646 0 l 558 0 l 558 396 q 516 564 558 510 q 389 618 474 618 q 248 551 300 618 q 196 339 196 485 l 196 0 l 107 0 m -54 1047 l 151 1264 l 357 1047 l 282 1047 l 151 1186 l 22 1047 l -54 1047 z "},"i":{"ha":301,"x_min":99,"x_max":203,"o":"m 107 0 l 107 685 l 194 685 l 194 0 l 107 0 m 99 818 l 99 968 l 203 968 l 203 818 l 99 818 z "},"ı":{"ha":301,"x_min":107,"x_max":194,"o":"m 107 0 l 107 685 l 194 685 l 194 0 l 107 0 z "},"í":{"ha":301,"x_min":107,"x_max":361,"o":"m 107 0 l 107 685 l 194 685 l 194 0 l 107 0 m 118 774 l 267 968 l 361 968 l 185 774 l 118 774 z "},"ĭ":{"ha":301,"x_min":-57,"x_max":360,"o":"m 107 0 l 107 685 l 194 685 l 194 0 l 107 0 m 151 778 q -5 825 47 778 q -57 968 -57 872 l 1 968 q 41 864 1 897 q 151 831 81 831 q 263 865 224 831 q 301 968 301 899 l 360 968 q 306 824 360 871 q 151 778 253 778 z "},"ǐ":{"ha":301,"x_min":-54,"x_max":357,"o":"m 107 0 l 107 685 l 194 685 l 194 0 l 107 0 m 151 758 l -54 968 l 17 968 l 151 832 l 285 968 l 357 968 l 151 758 z "},"î":{"ha":301,"x_min":-56,"x_max":357,"o":"m 107 0 l 107 685 l 194 685 l 194 0 l 107 0 m -54 764 l 151 981 l 357 764 l 283 764 l 151 903 l 19 764 l -54 764 z "},"ï":{"ha":301,"x_min":-25,"x_max":328,"o":"m 107 0 l 107 685 l 194 685 l 194 0 l 107 0 m 224 818 l 224 968 l 328 968 l 328 818 l 224 818 m -25 818 l -25 968 l 79 968 l 79 818 l -25 818 z "},"ị":{"ha":301,"x_min":99,"x_max":203,"o":"m 107 0 l 107 685 l 194 685 l 194 0 l 107 0 m 99 818 l 99 968 l 203 968 l 203 818 l 99 818 m 99 -242 l 99 -101 l 203 -101 l 203 -242 l 99 -242 z "},"ì":{"ha":301,"x_min":-53,"x_max":194,"o":"m 107 0 l 107 685 l 194 685 l 194 0 l 107 0 m 117 774 l -53 968 l 40 968 l 185 774 l 117 774 z "},"ỉ":{"ha":301,"x_min":78,"x_max":300,"o":"m 107 0 l 107 685 l 194 685 l 194 0 l 107 0 m 131 731 l 124 767 q 199 788 164 775 q 235 839 235 801 q 193 899 235 882 q 100 917 151 917 l 79 917 l 79 969 l 100 969 q 243 937 186 969 q 300 846 300 904 q 274 781 300 804 q 208 748 247 758 q 131 731 169 738 z "},"ĳ":{"ha":604,"x_min":99,"x_max":507,"o":"m 107 0 l 107 685 l 194 685 l 194 0 l 107 0 m 99 818 l 99 968 l 203 968 l 203 818 l 99 818 m 367 -293 q 319 -288 344 -293 q 268 -276 294 -283 l 268 -199 q 308 -210 290 -207 q 336 -212 325 -212 q 390 -191 372 -212 q 408 -118 408 -169 l 408 685 l 496 685 l 496 -139 q 461 -256 496 -219 q 367 -293 426 -293 m 401 818 l 401 968 l 506 968 l 506 818 l 401 818 z "},"ī":{"ha":301,"x_min":-36,"x_max":338,"o":"m 107 0 l 107 685 l 194 685 l 194 0 l 107 0 m -36 838 l -36 892 l 338 892 l 338 838 l -36 838 z "},"į":{"ha":301,"x_min":-1,"x_max":243,"o":"m 107 0 l 107 685 l 194 685 l 194 0 l 107 0 m 99 818 l 99 968 l 203 968 l 203 818 l 99 818 m 115 -283 q 33 -256 68 -283 q -1 -175 -1 -228 q 17 -102 -1 -136 q 65 -41 36 -68 q 124 4 93 -14 l 194 0 q 144 -32 169 -14 q 99 -72 119 -50 q 65 -117 78 -93 q 53 -168 53 -142 q 71 -214 53 -199 q 115 -229 89 -229 q 164 -218 138 -229 q 214 -186 190 -207 l 243 -229 q 181 -270 214 -257 q 115 -283 147 -283 z "},"ĩ":{"ha":301,"x_min":-69,"x_max":368,"o":"m 107 0 l 107 685 l 194 685 l 194 0 l 107 0 m 246 796 q 178 814 203 796 q 135 856 153 832 q 100 899 118 881 q 54 917 82 917 q 3 888 22 917 q -17 807 -17 858 l -69 807 q -35 930 -69 886 q 57 974 -1 974 q 120 955 96 974 q 162 913 144 936 q 198 870 179 889 q 247 851 217 851 q 294 883 275 851 q 313 968 313 915 l 368 968 q 335 842 368 889 q 246 796 301 796 z "},"j":{"ha":301,"x_min":-33,"x_max":204,"o":"m 65 -293 q 18 -288 43 -293 q -33 -276 -7 -283 l -33 -199 q 6 -210 -11 -207 q 35 -212 24 -212 q 89 -191 71 -212 q 107 -118 107 -169 l 107 685 l 194 685 l 194 -139 q 160 -256 194 -219 q 65 -293 125 -293 m 100 818 l 100 968 l 204 968 l 204 818 l 100 818 z "},"ȷ":{"ha":301,"x_min":-33,"x_max":194,"o":"m 65 -293 q 18 -288 43 -293 q -33 -276 -7 -283 l -33 -199 q 6 -210 -11 -207 q 35 -212 24 -212 q 89 -191 71 -212 q 107 -118 107 -169 l 107 685 l 194 685 l 194 -139 q 160 -256 194 -219 q 65 -293 125 -293 z "},"ĵ":{"ha":301,"x_min":-54,"x_max":358,"o":"m 65 -293 q 18 -288 43 -293 q -33 -276 -7 -283 l -33 -199 q 6 -210 -11 -207 q 35 -212 24 -212 q 89 -191 71 -212 q 107 -118 107 -169 l 107 685 l 194 685 l 194 -139 q 160 -256 194 -219 q 65 -293 125 -293 m -53 764 l 153 981 l 358 764 l 285 764 l 153 903 l 21 764 l -53 764 z "},"k":{"ha":719,"x_min":107,"x_max":681,"o":"m 576 0 l 332 374 l 182 217 l 182 329 l 526 685 l 640 685 l 396 433 l 681 0 l 576 0 m 107 0 l 107 968 l 196 968 l 196 0 l 107 0 z "},"ķ":{"ha":719,"x_min":107,"x_max":681,"o":"m 576 0 l 332 374 l 182 217 l 182 329 l 526 685 l 640 685 l 396 433 l 681 0 l 576 0 m 107 0 l 107 968 l 196 968 l 196 0 l 107 0 m 192 -283 l 317 -78 l 411 -78 l 249 -283 l 192 -283 z "},"ĸ":{"ha":742,"x_min":107,"x_max":679,"o":"m 575 0 l 331 374 l 182 217 l 182 329 l 526 685 l 639 685 l 394 433 l 679 0 l 575 0 m 107 0 l 107 685 l 196 685 l 196 0 l 107 0 z "},"l":{"ha":358,"x_min":106,"x_max":325,"o":"m 233 -10 q 140 27 175 -10 q 106 144 106 64 l 106 968 l 193 968 l 193 160 q 211 92 193 113 q 260 71 229 71 q 290 74 274 71 q 325 83 307 78 l 325 8 q 277 -5 301 0 q 233 -10 253 -10 z "},"ĺ":{"ha":340,"x_min":106,"x_max":360,"o":"m 233 -10 q 140 27 175 -10 q 106 144 106 64 l 106 968 l 193 968 l 193 160 q 211 92 193 113 q 260 71 229 71 q 290 74 274 71 q 325 83 307 78 l 325 8 q 277 -5 301 0 q 233 -10 253 -10 m 115 1057 l 264 1251 l 358 1251 l 182 1057 l 115 1057 z "},"ľ":{"ha":358,"x_min":106,"x_max":451,"o":"m 233 -10 q 140 27 175 -10 q 106 144 106 64 l 106 968 l 193 968 l 193 160 q 211 92 193 113 q 260 71 229 71 q 290 74 274 71 q 325 83 307 78 l 325 8 q 277 -5 301 0 q 233 -10 253 -10 m 279 682 l 360 968 l 451 968 l 333 682 l 279 682 z "},"ļ":{"ha":340,"x_min":19,"x_max":325,"o":"m 233 -10 q 140 27 175 -10 q 106 144 106 64 l 106 968 l 193 968 l 193 160 q 211 92 193 113 q 260 71 229 71 q 290 74 274 71 q 325 83 307 78 l 325 8 q 277 -5 301 0 q 233 -10 253 -10 m 21 -283 l 146 -78 l 240 -78 l 78 -283 l 21 -283 z "},"ŀ":{"ha":536,"x_min":106,"x_max":433,"o":"m 233 -10 q 140 27 175 -10 q 106 144 106 64 l 106 968 l 193 968 l 193 160 q 211 92 193 113 q 260 71 229 71 q 290 74 274 71 q 325 83 307 78 l 325 8 q 277 -5 301 0 q 233 -10 253 -10 m 329 410 l 329 560 l 435 560 l 435 410 l 329 410 z "},"ł":{"ha":340,"x_min":25,"x_max":326,"o":"m 233 -10 q 140 27 175 -10 q 106 144 106 64 l 106 968 l 193 968 l 193 160 q 211 92 193 113 q 260 71 229 71 q 290 74 274 71 q 325 83 307 78 l 325 8 q 277 -5 301 0 q 233 -10 253 -10 m 25 375 l 25 467 l 325 704 l 325 615 l 25 375 z "},"m":{"ha":1139,"x_min":107,"x_max":1039,"o":"m 107 0 l 107 685 l 196 685 l 196 508 l 178 508 q 211 592 190 557 q 261 649 232 626 q 324 683 290 672 q 396 694 358 694 q 503 672 457 694 q 579 601 550 649 q 619 481 608 554 l 571 478 q 622 597 590 549 q 700 669 653 644 q 811 694 747 694 q 944 656 894 694 q 1017 554 994 618 q 1039 408 1039 490 l 1039 0 l 951 0 l 951 389 q 936 511 951 460 q 886 590 921 563 q 792 618 851 618 q 701 591 740 618 q 640 508 661 564 q 618 369 618 453 l 618 0 l 529 0 l 529 401 q 490 565 529 511 q 372 618 450 618 q 281 590 321 618 q 218 506 240 563 q 196 361 196 449 l 196 0 l 107 0 z "},"n":{"ha":746,"x_min":107,"x_max":646,"o":"m 107 0 l 107 685 l 196 685 l 196 525 l 175 518 q 226 614 193 575 q 306 674 260 653 q 410 694 353 694 q 583 628 521 694 q 646 428 646 563 l 646 0 l 558 0 l 558 396 q 516 564 558 510 q 389 618 474 618 q 287 590 331 618 q 219 499 243 561 q 196 339 196 438 l 196 0 l 107 0 z "},"ń":{"ha":746,"x_min":107,"x_max":646,"o":"m 107 0 l 107 685 l 196 685 l 196 525 l 175 518 q 226 614 193 575 q 306 674 260 653 q 410 694 353 694 q 583 628 521 694 q 646 428 646 563 l 646 0 l 558 0 l 558 396 q 516 564 558 510 q 389 618 474 618 q 287 590 331 618 q 219 499 243 561 q 196 339 196 438 l 196 0 l 107 0 m 333 774 l 482 968 l 576 968 l 400 774 l 333 774 z "},"ŉ":{"ha":939,"x_min":10,"x_max":825,"o":"m 10 574 l 154 968 l 256 968 l 71 574 l 10 574 m 286 0 l 286 685 l 375 685 l 375 525 l 354 518 q 406 614 372 575 q 485 674 439 653 q 589 694 532 694 q 763 628 700 694 q 825 428 825 563 l 825 0 l 738 0 l 738 396 q 695 564 738 510 q 568 618 653 618 q 466 590 510 618 q 399 499 422 561 q 375 339 375 438 l 375 0 l 286 0 z "},"ň":{"ha":746,"x_min":107,"x_max":646,"o":"m 107 0 l 107 685 l 196 685 l 196 525 l 175 518 q 226 614 193 575 q 306 674 260 653 q 410 694 353 694 q 583 628 521 694 q 646 428 646 563 l 646 0 l 558 0 l 558 396 q 516 564 558 510 q 389 618 474 618 q 287 590 331 618 q 219 499 243 561 q 196 339 196 438 l 196 0 l 107 0 m 367 758 l 161 968 l 232 968 l 367 832 l 500 968 l 572 968 l 367 758 z "},"ņ":{"ha":746,"x_min":107,"x_max":646,"o":"m 107 0 l 107 685 l 196 685 l 196 525 l 175 518 q 226 614 193 575 q 306 674 260 653 q 410 694 353 694 q 583 628 521 694 q 646 428 646 563 l 646 0 l 558 0 l 558 396 q 516 564 558 510 q 389 618 474 618 q 287 590 331 618 q 219 499 243 561 q 196 339 196 438 l 196 0 l 107 0 m 199 -283 l 324 -78 l 418 -78 l 256 -283 l 199 -283 z "},"ṅ":{"ha":746,"x_min":107,"x_max":646,"o":"m 107 0 l 107 685 l 196 685 l 196 525 l 175 518 q 226 614 193 575 q 306 674 260 653 q 410 694 353 694 q 583 628 521 694 q 646 428 646 563 l 646 0 l 558 0 l 558 396 q 516 564 558 510 q 389 618 474 618 q 287 590 331 618 q 219 499 243 561 q 196 339 196 438 l 196 0 l 107 0 m 314 818 l 314 968 l 418 968 l 418 818 l 314 818 z "},"ɲ":{"ha":761,"x_min":-8,"x_max":661,"o":"m 124 0 l 124 685 l 210 685 l 210 517 l 194 535 q 281 655 219 615 q 425 694 343 694 q 598 633 535 694 q 661 456 661 571 l 661 0 l 574 0 l 574 422 q 558 519 574 475 q 505 591 543 564 q 400 618 467 618 q 308 597 344 618 q 249 538 271 575 q 219 456 228 501 q 210 365 210 411 l 210 0 l 124 0 m 83 -293 q -8 -276 42 -293 l -8 -204 q 28 -215 11 -211 q 56 -218 44 -218 q 106 -197 89 -218 q 124 -129 124 -176 l 124 0 l 210 0 l 210 -139 q 176 -256 210 -219 q 83 -293 143 -293 z "},"ñ":{"ha":746,"x_min":107,"x_max":646,"o":"m 107 0 l 107 685 l 196 685 l 196 525 l 175 518 q 226 614 193 575 q 306 674 260 653 q 410 694 353 694 q 583 628 521 694 q 646 428 646 563 l 646 0 l 558 0 l 558 396 q 516 564 558 510 q 389 618 474 618 q 287 590 331 618 q 219 499 243 561 q 196 339 196 438 l 196 0 l 107 0 m 461 796 q 393 814 418 796 q 351 856 368 832 q 315 899 333 881 q 269 917 297 917 q 218 888 238 917 q 199 807 199 858 l 146 807 q 180 930 146 886 q 272 974 214 974 q 335 955 311 974 q 377 913 360 936 q 413 870 394 889 q 463 851 432 851 q 509 883 490 851 q 528 968 528 915 l 583 968 q 550 842 583 889 q 461 796 517 796 z "},"ŋ":{"ha":826,"x_min":151,"x_max":690,"o":"m 564 -293 q 519 -289 542 -293 q 471 -276 496 -285 l 471 -204 q 507 -215 490 -211 q 535 -218 524 -218 q 585 -197 568 -218 q 601 -129 601 -176 l 601 422 q 593 496 601 461 q 565 558 585 531 q 512 602 544 586 q 428 618 479 618 q 335 597 372 618 q 278 539 299 575 q 248 458 257 503 q 239 365 239 413 l 239 0 l 151 0 l 151 685 l 239 685 l 239 517 l 222 535 q 310 656 249 617 q 454 694 372 694 q 627 633 564 694 q 690 456 690 572 l 690 -139 q 656 -256 690 -219 q 564 -293 621 -293 z "},"o":{"ha":804,"x_min":76,"x_max":729,"o":"m 403 -10 q 234 35 308 -10 q 118 160 160 81 q 76 343 76 240 q 117 525 76 446 q 233 649 158 604 q 403 694 307 694 q 572 649 499 694 q 687 525 644 604 q 729 343 729 446 q 687 160 729 240 q 571 35 644 81 q 403 -10 497 -10 m 403 68 q 528 103 475 68 q 611 199 582 138 q 640 343 640 261 q 611 488 640 426 q 528 584 582 550 q 403 618 475 618 q 276 583 331 618 q 192 488 222 549 q 163 343 163 426 q 192 199 163 261 q 276 103 222 138 q 403 68 331 68 z "},"ó":{"ha":804,"x_min":76,"x_max":729,"o":"m 403 -10 q 234 35 308 -10 q 118 160 160 81 q 76 343 76 240 q 117 525 76 446 q 233 649 158 604 q 403 694 307 694 q 572 649 499 694 q 687 525 644 604 q 729 343 729 446 q 687 160 729 240 q 571 35 644 81 q 403 -10 497 -10 m 403 68 q 528 103 475 68 q 611 199 582 138 q 640 343 640 261 q 611 488 640 426 q 528 584 582 550 q 403 618 475 618 q 276 583 331 618 q 192 488 222 549 q 163 343 163 426 q 192 199 163 261 q 276 103 222 138 q 403 68 331 68 m 369 774 l 518 968 l 613 968 l 436 774 l 369 774 z "},"ŏ":{"ha":804,"x_min":76,"x_max":729,"o":"m 403 -10 q 234 35 308 -10 q 118 160 160 81 q 76 343 76 240 q 117 525 76 446 q 233 649 158 604 q 403 694 307 694 q 572 649 499 694 q 687 525 644 604 q 729 343 729 446 q 687 160 729 240 q 571 35 644 81 q 403 -10 497 -10 m 403 68 q 528 103 475 68 q 611 199 582 138 q 640 343 640 261 q 611 488 640 426 q 528 584 582 550 q 403 618 475 618 q 276 583 331 618 q 192 488 222 549 q 163 343 163 426 q 192 199 163 261 q 276 103 222 138 q 403 68 331 68 m 403 778 q 247 825 299 778 q 194 968 194 872 l 253 968 q 292 864 253 897 q 403 831 332 831 q 514 865 475 831 q 553 968 553 899 l 611 968 q 558 824 611 871 q 403 778 504 778 z "},"ǒ":{"ha":804,"x_min":76,"x_max":729,"o":"m 403 -10 q 234 35 308 -10 q 118 160 160 81 q 76 343 76 240 q 117 525 76 446 q 233 649 158 604 q 403 694 307 694 q 572 649 499 694 q 687 525 644 604 q 729 343 729 446 q 687 160 729 240 q 571 35 644 81 q 403 -10 497 -10 m 403 68 q 528 103 475 68 q 611 199 582 138 q 640 343 640 261 q 611 488 640 426 q 528 584 582 550 q 403 618 475 618 q 276 583 331 618 q 192 488 222 549 q 163 343 163 426 q 192 199 163 261 q 276 103 222 138 q 403 68 331 68 m 403 758 l 197 968 l 268 968 l 403 832 l 536 968 l 608 968 l 403 758 z "},"ô":{"ha":804,"x_min":76,"x_max":729,"o":"m 403 -10 q 234 35 308 -10 q 118 160 160 81 q 76 343 76 240 q 117 525 76 446 q 233 649 158 604 q 403 694 307 694 q 572 649 499 694 q 687 525 644 604 q 729 343 729 446 q 687 160 729 240 q 571 35 644 81 q 403 -10 497 -10 m 403 68 q 528 103 475 68 q 611 199 582 138 q 640 343 640 261 q 611 488 640 426 q 528 584 582 550 q 403 618 475 618 q 276 583 331 618 q 192 488 222 549 q 163 343 163 426 q 192 199 163 261 q 276 103 222 138 q 403 68 331 68 m 197 764 l 403 981 l 608 764 l 535 764 l 403 903 l 271 764 l 197 764 z "},"ố":{"ha":804,"x_min":76,"x_max":729,"o":"m 403 -10 q 234 35 308 -10 q 118 160 160 81 q 76 343 76 240 q 117 525 76 446 q 233 649 158 604 q 403 694 307 694 q 572 649 499 694 q 687 525 644 604 q 729 343 729 446 q 687 160 729 240 q 571 35 644 81 q 403 -10 497 -10 m 403 68 q 528 103 475 68 q 611 199 582 138 q 640 343 640 261 q 611 488 640 426 q 528 584 582 550 q 403 618 475 618 q 276 583 331 618 q 192 488 222 549 q 163 343 163 426 q 192 199 163 261 q 276 103 222 138 q 403 68 331 68 m 197 764 l 403 969 l 608 764 l 533 764 l 403 892 l 272 764 l 197 764 m 514 901 l 618 1089 l 692 1089 l 571 901 l 514 901 z "},"ộ":{"ha":804,"x_min":76,"x_max":729,"o":"m 403 -10 q 234 35 308 -10 q 118 160 160 81 q 76 343 76 240 q 117 525 76 446 q 233 649 158 604 q 403 694 307 694 q 572 649 499 694 q 687 525 644 604 q 729 343 729 446 q 687 160 729 240 q 571 35 644 81 q 403 -10 497 -10 m 403 68 q 528 103 475 68 q 611 199 582 138 q 640 343 640 261 q 611 488 640 426 q 528 584 582 550 q 403 618 475 618 q 276 583 331 618 q 192 488 222 549 q 163 343 163 426 q 192 199 163 261 q 276 103 222 138 q 403 68 331 68 m 350 -242 l 350 -101 l 454 -101 l 454 -242 l 350 -242 m 197 764 l 403 981 l 608 764 l 535 764 l 403 903 l 271 764 l 197 764 z "},"ồ":{"ha":804,"x_min":76,"x_max":729,"o":"m 403 -10 q 234 35 308 -10 q 118 160 160 81 q 76 343 76 240 q 117 525 76 446 q 233 649 158 604 q 403 694 307 694 q 572 649 499 694 q 687 525 644 604 q 729 343 729 446 q 687 160 729 240 q 571 35 644 81 q 403 -10 497 -10 m 403 68 q 528 103 475 68 q 611 199 582 138 q 640 343 640 261 q 611 488 640 426 q 528 584 582 550 q 403 618 475 618 q 276 583 331 618 q 192 488 222 549 q 163 343 163 426 q 192 199 163 261 q 276 103 222 138 q 403 68 331 68 m 197 764 l 403 969 l 608 764 l 533 764 l 403 892 l 274 764 l 197 764 m 586 901 l 465 1089 l 539 1089 l 643 901 l 586 901 z "},"ổ":{"ha":804,"x_min":76,"x_max":729,"o":"m 403 -10 q 234 35 308 -10 q 118 160 160 81 q 76 343 76 240 q 117 525 76 446 q 233 649 158 604 q 403 694 307 694 q 572 649 499 694 q 687 525 644 604 q 729 343 729 446 q 687 160 729 240 q 571 35 644 81 q 403 -10 497 -10 m 403 68 q 528 103 475 68 q 611 199 582 138 q 640 343 640 261 q 611 488 640 426 q 528 584 582 550 q 403 618 475 618 q 276 583 331 618 q 192 488 222 549 q 163 343 163 426 q 192 199 163 261 q 276 103 222 138 q 403 68 331 68 m 197 764 l 403 969 l 608 764 l 533 764 l 403 892 l 274 764 l 197 764 m 531 882 l 519 917 q 594 940 564 925 q 625 990 625 956 q 585 1049 625 1031 q 496 1067 544 1067 l 475 1067 l 475 1115 l 496 1115 q 628 1083 578 1115 q 678 994 678 1051 q 658 933 678 956 q 603 900 638 911 q 531 882 569 889 z "},"ỗ":{"ha":804,"x_min":76,"x_max":729,"o":"m 403 -10 q 234 35 308 -10 q 118 160 160 81 q 76 343 76 240 q 117 525 76 446 q 233 649 158 604 q 403 694 307 694 q 572 649 499 694 q 687 525 644 604 q 729 343 729 446 q 687 160 729 240 q 571 35 644 81 q 403 -10 497 -10 m 403 68 q 528 103 475 68 q 611 199 582 138 q 640 343 640 261 q 611 488 640 426 q 528 584 582 550 q 403 618 475 618 q 276 583 331 618 q 192 488 222 549 q 163 343 163 426 q 192 199 163 261 q 276 103 222 138 q 403 68 331 68 m 197 764 l 403 969 l 608 764 l 535 764 l 403 892 l 272 764 l 197 764 m 493 992 q 438 1001 460 992 q 400 1024 417 1011 q 365 1046 383 1036 q 319 1056 347 1056 q 273 1040 289 1056 q 250 1000 257 1025 l 199 1004 q 235 1077 206 1049 q 315 1106 264 1106 q 371 1097 349 1106 q 411 1075 393 1088 q 447 1054 429 1063 q 488 1046 464 1046 q 531 1058 515 1046 q 553 1096 546 1069 l 607 1092 q 572 1021 600 1050 q 493 992 544 992 z "},"ö":{"ha":804,"x_min":76,"x_max":729,"o":"m 403 -10 q 234 35 308 -10 q 118 160 160 81 q 76 343 76 240 q 117 525 76 446 q 233 649 158 604 q 403 694 307 694 q 572 649 499 694 q 687 525 644 604 q 729 343 729 446 q 687 160 729 240 q 571 35 644 81 q 403 -10 497 -10 m 403 68 q 528 103 475 68 q 611 199 582 138 q 640 343 640 261 q 611 488 640 426 q 528 584 582 550 q 403 618 475 618 q 276 583 331 618 q 192 488 222 549 q 163 343 163 426 q 192 199 163 261 q 276 103 222 138 q 403 68 331 68 m 475 818 l 475 968 l 579 968 l 579 818 l 475 818 m 226 818 l 226 968 l 331 968 l 331 818 l 226 818 z "},"ọ":{"ha":804,"x_min":76,"x_max":729,"o":"m 403 -10 q 234 35 308 -10 q 118 160 160 81 q 76 343 76 240 q 117 525 76 446 q 233 649 158 604 q 403 694 307 694 q 572 649 499 694 q 687 525 644 604 q 729 343 729 446 q 687 160 729 240 q 571 35 644 81 q 403 -10 497 -10 m 403 68 q 528 103 475 68 q 611 199 582 138 q 640 343 640 261 q 611 488 640 426 q 528 584 582 550 q 403 618 475 618 q 276 583 331 618 q 192 488 222 549 q 163 343 163 426 q 192 199 163 261 q 276 103 222 138 q 403 68 331 68 m 350 -242 l 350 -101 l 454 -101 l 454 -242 l 350 -242 z "},"ò":{"ha":804,"x_min":76,"x_max":729,"o":"m 403 -10 q 234 35 308 -10 q 118 160 160 81 q 76 343 76 240 q 117 525 76 446 q 233 649 158 604 q 403 694 307 694 q 572 649 499 694 q 687 525 644 604 q 729 343 729 446 q 687 160 729 240 q 571 35 644 81 q 403 -10 497 -10 m 403 68 q 528 103 475 68 q 611 199 582 138 q 640 343 640 261 q 611 488 640 426 q 528 584 582 550 q 403 618 475 618 q 276 583 331 618 q 192 488 222 549 q 163 343 163 426 q 192 199 163 261 q 276 103 222 138 q 403 68 331 68 m 368 774 l 199 968 l 292 968 l 436 774 l 368 774 z "},"ỏ":{"ha":804,"x_min":76,"x_max":729,"o":"m 403 -10 q 234 35 308 -10 q 118 160 160 81 q 76 343 76 240 q 117 525 76 446 q 233 649 158 604 q 403 694 307 694 q 572 649 499 694 q 687 525 644 604 q 729 343 729 446 q 687 160 729 240 q 571 35 644 81 q 403 -10 497 -10 m 403 68 q 528 103 475 68 q 611 199 582 138 q 640 343 640 261 q 611 488 640 426 q 528 584 582 550 q 403 618 475 618 q 276 583 331 618 q 192 488 222 549 q 163 343 163 426 q 192 199 163 261 q 276 103 222 138 q 403 68 331 68 m 382 731 l 375 767 q 451 788 415 775 q 486 839 486 801 q 444 899 486 882 q 351 917 403 917 l 331 917 l 331 969 l 351 969 q 494 937 438 969 q 551 846 551 904 q 525 781 551 804 q 460 748 499 758 q 382 731 421 738 z "},"ơ":{"ha":804,"x_min":76,"x_max":814,"o":"m 403 -10 q 234 35 308 -10 q 118 160 160 81 q 76 343 76 240 q 117 525 76 446 q 233 649 158 604 q 403 694 307 694 q 572 649 499 694 q 687 525 644 604 q 729 343 729 446 q 687 160 729 240 q 571 35 644 81 q 403 -10 497 -10 m 403 68 q 528 103 475 68 q 611 199 582 138 q 640 343 640 261 q 611 488 640 426 q 528 584 582 550 q 403 618 475 618 q 276 583 331 618 q 192 488 222 549 q 163 343 163 426 q 192 199 163 261 q 276 103 222 138 q 403 68 331 68 m 625 515 l 625 575 q 722 615 692 575 q 751 731 751 654 l 751 793 l 814 793 l 814 725 q 794 615 814 661 q 733 542 774 568 q 625 515 692 515 z "},"ớ":{"ha":804,"x_min":76,"x_max":814,"o":"m 403 -10 q 234 35 308 -10 q 118 160 160 81 q 76 343 76 240 q 117 525 76 446 q 233 649 158 604 q 403 694 307 694 q 572 649 499 694 q 687 525 644 604 q 729 343 729 446 q 687 160 729 240 q 571 35 644 81 q 403 -10 497 -10 m 403 68 q 528 103 475 68 q 611 199 582 138 q 640 343 640 261 q 611 488 640 426 q 528 584 582 550 q 403 618 475 618 q 276 583 331 618 q 192 488 222 549 q 163 343 163 426 q 192 199 163 261 q 276 103 222 138 q 403 68 331 68 m 625 515 l 625 575 q 722 615 692 575 q 751 731 751 654 l 751 793 l 814 793 l 814 725 q 794 615 814 661 q 733 542 774 568 q 625 515 692 515 m 369 774 l 518 968 l 613 968 l 436 774 l 369 774 z "},"ợ":{"ha":804,"x_min":76,"x_max":814,"o":"m 403 -10 q 234 35 308 -10 q 118 160 160 81 q 76 343 76 240 q 117 525 76 446 q 233 649 158 604 q 403 694 307 694 q 572 649 499 694 q 687 525 644 604 q 729 343 729 446 q 687 160 729 240 q 571 35 644 81 q 403 -10 497 -10 m 403 68 q 528 103 475 68 q 611 199 582 138 q 640 343 640 261 q 611 488 640 426 q 528 584 582 550 q 403 618 475 618 q 276 583 331 618 q 192 488 222 549 q 163 343 163 426 q 192 199 163 261 q 276 103 222 138 q 403 68 331 68 m 625 515 l 625 575 q 722 615 692 575 q 751 731 751 654 l 751 793 l 814 793 l 814 725 q 794 615 814 661 q 733 542 774 568 q 625 515 692 515 m 350 -242 l 350 -101 l 454 -101 l 454 -242 l 350 -242 z "},"ờ":{"ha":804,"x_min":76,"x_max":814,"o":"m 403 -10 q 234 35 308 -10 q 118 160 160 81 q 76 343 76 240 q 117 525 76 446 q 233 649 158 604 q 403 694 307 694 q 572 649 499 694 q 687 525 644 604 q 729 343 729 446 q 687 160 729 240 q 571 35 644 81 q 403 -10 497 -10 m 403 68 q 528 103 475 68 q 611 199 582 138 q 640 343 640 261 q 611 488 640 426 q 528 584 582 550 q 403 618 475 618 q 276 583 331 618 q 192 488 222 549 q 163 343 163 426 q 192 199 163 261 q 276 103 222 138 q 403 68 331 68 m 625 515 l 625 575 q 722 615 692 575 q 751 731 751 654 l 751 793 l 814 793 l 814 725 q 794 615 814 661 q 733 542 774 568 q 625 515 692 515 m 368 774 l 199 968 l 292 968 l 436 774 l 368 774 z "},"ở":{"ha":804,"x_min":76,"x_max":814,"o":"m 403 -10 q 234 35 308 -10 q 118 160 160 81 q 76 343 76 240 q 117 525 76 446 q 233 649 158 604 q 403 694 307 694 q 572 649 499 694 q 687 525 644 604 q 729 343 729 446 q 687 160 729 240 q 571 35 644 81 q 403 -10 497 -10 m 403 68 q 528 103 475 68 q 611 199 582 138 q 640 343 640 261 q 611 488 640 426 q 528 584 582 550 q 403 618 475 618 q 276 583 331 618 q 192 488 222 549 q 163 343 163 426 q 192 199 163 261 q 276 103 222 138 q 403 68 331 68 m 625 515 l 625 575 q 722 615 692 575 q 751 731 751 654 l 751 793 l 814 793 l 814 725 q 794 615 814 661 q 733 542 774 568 q 625 515 692 515 m 382 731 l 375 767 q 451 788 415 775 q 486 839 486 801 q 444 899 486 882 q 351 917 403 917 l 331 917 l 331 969 l 351 969 q 494 937 438 969 q 551 846 551 904 q 525 781 551 804 q 460 748 499 758 q 382 731 421 738 z "},"ỡ":{"ha":804,"x_min":76,"x_max":814,"o":"m 403 -10 q 234 35 308 -10 q 118 160 160 81 q 76 343 76 240 q 117 525 76 446 q 233 649 158 604 q 403 694 307 694 q 572 649 499 694 q 687 525 644 604 q 729 343 729 446 q 687 160 729 240 q 571 35 644 81 q 403 -10 497 -10 m 403 68 q 528 103 475 68 q 611 199 582 138 q 640 343 640 261 q 611 488 640 426 q 528 584 582 550 q 403 618 475 618 q 276 583 331 618 q 192 488 222 549 q 163 343 163 426 q 192 199 163 261 q 276 103 222 138 q 403 68 331 68 m 625 515 l 625 575 q 722 615 692 575 q 751 731 751 654 l 751 793 l 814 793 l 814 725 q 794 615 814 661 q 733 542 774 568 q 625 515 692 515 m 499 796 q 431 814 456 796 q 388 856 406 832 q 353 899 371 881 q 307 917 335 917 q 256 888 275 917 q 236 807 236 858 l 183 807 q 217 930 183 886 q 310 974 251 974 q 373 955 349 974 q 415 913 397 936 q 451 870 432 889 q 500 851 469 851 q 547 883 528 851 q 565 968 565 915 l 621 968 q 588 842 621 889 q 499 796 554 796 z "},"ő":{"ha":804,"x_min":76,"x_max":729,"o":"m 403 -10 q 234 35 308 -10 q 118 160 160 81 q 76 343 76 240 q 117 525 76 446 q 233 649 158 604 q 403 694 307 694 q 572 649 499 694 q 687 525 644 604 q 729 343 729 446 q 687 160 729 240 q 571 35 644 81 q 403 -10 497 -10 m 403 68 q 528 103 475 68 q 611 199 582 138 q 640 343 640 261 q 611 488 640 426 q 528 584 582 550 q 403 618 475 618 q 276 583 331 618 q 192 488 222 549 q 163 343 163 426 q 192 199 163 261 q 276 103 222 138 q 403 68 331 68 m 485 760 l 635 968 l 728 968 l 553 760 l 485 760 m 253 760 l 401 968 l 482 968 l 319 760 l 253 760 z "},"ō":{"ha":804,"x_min":76,"x_max":729,"o":"m 403 -10 q 234 35 308 -10 q 118 160 160 81 q 76 343 76 240 q 117 525 76 446 q 233 649 158 604 q 403 694 307 694 q 572 649 499 694 q 687 525 644 604 q 729 343 729 446 q 687 160 729 240 q 571 35 644 81 q 403 -10 497 -10 m 403 68 q 528 103 475 68 q 611 199 582 138 q 640 343 640 261 q 611 488 640 426 q 528 584 582 550 q 403 618 475 618 q 276 583 331 618 q 192 488 222 549 q 163 343 163 426 q 192 199 163 261 q 276 103 222 138 q 403 68 331 68 m 215 838 l 215 892 l 589 892 l 589 838 l 215 838 z "},"ǫ":{"ha":804,"x_min":76,"x_max":729,"o":"m 403 -10 q 234 35 308 -10 q 118 160 160 81 q 76 343 76 240 q 117 525 76 446 q 233 649 158 604 q 403 694 307 694 q 572 649 499 694 q 687 525 644 604 q 729 343 729 446 q 687 160 729 240 q 571 35 644 81 q 403 -10 497 -10 m 403 68 q 528 103 475 68 q 611 199 582 138 q 640 343 640 261 q 611 488 640 426 q 528 584 582 550 q 403 618 475 618 q 276 583 331 618 q 192 488 222 549 q 163 343 163 426 q 192 199 163 261 q 276 103 222 138 q 403 68 331 68 m 406 -283 q 324 -256 358 -283 q 289 -175 289 -228 q 308 -102 289 -136 q 355 -41 326 -68 q 414 4 383 -14 l 485 0 q 435 -32 460 -14 q 389 -72 410 -50 q 356 -117 368 -93 q 343 -168 343 -142 q 361 -214 343 -199 q 406 -229 379 -229 q 454 -218 428 -229 q 504 -186 481 -207 l 533 -229 q 471 -270 504 -257 q 406 -283 438 -283 z "},"ø":{"ha":804,"x_min":76,"x_max":729,"o":"m 403 -10 q 234 35 308 -10 q 118 160 160 81 q 76 343 76 240 q 117 525 76 446 q 233 649 158 604 q 403 694 307 694 q 572 649 499 694 q 687 525 644 604 q 729 343 729 446 q 687 160 729 240 q 571 35 644 81 q 403 -10 497 -10 m 403 68 q 528 103 475 68 q 611 199 582 138 q 640 343 640 261 q 611 488 640 426 q 528 584 582 550 q 403 618 475 618 q 276 583 331 618 q 192 488 222 549 q 163 343 163 426 q 192 199 163 261 q 276 103 222 138 q 403 68 331 68 m 122 -69 l 635 754 l 681 754 l 168 -69 l 122 -69 z "},"ǿ":{"ha":804,"x_min":76,"x_max":729,"o":"m 403 -10 q 234 35 308 -10 q 118 160 160 81 q 76 343 76 240 q 117 525 76 446 q 233 649 158 604 q 403 694 307 694 q 572 649 499 694 q 687 525 644 604 q 729 343 729 446 q 687 160 729 240 q 571 35 644 81 q 403 -10 497 -10 m 403 68 q 528 103 475 68 q 611 199 582 138 q 640 343 640 261 q 611 488 640 426 q 528 584 582 550 q 403 618 475 618 q 276 583 331 618 q 192 488 222 549 q 163 343 163 426 q 192 199 163 261 q 276 103 222 138 q 403 68 331 68 m 122 -69 l 635 754 l 681 754 l 168 -69 l 122 -69 m 369 774 l 518 968 l 613 968 l 436 774 l 369 774 z "},"õ":{"ha":804,"x_min":76,"x_max":729,"o":"m 403 -10 q 234 35 308 -10 q 118 160 160 81 q 76 343 76 240 q 117 525 76 446 q 233 649 158 604 q 403 694 307 694 q 572 649 499 694 q 687 525 644 604 q 729 343 729 446 q 687 160 729 240 q 571 35 644 81 q 403 -10 497 -10 m 403 68 q 528 103 475 68 q 611 199 582 138 q 640 343 640 261 q 611 488 640 426 q 528 584 582 550 q 403 618 475 618 q 276 583 331 618 q 192 488 222 549 q 163 343 163 426 q 192 199 163 261 q 276 103 222 138 q 403 68 331 68 m 499 796 q 431 814 456 796 q 388 856 406 832 q 353 899 371 881 q 307 917 335 917 q 256 888 275 917 q 236 807 236 858 l 183 807 q 217 930 183 886 q 310 974 251 974 q 373 955 349 974 q 415 913 397 936 q 451 870 432 889 q 500 851 469 851 q 547 883 528 851 q 565 968 565 915 l 621 968 q 588 842 621 889 q 499 796 554 796 z "},"œ":{"ha":1315,"x_min":76,"x_max":1239,"o":"m 956 -10 q 820 17 879 -10 q 722 90 761 43 q 663 201 683 138 q 643 338 643 265 q 663 476 643 411 q 720 590 682 540 q 815 667 758 639 q 944 694 871 694 q 1078 667 1022 694 q 1170 594 1135 640 q 1223 492 1206 547 q 1240 379 1240 436 q 1240 350 1240 368 q 1236 319 1239 332 l 729 319 q 792 136 732 201 q 956 71 853 71 q 1067 91 1021 71 q 1157 158 1114 111 l 1219 103 q 1140 38 1181 63 q 1055 2 1100 14 q 956 -10 1010 -10 m 1153 364 q 1156 387 1156 375 q 1156 410 1156 399 q 1144 483 1156 446 q 1107 551 1132 521 q 1042 601 1082 582 q 946 621 1001 621 q 834 589 882 621 q 760 504 786 557 q 729 385 733 451 l 1182 385 l 1153 364 m 403 -10 q 234 35 308 -10 q 118 160 160 81 q 76 343 76 240 q 117 525 76 446 q 233 649 158 604 q 403 694 307 694 q 572 649 499 694 q 687 525 644 604 q 729 343 729 446 q 687 160 729 240 q 571 35 644 81 q 403 -10 497 -10 m 403 68 q 528 103 475 68 q 611 199 582 138 q 640 343 640 261 q 611 488 640 426 q 528 584 582 550 q 403 618 475 618 q 276 583 331 618 q 192 488 222 549 q 163 343 163 426 q 192 199 163 261 q 276 103 222 138 q 403 68 331 68 z "},"p":{"ha":824,"x_min":107,"x_max":747,"o":"m 107 -283 l 107 685 l 194 685 l 194 469 l 167 489 q 224 600 186 554 q 315 670 261 646 q 436 694 369 694 q 598 648 528 694 q 708 522 668 601 q 747 342 747 443 q 706 158 747 238 q 594 34 664 78 q 436 -10 524 -10 q 315 16 369 -10 q 223 88 260 42 q 171 192 186 133 l 194 214 l 194 -283 l 107 -283 m 422 71 q 545 106 492 71 q 629 201 599 140 q 660 342 660 263 q 629 482 660 421 q 545 578 599 543 q 422 614 492 614 q 300 578 353 614 q 217 482 247 543 q 188 342 188 421 q 217 201 188 263 q 300 106 247 140 q 422 71 353 71 z "},"þ":{"ha":875,"x_min":153,"x_max":776,"o":"m 153 -283 l 153 968 l 240 968 l 240 471 l 224 490 q 281 601 242 556 q 376 670 321 646 q 493 694 432 694 q 647 648 583 694 q 743 522 710 601 q 776 340 776 442 q 740 156 776 235 q 640 33 704 76 q 493 -10 576 -10 q 376 15 431 -10 q 281 85 321 40 q 226 192 242 131 l 240 214 l 240 -283 l 153 -283 m 469 67 q 590 102 542 67 q 664 199 639 138 q 689 342 689 261 q 665 485 689 424 q 591 583 640 547 q 471 618 542 618 q 344 581 399 618 q 261 482 290 544 q 232 342 232 419 q 262 202 232 264 q 345 103 292 140 q 469 67 399 67 z "},"q":{"ha":825,"x_min":76,"x_max":717,"o":"m 629 -283 l 629 214 l 653 192 q 601 88 639 133 q 510 16 564 42 q 388 -10 456 -10 q 231 34 301 -10 q 118 158 160 78 q 76 342 76 238 q 116 522 76 443 q 226 648 156 601 q 388 694 296 694 q 510 669 456 694 q 601 599 564 644 q 657 489 639 553 l 629 469 l 629 685 l 717 685 l 717 -283 l 629 -283 m 401 71 q 524 106 471 71 q 606 201 576 140 q 636 342 636 263 q 606 482 636 421 q 524 578 576 543 q 401 614 471 614 q 279 578 333 614 q 194 482 225 543 q 164 342 164 421 q 194 201 164 263 q 279 106 225 140 q 401 71 333 71 z "},"r":{"ha":551,"x_min":107,"x_max":517,"o":"m 107 0 l 107 685 l 196 685 l 196 503 l 174 499 q 222 606 185 563 q 310 672 260 649 q 406 694 360 694 q 462 688 433 694 q 517 668 490 682 l 474 589 q 433 603 456 597 q 390 608 411 608 q 318 594 354 608 q 252 551 282 581 q 208 471 222 521 q 199 419 203 450 q 196 335 196 389 l 196 0 l 107 0 z "},"ŕ":{"ha":551,"x_min":107,"x_max":517,"o":"m 107 0 l 107 685 l 196 685 l 196 503 l 174 499 q 222 606 185 563 q 310 672 260 649 q 406 694 360 694 q 462 688 433 694 q 517 668 490 682 l 474 589 q 433 603 456 597 q 390 608 411 608 q 318 594 354 608 q 252 551 282 581 q 208 471 222 521 q 199 419 203 450 q 196 335 196 389 l 196 0 l 107 0 m 225 774 l 374 968 l 468 968 l 292 774 l 225 774 z "},"ř":{"ha":551,"x_min":53,"x_max":517,"o":"m 107 0 l 107 685 l 196 685 l 196 503 l 174 499 q 222 606 185 563 q 310 672 260 649 q 406 694 360 694 q 462 688 433 694 q 517 668 490 682 l 474 589 q 433 603 456 597 q 390 608 411 608 q 318 594 354 608 q 252 551 282 581 q 208 471 222 521 q 199 419 203 450 q 196 335 196 389 l 196 0 l 107 0 m 258 758 l 53 968 l 124 968 l 258 832 l 392 968 l 464 968 l 258 758 z "},"ŗ":{"ha":551,"x_min":86,"x_max":517,"o":"m 107 0 l 107 685 l 196 685 l 196 503 l 174 499 q 222 606 185 563 q 310 672 260 649 q 406 694 360 694 q 462 688 433 694 q 517 668 490 682 l 474 589 q 433 603 456 597 q 390 608 411 608 q 318 594 354 608 q 252 551 282 581 q 208 471 222 521 q 199 419 203 450 q 196 335 196 389 l 196 0 l 107 0 m 86 -283 l 211 -78 l 306 -78 l 143 -283 l 86 -283 z "},"s":{"ha":649,"x_min":47,"x_max":574,"o":"m 326 -10 q 203 11 258 -10 q 109 67 149 32 q 47 146 69 103 l 110 196 q 192 101 136 138 q 326 64 249 64 q 444 97 400 64 q 489 186 489 129 q 462 259 489 233 q 392 300 435 285 q 300 326 350 315 q 222 349 261 336 q 152 383 183 363 q 103 435 121 403 q 85 514 85 467 q 148 644 85 594 q 313 694 211 694 q 452 662 389 694 q 550 563 515 629 l 493 521 q 416 599 464 575 q 310 624 368 624 q 206 596 247 624 q 165 521 165 568 q 185 465 165 486 q 240 429 204 443 q 325 404 276 415 q 413 381 369 394 q 494 345 457 367 q 552 288 531 324 q 574 196 574 251 q 543 87 574 133 q 457 15 513 40 q 326 -10 401 -10 z "},"ś":{"ha":649,"x_min":47,"x_max":574,"o":"m 326 -10 q 203 11 258 -10 q 109 67 149 32 q 47 146 69 103 l 110 196 q 192 101 136 138 q 326 64 249 64 q 444 97 400 64 q 489 186 489 129 q 462 259 489 233 q 392 300 435 285 q 300 326 350 315 q 222 349 261 336 q 152 383 183 363 q 103 435 121 403 q 85 514 85 467 q 148 644 85 594 q 313 694 211 694 q 452 662 389 694 q 550 563 515 629 l 493 521 q 416 599 464 575 q 310 624 368 624 q 206 596 247 624 q 165 521 165 568 q 185 465 165 486 q 240 429 204 443 q 325 404 276 415 q 413 381 369 394 q 494 345 457 367 q 552 288 531 324 q 574 196 574 251 q 543 87 574 133 q 457 15 513 40 q 326 -10 401 -10 m 283 774 l 432 968 l 526 968 l 350 774 l 283 774 z "},"š":{"ha":649,"x_min":47,"x_max":574,"o":"m 326 -10 q 203 11 258 -10 q 109 67 149 32 q 47 146 69 103 l 110 196 q 192 101 136 138 q 326 64 249 64 q 444 97 400 64 q 489 186 489 129 q 462 259 489 233 q 392 300 435 285 q 300 326 350 315 q 222 349 261 336 q 152 383 183 363 q 103 435 121 403 q 85 514 85 467 q 148 644 85 594 q 313 694 211 694 q 452 662 389 694 q 550 563 515 629 l 493 521 q 416 599 464 575 q 310 624 368 624 q 206 596 247 624 q 165 521 165 568 q 185 465 165 486 q 240 429 204 443 q 325 404 276 415 q 413 381 369 394 q 494 345 457 367 q 552 288 531 324 q 574 196 574 251 q 543 87 574 133 q 457 15 513 40 q 326 -10 401 -10 m 317 758 l 111 968 l 182 968 l 317 832 l 450 968 l 522 968 l 317 758 z "},"ş":{"ha":649,"x_min":47,"x_max":574,"o":"m 326 -10 q 203 11 258 -10 q 109 67 149 32 q 47 146 69 103 l 110 196 q 192 101 136 138 q 326 64 249 64 q 444 97 400 64 q 489 186 489 129 q 462 259 489 233 q 392 300 435 285 q 300 326 350 315 q 222 349 261 336 q 152 383 183 363 q 103 435 121 403 q 85 514 85 467 q 148 644 85 594 q 313 694 211 694 q 452 662 389 694 q 550 563 515 629 l 493 521 q 416 599 464 575 q 310 624 368 624 q 206 596 247 624 q 165 521 165 568 q 185 465 165 486 q 240 429 204 443 q 325 404 276 415 q 413 381 369 394 q 494 345 457 367 q 552 288 531 324 q 574 196 574 251 q 543 87 574 133 q 457 15 513 40 q 326 -10 401 -10 m 290 -283 q 242 -277 267 -283 q 196 -258 217 -271 q 161 -229 175 -246 l 193 -194 q 236 -225 210 -214 q 289 -236 263 -236 q 349 -222 325 -236 q 372 -176 372 -207 q 356 -140 372 -153 q 315 -120 340 -126 q 263 -111 290 -114 q 211 -107 235 -108 l 294 8 l 351 8 l 288 -72 q 386 -103 346 -81 q 426 -174 426 -125 q 388 -255 426 -226 q 290 -283 349 -283 z "},"ŝ":{"ha":649,"x_min":47,"x_max":574,"o":"m 326 -10 q 203 11 258 -10 q 109 67 149 32 q 47 146 69 103 l 110 196 q 192 101 136 138 q 326 64 249 64 q 444 97 400 64 q 489 186 489 129 q 462 259 489 233 q 392 300 435 285 q 300 326 350 315 q 222 349 261 336 q 152 383 183 363 q 103 435 121 403 q 85 514 85 467 q 148 644 85 594 q 313 694 211 694 q 452 662 389 694 q 550 563 515 629 l 493 521 q 416 599 464 575 q 310 624 368 624 q 206 596 247 624 q 165 521 165 568 q 185 465 165 486 q 240 429 204 443 q 325 404 276 415 q 413 381 369 394 q 494 345 457 367 q 552 288 531 324 q 574 196 574 251 q 543 87 574 133 q 457 15 513 40 q 326 -10 401 -10 m 111 764 l 317 981 l 522 764 l 449 764 l 317 903 l 185 764 l 111 764 z "},"ș":{"ha":649,"x_min":47,"x_max":574,"o":"m 326 -10 q 203 11 258 -10 q 109 67 149 32 q 47 146 69 103 l 110 196 q 192 101 136 138 q 326 64 249 64 q 444 97 400 64 q 489 186 489 129 q 462 259 489 233 q 392 300 435 285 q 300 326 350 315 q 222 349 261 336 q 152 383 183 363 q 103 435 121 403 q 85 514 85 467 q 148 644 85 594 q 313 694 211 694 q 452 662 389 694 q 550 563 515 629 l 493 521 q 416 599 464 575 q 310 624 368 624 q 206 596 247 624 q 165 521 165 568 q 185 465 165 486 q 240 429 204 443 q 325 404 276 415 q 413 381 369 394 q 494 345 457 367 q 552 288 531 324 q 574 196 574 251 q 543 87 574 133 q 457 15 513 40 q 326 -10 401 -10 m 144 -283 l 269 -78 l 364 -78 l 201 -283 l 144 -283 z "},"ß":{"ha":869,"x_min":108,"x_max":810,"o":"m 567 -10 q 444 13 500 -10 q 347 77 388 36 q 289 169 307 118 l 360 201 q 403 133 375 164 q 472 83 431 101 q 565 64 514 64 q 683 99 642 64 q 724 188 724 133 q 701 254 724 229 q 644 294 679 279 q 566 319 608 308 q 481 341 524 329 q 402 373 438 353 q 345 426 367 393 q 324 511 324 458 q 345 601 324 567 q 400 653 367 635 q 472 683 433 671 q 543 706 510 694 q 598 735 576 717 q 619 786 619 753 q 594 844 619 819 q 526 883 568 869 q 439 896 485 896 q 321 878 367 896 q 250 833 275 861 q 214 772 225 806 q 201 707 203 739 q 199 651 199 675 l 199 0 l 108 0 l 108 651 q 121 769 108 711 q 167 875 133 828 q 265 950 201 922 q 433 978 329 978 q 573 955 511 978 q 670 889 635 932 q 706 788 706 846 q 684 709 706 739 q 628 662 663 679 q 557 633 594 644 q 486 608 519 621 q 431 572 453 594 q 410 511 410 550 q 431 455 410 475 q 488 422 453 435 q 567 400 524 410 q 652 378 610 390 q 730 344 694 365 q 788 288 765 324 q 810 196 810 251 q 790 106 810 144 q 738 42 771 68 q 660 3 704 17 q 567 -10 617 -10 z "},"t":{"ha":464,"x_min":14,"x_max":417,"o":"m 318 -10 q 238 8 272 -10 q 184 65 203 26 q 165 161 165 103 l 165 881 l 254 932 l 254 182 q 273 95 254 126 q 339 64 292 64 q 375 67 356 64 q 417 76 394 71 l 417 7 q 367 -6 392 -1 q 318 -10 342 -10 m 14 615 l 14 685 l 417 685 l 417 615 l 14 615 z "},"ŧ":{"ha":511,"x_min":38,"x_max":440,"o":"m 340 -10 q 260 8 296 -10 q 206 65 225 26 q 188 161 188 103 l 188 881 l 276 932 l 276 182 q 296 95 276 126 q 363 64 315 64 q 398 67 378 64 q 440 76 418 71 l 440 7 q 390 -6 415 -1 q 340 -10 365 -10 m 38 314 l 38 375 l 440 375 l 440 314 l 38 314 m 38 615 l 38 685 l 440 685 l 440 615 l 38 615 z "},"ť":{"ha":576,"x_min":14,"x_max":526,"o":"m 318 -10 q 238 8 272 -10 q 184 65 203 26 q 165 161 165 103 l 165 881 l 254 932 l 254 182 q 273 95 254 126 q 339 64 292 64 q 375 67 356 64 q 417 76 394 71 l 417 7 q 367 -6 392 -1 q 318 -10 342 -10 m 14 615 l 14 685 l 417 685 l 417 615 l 14 615 m 354 747 l 435 1033 l 526 1033 l 408 747 l 354 747 z "},"ţ":{"ha":440,"x_min":14,"x_max":417,"o":"m 318 -10 q 238 8 272 -10 q 184 65 203 26 q 165 161 165 103 l 165 881 l 254 932 l 254 182 q 273 95 254 126 q 339 64 292 64 q 375 67 356 64 q 417 76 394 71 l 417 7 q 367 -6 392 -1 q 318 -10 342 -10 m 14 615 l 14 685 l 417 685 l 417 615 l 14 615 m 242 -283 q 193 -277 218 -283 q 147 -258 168 -271 q 113 -229 126 -246 l 144 -194 q 188 -225 161 -214 q 240 -236 214 -236 q 300 -222 276 -236 q 324 -176 324 -207 q 308 -140 324 -153 q 267 -120 292 -126 q 214 -111 242 -114 q 163 -107 186 -108 l 246 8 l 303 8 l 239 -72 q 338 -103 297 -81 q 378 -174 378 -125 q 339 -255 378 -226 q 242 -283 300 -283 z "},"ț":{"ha":440,"x_min":14,"x_max":417,"o":"m 318 -10 q 238 8 272 -10 q 184 65 203 26 q 165 161 165 103 l 165 881 l 254 932 l 254 182 q 273 95 254 126 q 339 64 292 64 q 375 67 356 64 q 417 76 394 71 l 417 7 q 367 -6 392 -1 q 318 -10 342 -10 m 14 615 l 14 685 l 417 685 l 417 615 l 14 615 m 96 -283 l 221 -78 l 315 -78 l 153 -283 l 96 -283 z "},"u":{"ha":746,"x_min":99,"x_max":638,"o":"m 333 -10 q 208 20 261 -10 q 127 109 156 50 q 99 258 99 168 l 99 685 l 186 685 l 186 289 q 206 165 186 214 q 263 91 225 115 q 357 67 300 67 q 461 96 418 67 q 527 185 504 125 q 550 338 550 244 l 550 685 l 638 685 l 638 0 l 550 0 l 550 160 l 571 160 q 481 33 544 75 q 333 -10 418 -10 z "},"ú":{"ha":746,"x_min":99,"x_max":638,"o":"m 333 -10 q 208 20 261 -10 q 127 109 156 50 q 99 258 99 168 l 99 685 l 186 685 l 186 289 q 206 165 186 214 q 263 91 225 115 q 357 67 300 67 q 461 96 418 67 q 527 185 504 125 q 550 338 550 244 l 550 685 l 638 685 l 638 0 l 550 0 l 550 160 l 571 160 q 481 33 544 75 q 333 -10 418 -10 m 333 774 l 482 968 l 576 968 l 400 774 l 333 774 z "},"ŭ":{"ha":746,"x_min":99,"x_max":638,"o":"m 333 -10 q 208 20 261 -10 q 127 109 156 50 q 99 258 99 168 l 99 685 l 186 685 l 186 289 q 206 165 186 214 q 263 91 225 115 q 357 67 300 67 q 461 96 418 67 q 527 185 504 125 q 550 338 550 244 l 550 685 l 638 685 l 638 0 l 550 0 l 550 160 l 571 160 q 481 33 544 75 q 333 -10 418 -10 m 368 778 q 212 825 264 778 q 160 968 160 872 l 218 968 q 258 864 218 897 q 368 831 297 831 q 479 865 440 831 q 518 968 518 899 l 576 968 q 523 824 576 871 q 368 778 469 778 z "},"ǔ":{"ha":746,"x_min":99,"x_max":638,"o":"m 333 -10 q 208 20 261 -10 q 127 109 156 50 q 99 258 99 168 l 99 685 l 186 685 l 186 289 q 206 165 186 214 q 263 91 225 115 q 357 67 300 67 q 461 96 418 67 q 527 185 504 125 q 550 338 550 244 l 550 685 l 638 685 l 638 0 l 550 0 l 550 160 l 571 160 q 481 33 544 75 q 333 -10 418 -10 m 368 758 l 163 968 l 233 968 l 368 832 l 501 968 l 574 968 l 368 758 z "},"û":{"ha":746,"x_min":99,"x_max":638,"o":"m 333 -10 q 208 20 261 -10 q 127 109 156 50 q 99 258 99 168 l 99 685 l 186 685 l 186 289 q 206 165 186 214 q 263 91 225 115 q 357 67 300 67 q 461 96 418 67 q 527 185 504 125 q 550 338 550 244 l 550 685 l 638 685 l 638 0 l 550 0 l 550 160 l 571 160 q 481 33 544 75 q 333 -10 418 -10 m 161 764 l 367 981 l 572 764 l 499 764 l 367 903 l 235 764 l 161 764 z "},"ü":{"ha":746,"x_min":99,"x_max":638,"o":"m 333 -10 q 208 20 261 -10 q 127 109 156 50 q 99 258 99 168 l 99 685 l 186 685 l 186 289 q 206 165 186 214 q 263 91 225 115 q 357 67 300 67 q 461 96 418 67 q 527 185 504 125 q 550 338 550 244 l 550 685 l 638 685 l 638 0 l 550 0 l 550 160 l 571 160 q 481 33 544 75 q 333 -10 418 -10 m 440 818 l 440 968 l 544 968 l 544 818 l 440 818 m 192 818 l 192 968 l 296 968 l 296 818 l 192 818 z "},"ụ":{"ha":746,"x_min":99,"x_max":638,"o":"m 333 -10 q 208 20 261 -10 q 127 109 156 50 q 99 258 99 168 l 99 685 l 186 685 l 186 289 q 206 165 186 214 q 263 91 225 115 q 357 67 300 67 q 461 96 418 67 q 527 185 504 125 q 550 338 550 244 l 550 685 l 638 685 l 638 0 l 550 0 l 550 160 l 571 160 q 481 33 544 75 q 333 -10 418 -10 m 324 -242 l 324 -101 l 428 -101 l 428 -242 l 324 -242 z "},"ù":{"ha":746,"x_min":99,"x_max":638,"o":"m 333 -10 q 208 20 261 -10 q 127 109 156 50 q 99 258 99 168 l 99 685 l 186 685 l 186 289 q 206 165 186 214 q 263 91 225 115 q 357 67 300 67 q 461 96 418 67 q 527 185 504 125 q 550 338 550 244 l 550 685 l 638 685 l 638 0 l 550 0 l 550 160 l 571 160 q 481 33 544 75 q 333 -10 418 -10 m 333 774 l 164 968 l 257 968 l 401 774 l 333 774 z "},"ủ":{"ha":746,"x_min":99,"x_max":638,"o":"m 333 -10 q 208 20 261 -10 q 127 109 156 50 q 99 258 99 168 l 99 685 l 186 685 l 186 289 q 206 165 186 214 q 263 91 225 115 q 357 67 300 67 q 461 96 418 67 q 527 185 504 125 q 550 338 550 244 l 550 685 l 638 685 l 638 0 l 550 0 l 550 160 l 571 160 q 481 33 544 75 q 333 -10 418 -10 m 346 731 l 339 767 q 415 788 379 775 q 450 839 450 801 q 408 899 450 882 q 315 917 367 917 l 294 917 l 294 969 l 315 969 q 458 937 401 969 q 515 846 515 904 q 489 781 515 804 q 424 748 463 758 q 346 731 385 738 z "},"ư":{"ha":746,"x_min":99,"x_max":765,"o":"m 333 -10 q 208 20 261 -10 q 127 109 156 50 q 99 258 99 168 l 99 685 l 186 685 l 186 289 q 206 165 186 214 q 263 91 225 115 q 357 67 300 67 q 461 96 418 67 q 527 185 504 125 q 550 338 550 244 l 550 685 l 638 685 l 638 0 l 550 0 l 550 160 l 571 160 q 481 33 544 75 q 333 -10 418 -10 m 576 625 l 576 685 q 673 724 643 685 q 703 840 703 764 l 703 903 l 765 903 l 765 835 q 745 724 765 771 q 684 651 725 678 q 576 625 643 625 z "},"ứ":{"ha":746,"x_min":99,"x_max":765,"o":"m 333 -10 q 208 20 261 -10 q 127 109 156 50 q 99 258 99 168 l 99 685 l 186 685 l 186 289 q 206 165 186 214 q 263 91 225 115 q 357 67 300 67 q 461 96 418 67 q 527 185 504 125 q 550 338 550 244 l 550 685 l 638 685 l 638 0 l 550 0 l 550 160 l 571 160 q 481 33 544 75 q 333 -10 418 -10 m 576 625 l 576 685 q 673 724 643 685 q 703 840 703 764 l 703 903 l 765 903 l 765 835 q 745 724 765 771 q 684 651 725 678 q 576 625 643 625 m 333 774 l 482 968 l 576 968 l 400 774 l 333 774 z "},"ự":{"ha":746,"x_min":99,"x_max":765,"o":"m 333 -10 q 208 20 261 -10 q 127 109 156 50 q 99 258 99 168 l 99 685 l 186 685 l 186 289 q 206 165 186 214 q 263 91 225 115 q 357 67 300 67 q 461 96 418 67 q 527 185 504 125 q 550 338 550 244 l 550 685 l 638 685 l 638 0 l 550 0 l 550 160 l 571 160 q 481 33 544 75 q 333 -10 418 -10 m 576 625 l 576 685 q 673 724 643 685 q 703 840 703 764 l 703 903 l 765 903 l 765 835 q 745 724 765 771 q 684 651 725 678 q 576 625 643 625 m 324 -242 l 324 -101 l 428 -101 l 428 -242 l 324 -242 z "},"ừ":{"ha":746,"x_min":99,"x_max":765,"o":"m 333 -10 q 208 20 261 -10 q 127 109 156 50 q 99 258 99 168 l 99 685 l 186 685 l 186 289 q 206 165 186 214 q 263 91 225 115 q 357 67 300 67 q 461 96 418 67 q 527 185 504 125 q 550 338 550 244 l 550 685 l 638 685 l 638 0 l 550 0 l 550 160 l 571 160 q 481 33 544 75 q 333 -10 418 -10 m 576 625 l 576 685 q 673 724 643 685 q 703 840 703 764 l 703 903 l 765 903 l 765 835 q 745 724 765 771 q 684 651 725 678 q 576 625 643 625 m 333 774 l 164 968 l 257 968 l 401 774 l 333 774 z "},"ử":{"ha":746,"x_min":99,"x_max":765,"o":"m 333 -10 q 208 20 261 -10 q 127 109 156 50 q 99 258 99 168 l 99 685 l 186 685 l 186 289 q 206 165 186 214 q 263 91 225 115 q 357 67 300 67 q 461 96 418 67 q 527 185 504 125 q 550 338 550 244 l 550 685 l 638 685 l 638 0 l 550 0 l 550 160 l 571 160 q 481 33 544 75 q 333 -10 418 -10 m 576 625 l 576 685 q 673 724 643 685 q 703 840 703 764 l 703 903 l 765 903 l 765 835 q 745 724 765 771 q 684 651 725 678 q 576 625 643 625 m 346 731 l 339 767 q 415 788 379 775 q 450 839 450 801 q 408 899 450 882 q 315 917 367 917 l 294 917 l 294 969 l 315 969 q 458 937 401 969 q 515 846 515 904 q 489 781 515 804 q 424 748 463 758 q 346 731 385 738 z "},"ữ":{"ha":746,"x_min":99,"x_max":765,"o":"m 333 -10 q 208 20 261 -10 q 127 109 156 50 q 99 258 99 168 l 99 685 l 186 685 l 186 289 q 206 165 186 214 q 263 91 225 115 q 357 67 300 67 q 461 96 418 67 q 527 185 504 125 q 550 338 550 244 l 550 685 l 638 685 l 638 0 l 550 0 l 550 160 l 571 160 q 481 33 544 75 q 333 -10 418 -10 m 576 625 l 576 685 q 673 724 643 685 q 703 840 703 764 l 703 903 l 765 903 l 765 835 q 745 724 765 771 q 684 651 725 678 q 576 625 643 625 m 463 796 q 394 814 419 796 q 352 856 369 832 q 317 899 335 881 q 271 917 299 917 q 219 888 239 917 q 200 807 200 858 l 147 807 q 181 930 147 886 q 274 974 215 974 q 337 955 313 974 q 378 913 361 936 q 415 870 396 889 q 464 851 433 851 q 510 883 492 851 q 529 968 529 915 l 585 968 q 551 842 585 889 q 463 796 518 796 z "},"ű":{"ha":746,"x_min":99,"x_max":693,"o":"m 333 -10 q 208 20 261 -10 q 127 109 156 50 q 99 258 99 168 l 99 685 l 186 685 l 186 289 q 206 165 186 214 q 263 91 225 115 q 357 67 300 67 q 461 96 418 67 q 527 185 504 125 q 550 338 550 244 l 550 685 l 638 685 l 638 0 l 550 0 l 550 160 l 571 160 q 481 33 544 75 q 333 -10 418 -10 m 450 760 l 600 968 l 693 968 l 518 760 l 450 760 m 218 760 l 367 968 l 447 968 l 285 760 l 218 760 z "},"ū":{"ha":746,"x_min":99,"x_max":638,"o":"m 333 -10 q 208 20 261 -10 q 127 109 156 50 q 99 258 99 168 l 99 685 l 186 685 l 186 289 q 206 165 186 214 q 263 91 225 115 q 357 67 300 67 q 461 96 418 67 q 527 185 504 125 q 550 338 550 244 l 550 685 l 638 685 l 638 0 l 550 0 l 550 160 l 571 160 q 481 33 544 75 q 333 -10 418 -10 m 181 838 l 181 892 l 554 892 l 554 838 l 181 838 z "},"ų":{"ha":746,"x_min":99,"x_max":685,"o":"m 333 -10 q 208 20 261 -10 q 127 109 156 50 q 99 258 99 168 l 99 685 l 186 685 l 186 289 q 206 165 186 214 q 263 91 225 115 q 357 67 300 67 q 461 96 418 67 q 527 185 504 125 q 550 338 550 244 l 550 685 l 638 685 l 638 0 l 550 0 l 550 160 l 571 160 q 481 33 544 75 q 333 -10 418 -10 m 557 -283 q 475 -256 510 -283 q 440 -175 440 -228 q 459 -102 440 -136 q 506 -41 478 -68 q 565 4 535 -14 l 636 0 q 586 -32 611 -14 q 540 -72 561 -50 q 507 -117 519 -93 q 494 -168 494 -142 q 513 -214 494 -199 q 557 -229 531 -229 q 606 -218 579 -229 q 656 -186 632 -207 l 685 -229 q 622 -270 656 -257 q 557 -283 589 -283 z "},"ů":{"ha":746,"x_min":99,"x_max":638,"o":"m 333 -10 q 208 20 261 -10 q 127 109 156 50 q 99 258 99 168 l 99 685 l 186 685 l 186 289 q 206 165 186 214 q 263 91 225 115 q 357 67 300 67 q 461 96 418 67 q 527 185 504 125 q 550 338 550 244 l 550 685 l 638 685 l 638 0 l 550 0 l 550 160 l 571 160 q 481 33 544 75 q 333 -10 418 -10 m 368 751 q 301 769 331 751 q 253 817 271 788 q 236 883 236 847 q 253 949 236 919 q 301 997 271 979 q 368 1015 332 1015 q 434 997 404 1015 q 482 949 464 979 q 500 883 500 919 q 482 817 500 847 q 434 769 464 786 q 368 751 404 751 m 368 801 q 425 825 401 801 q 449 883 449 849 q 426 941 449 918 q 368 964 403 964 q 309 940 332 964 q 286 883 286 917 q 310 825 286 849 q 368 801 333 801 z "},"ũ":{"ha":746,"x_min":99,"x_max":638,"o":"m 333 -10 q 208 20 261 -10 q 127 109 156 50 q 99 258 99 168 l 99 685 l 186 685 l 186 289 q 206 165 186 214 q 263 91 225 115 q 357 67 300 67 q 461 96 418 67 q 527 185 504 125 q 550 338 550 244 l 550 685 l 638 685 l 638 0 l 550 0 l 550 160 l 571 160 q 481 33 544 75 q 333 -10 418 -10 m 463 796 q 394 814 419 796 q 352 856 369 832 q 317 899 335 881 q 271 917 299 917 q 219 888 239 917 q 200 807 200 858 l 147 807 q 181 930 147 886 q 274 974 215 974 q 337 955 313 974 q 378 913 361 936 q 415 870 396 889 q 464 851 433 851 q 510 883 492 851 q 529 968 529 915 l 585 968 q 551 842 585 889 q 463 796 518 796 z "},"v":{"ha":717,"x_min":40,"x_max":675,"o":"m 321 0 l 40 685 l 136 685 l 357 111 l 579 685 l 675 685 l 396 0 l 321 0 z "},"w":{"ha":1038,"x_min":47,"x_max":990,"o":"m 246 0 l 47 685 l 140 685 l 293 131 l 478 685 l 558 685 l 744 133 l 897 685 l 990 685 l 790 0 l 707 0 l 519 564 l 331 0 l 246 0 z "},"ẃ":{"ha":1038,"x_min":47,"x_max":990,"o":"m 246 0 l 47 685 l 140 685 l 293 131 l 478 685 l 558 685 l 744 133 l 897 685 l 990 685 l 790 0 l 707 0 l 519 564 l 331 0 l 246 0 m 485 774 l 633 968 l 728 968 l 551 774 l 485 774 z "},"ŵ":{"ha":1038,"x_min":47,"x_max":990,"o":"m 246 0 l 47 685 l 140 685 l 293 131 l 478 685 l 558 685 l 744 133 l 897 685 l 990 685 l 790 0 l 707 0 l 519 564 l 331 0 l 246 0 m 313 764 l 518 981 l 724 764 l 650 764 l 518 903 l 386 764 l 313 764 z "},"ẅ":{"ha":1038,"x_min":47,"x_max":990,"o":"m 246 0 l 47 685 l 140 685 l 293 131 l 478 685 l 558 685 l 744 133 l 897 685 l 990 685 l 790 0 l 707 0 l 519 564 l 331 0 l 246 0 m 592 818 l 592 968 l 696 968 l 696 818 l 592 818 m 343 818 l 343 968 l 447 968 l 447 818 l 343 818 z "},"ẁ":{"ha":1038,"x_min":47,"x_max":990,"o":"m 246 0 l 47 685 l 140 685 l 293 131 l 478 685 l 558 685 l 744 133 l 897 685 l 990 685 l 790 0 l 707 0 l 519 564 l 331 0 l 246 0 m 485 774 l 315 968 l 408 968 l 553 774 l 485 774 z "},"x":{"ha":710,"x_min":44,"x_max":665,"o":"m 44 0 l 297 343 l 44 685 l 153 685 l 356 404 l 558 685 l 665 685 l 411 343 l 665 0 l 557 0 l 356 282 l 151 0 l 44 0 z "},"y":{"ha":717,"x_min":40,"x_max":675,"o":"m 185 -282 l 311 22 l 40 685 l 136 685 l 357 111 l 579 685 l 675 685 l 281 -282 l 185 -282 z "},"ý":{"ha":717,"x_min":40,"x_max":675,"o":"m 185 -282 l 311 22 l 40 685 l 136 685 l 357 111 l 579 685 l 675 685 l 281 -282 l 185 -282 m 325 774 l 474 968 l 568 968 l 392 774 l 325 774 z "},"ŷ":{"ha":717,"x_min":40,"x_max":675,"o":"m 185 -282 l 311 22 l 40 685 l 136 685 l 357 111 l 579 685 l 675 685 l 281 -282 l 185 -282 m 153 764 l 358 981 l 564 764 l 490 764 l 358 903 l 226 764 l 153 764 z "},"ÿ":{"ha":717,"x_min":40,"x_max":675,"o":"m 185 -282 l 311 22 l 40 685 l 136 685 l 357 111 l 579 685 l 675 685 l 281 -282 l 185 -282 m 432 818 l 432 968 l 536 968 l 536 818 l 432 818 m 183 818 l 183 968 l 288 968 l 288 818 l 183 818 z "},"ỵ":{"ha":717,"x_min":40,"x_max":675,"o":"m 185 -282 l 311 22 l 40 685 l 136 685 l 357 111 l 579 685 l 675 685 l 281 -282 l 185 -282 m 522 -283 l 522 -143 l 626 -143 l 626 -283 l 522 -283 z "},"ỳ":{"ha":717,"x_min":40,"x_max":675,"o":"m 185 -282 l 311 22 l 40 685 l 136 685 l 357 111 l 579 685 l 675 685 l 281 -282 l 185 -282 m 325 774 l 156 968 l 249 968 l 393 774 l 325 774 z "},"ỷ":{"ha":717,"x_min":40,"x_max":675,"o":"m 185 -282 l 311 22 l 40 685 l 136 685 l 357 111 l 579 685 l 675 685 l 281 -282 l 185 -282 m 338 731 l 331 767 q 406 788 371 775 q 442 839 442 801 q 400 899 442 882 q 307 917 358 917 l 286 917 l 286 969 l 307 969 q 450 937 393 969 q 507 846 507 904 q 481 781 507 804 q 415 748 454 758 q 338 731 376 738 z "},"ȳ":{"ha":717,"x_min":40,"x_max":675,"o":"m 185 -282 l 311 22 l 40 685 l 136 685 l 357 111 l 579 685 l 675 685 l 281 -282 l 185 -282 m 172 838 l 172 892 l 546 892 l 546 838 l 172 838 z "},"ỹ":{"ha":717,"x_min":40,"x_max":675,"o":"m 185 -282 l 311 22 l 40 685 l 136 685 l 357 111 l 579 685 l 675 685 l 281 -282 l 185 -282 m 454 796 q 386 814 411 796 q 344 856 361 832 q 308 899 326 881 q 263 917 290 917 q 211 888 231 917 q 192 807 192 858 l 139 807 q 173 930 139 886 q 265 974 207 974 q 328 955 304 974 q 370 913 353 936 q 406 870 388 889 q 456 851 425 851 q 502 883 483 851 q 521 968 521 915 l 576 968 q 543 842 576 889 q 454 796 510 796 z "},"z":{"ha":657,"x_min":54,"x_max":599,"o":"m 54 0 l 54 65 l 514 631 l 518 614 l 76 614 l 76 685 l 599 685 l 599 614 l 142 47 l 139 72 l 594 72 l 594 0 l 54 0 z "},"ź":{"ha":657,"x_min":54,"x_max":599,"o":"m 54 0 l 54 65 l 514 631 l 518 614 l 76 614 l 76 685 l 599 685 l 599 614 l 142 47 l 139 72 l 594 72 l 594 0 l 54 0 m 297 774 l 446 968 l 540 968 l 364 774 l 297 774 z "},"ž":{"ha":657,"x_min":54,"x_max":599,"o":"m 54 0 l 54 65 l 514 631 l 518 614 l 76 614 l 76 685 l 599 685 l 599 614 l 142 47 l 139 72 l 594 72 l 594 0 l 54 0 m 331 758 l 125 968 l 196 968 l 331 832 l 464 968 l 536 968 l 331 758 z "},"ż":{"ha":657,"x_min":54,"x_max":599,"o":"m 54 0 l 54 65 l 514 631 l 518 614 l 76 614 l 76 685 l 599 685 l 599 614 l 142 47 l 139 72 l 594 72 l 594 0 l 54 0 m 278 818 l 278 968 l 382 968 l 382 818 l 278 818 z "},"ﬁ":{"ha":679,"x_min":14,"x_max":581,"o":"m 135 0 l 135 615 l 14 615 l 14 685 l 135 685 l 135 742 q 167 876 135 824 q 254 953 200 928 q 375 978 308 978 q 488 962 439 978 q 581 915 538 946 l 538 853 q 465 892 504 879 q 378 906 425 906 q 263 867 304 906 q 222 735 222 828 l 222 685 l 524 685 l 524 615 l 222 615 l 222 0 l 135 0 m 493 0 l 493 685 l 581 685 l 581 0 l 493 0 z "},"ﬂ":{"ha":728,"x_min":14,"x_max":694,"o":"m 600 -10 q 510 27 544 -10 q 475 144 475 64 l 475 871 q 422 897 449 889 q 364 906 394 906 q 255 867 293 906 q 217 740 217 828 l 217 685 l 363 685 l 363 615 l 217 615 l 217 0 l 129 0 l 129 615 l 14 615 l 14 685 l 129 685 l 129 742 q 160 875 129 824 q 244 952 192 926 q 358 978 296 978 q 469 961 421 978 q 563 911 517 944 l 563 157 q 629 69 563 69 q 658 73 642 69 q 694 83 674 76 l 694 7 q 643 -6 667 -1 q 600 -10 619 -10 z "},"ª":{"ha":685,"x_min":128,"x_max":525,"o":"m 294 482 q 174 522 221 482 q 128 628 128 561 q 181 735 128 700 q 314 769 233 769 l 472 769 q 472 783 472 774 q 471 800 472 793 q 434 896 468 863 q 335 929 400 929 q 247 908 282 929 q 186 849 213 886 l 144 876 q 228 955 183 932 q 333 978 274 978 q 475 927 425 978 q 525 786 525 876 l 525 490 l 476 490 l 475 588 q 294 482 407 482 m 306 532 q 398 559 357 532 q 464 638 439 586 q 469 678 467 658 q 472 719 471 699 l 317 719 q 219 695 254 719 q 185 625 185 671 q 217 558 185 583 q 306 532 250 532 z "},"º":{"ha":724,"x_min":128,"x_max":594,"o":"m 361 492 q 242 524 294 492 q 158 613 189 557 q 128 735 128 668 q 158 858 128 803 q 242 945 189 913 q 361 978 294 978 q 481 945 428 978 q 564 858 533 913 q 594 735 594 803 q 564 611 594 667 q 481 524 533 556 q 361 492 429 492 m 361 543 q 454 568 415 543 q 515 638 493 593 q 536 735 536 682 q 515 833 536 789 q 454 902 493 876 q 361 928 415 928 q 269 902 308 928 q 208 833 229 876 q 188 735 188 789 q 208 638 188 682 q 269 568 229 593 q 361 543 308 543 z "},"Δ":{"ha":957,"x_min":82,"x_max":875,"o":"m 82 0 l 439 968 l 517 968 l 875 0 l 82 0 m 213 83 l 744 83 l 479 842 l 213 83 z "},"Ω":{"ha":1115,"x_min":47,"x_max":922,"o":"m 58 0 l 58 86 l 306 86 l 322 106 q 169 221 231 156 q 78 367 108 286 q 47 543 47 447 q 78 721 47 640 q 167 860 110 801 q 304 950 224 918 q 483 982 385 982 q 663 949 582 982 q 801 858 743 917 q 891 719 860 800 q 922 543 922 639 q 890 365 922 446 q 797 220 858 285 q 646 106 736 156 l 664 86 l 911 86 l 911 0 l 569 0 l 569 115 q 763 292 699 189 q 826 531 826 394 q 785 723 826 642 q 669 849 744 804 q 485 894 593 894 q 299 849 376 894 q 182 722 222 804 q 142 529 142 640 q 208 286 142 388 q 401 115 275 185 l 401 0 l 58 0 z "},"μ":{"ha":746,"x_min":99,"x_max":638,"o":"m 99 -240 l 99 685 l 186 685 l 186 271 q 204 164 186 210 q 260 92 222 118 q 361 67 299 67 q 469 101 426 67 q 531 194 511 135 q 550 328 550 253 l 550 685 l 638 685 l 638 0 l 550 0 l 550 121 q 466 24 522 58 q 336 -10 410 -10 q 242 13 281 -10 q 186 82 204 36 l 186 -240 l 99 -240 z "},"π":{"ha":788,"x_min":67,"x_max":761,"o":"m 683 -10 q 557 39 597 -10 q 517 190 517 88 l 517 611 l 242 611 l 242 0 l 154 0 l 154 611 l 67 611 l 67 685 l 728 685 l 728 611 l 603 611 l 603 217 q 626 105 603 139 q 701 71 650 71 q 724 74 713 71 q 744 81 735 76 l 761 10 q 722 -6 740 -1 q 683 -10 703 -10 z "},"⁄":{"ha":138,"x_min":-235,"x_max":372,"o":"m -235 0 l 307 968 l 372 968 l -169 0 l -235 0 z "},"½":{"ha":996,"x_min":28,"x_max":950,"o":"m 181 388 l 181 857 l 200 825 l 28 825 l 28 875 l 131 875 q 167 885 154 875 q 181 921 181 896 l 181 968 l 243 968 l 243 388 l 181 388 m 147 0 l 689 968 l 754 968 l 213 0 l 147 0 m 567 0 l 567 53 q 655 122 604 83 q 753 205 706 160 q 833 301 801 250 q 865 408 865 353 q 835 493 865 461 q 751 525 806 525 q 683 506 710 525 q 642 456 656 488 q 628 383 629 424 l 567 388 q 588 487 567 442 q 651 559 610 532 q 754 586 693 586 q 879 539 831 586 q 928 411 928 492 q 901 298 928 351 q 828 198 874 244 q 727 111 782 151 q 617 36 672 71 l 632 58 l 950 58 l 950 0 l 567 0 z "},"¼":{"ha":944,"x_min":28,"x_max":908,"o":"m 181 388 l 181 857 l 200 825 l 28 825 l 28 875 l 131 875 q 167 885 154 875 q 181 921 181 896 l 181 968 l 243 968 l 243 388 l 181 388 m 147 0 l 689 968 l 754 968 l 213 0 l 147 0 m 751 0 l 751 139 l 471 139 l 471 189 l 756 581 l 814 581 l 814 197 l 908 197 l 908 139 l 814 139 l 814 0 l 751 0 m 524 175 l 517 197 l 751 197 l 751 510 l 758 506 l 524 175 z "},"¾":{"ha":1068,"x_min":44,"x_max":1031,"o":"m 250 381 q 101 431 158 381 q 44 563 44 482 l 107 565 q 147 475 107 508 q 251 442 188 442 q 355 473 317 442 q 393 557 393 504 q 345 643 393 618 q 217 668 297 668 l 217 718 q 285 726 253 718 q 340 757 318 735 q 361 818 361 779 q 330 888 361 861 q 249 914 299 914 q 167 886 199 914 q 133 810 135 858 l 72 813 q 123 929 72 883 q 251 975 174 975 q 374 933 325 975 q 424 824 424 890 q 394 743 424 774 q 318 700 364 713 q 385 676 354 693 q 435 630 415 658 q 454 557 454 601 q 398 430 454 479 q 250 381 342 381 m 269 0 l 811 968 l 876 968 l 335 0 l 269 0 m 874 0 l 874 139 l 593 139 l 593 189 l 878 581 l 936 581 l 936 197 l 1031 197 l 1031 139 l 936 139 l 936 0 l 874 0 m 646 175 l 639 197 l 874 197 l 874 510 l 881 506 l 646 175 z "},"⅛":{"ha":1017,"x_min":28,"x_max":965,"o":"m 181 388 l 181 857 l 200 825 l 28 825 l 28 875 l 131 875 q 167 885 154 875 q 181 921 181 896 l 181 968 l 243 968 l 243 388 l 181 388 m 147 0 l 689 968 l 754 968 l 213 0 l 147 0 m 768 -7 q 673 13 718 -7 q 599 71 628 32 q 569 167 569 110 q 598 259 569 219 q 675 315 626 299 q 622 361 643 331 q 601 436 601 392 q 626 517 601 483 q 689 569 650 551 q 768 588 728 588 q 851 568 814 588 q 912 514 889 549 q 935 432 935 479 q 915 361 935 392 q 861 315 896 331 q 938 260 910 299 q 965 167 965 221 q 938 71 965 110 q 864 13 910 32 q 768 -7 818 -7 m 768 53 q 835 67 804 53 q 884 107 865 81 q 903 172 903 133 q 865 258 903 226 q 768 290 826 290 q 670 258 708 290 q 632 172 632 226 q 651 107 632 133 q 702 67 671 81 q 768 53 733 53 m 769 333 q 844 360 814 333 q 874 428 874 386 q 844 501 874 474 q 768 528 815 528 q 696 503 728 528 q 664 432 664 478 q 694 360 664 388 q 769 333 724 333 z "},"⅜":{"ha":1140,"x_min":44,"x_max":1089,"o":"m 250 381 q 101 431 158 381 q 44 563 44 482 l 107 565 q 147 475 107 508 q 251 442 188 442 q 355 473 317 442 q 393 557 393 504 q 345 643 393 618 q 217 668 297 668 l 217 718 q 285 726 253 718 q 340 757 318 735 q 361 818 361 779 q 330 888 361 861 q 249 914 299 914 q 167 886 199 914 q 133 810 135 858 l 72 813 q 123 929 72 883 q 251 975 174 975 q 374 933 325 975 q 424 824 424 890 q 394 743 424 774 q 318 700 364 713 q 385 676 354 693 q 435 630 415 658 q 454 557 454 601 q 398 430 454 479 q 250 381 342 381 m 269 0 l 811 968 l 876 968 l 335 0 l 269 0 m 890 -7 q 795 13 840 -7 q 721 71 750 32 q 692 167 692 110 q 720 259 692 219 q 797 315 749 299 q 744 361 765 331 q 724 436 724 392 q 748 517 724 483 q 811 569 772 551 q 890 588 850 588 q 974 568 936 588 q 1034 514 1011 549 q 1057 432 1057 479 q 1038 361 1057 392 q 983 315 1018 331 q 1060 260 1032 299 q 1088 167 1088 221 q 1060 71 1088 110 q 986 13 1032 32 q 890 -7 940 -7 m 890 53 q 957 67 926 53 q 1006 107 988 81 q 1025 172 1025 133 q 987 258 1025 226 q 890 290 949 290 q 792 258 831 290 q 754 172 754 226 q 774 107 754 133 q 824 67 793 81 q 890 53 856 53 m 892 333 q 966 360 936 333 q 996 428 996 386 q 967 501 996 474 q 890 528 938 528 q 818 503 850 528 q 786 432 786 478 q 816 360 786 388 q 892 333 846 333 z "},"⅝":{"ha":1133,"x_min":49,"x_max":1082,"o":"m 247 381 q 157 401 199 381 q 87 460 115 422 q 49 549 58 497 l 111 560 q 156 476 119 510 q 247 442 192 442 q 321 462 290 442 q 368 515 351 482 q 385 585 385 547 q 349 679 385 640 q 253 718 314 718 q 184 701 217 718 q 129 650 151 685 l 67 668 l 119 968 l 424 968 l 424 910 l 143 910 l 176 936 l 136 704 l 118 707 q 185 761 149 744 q 261 778 221 778 q 359 751 317 778 q 426 681 401 725 q 450 585 450 638 q 423 483 450 529 q 351 409 396 438 q 247 381 306 381 m 264 0 l 806 968 l 871 968 l 329 0 l 264 0 m 885 -7 q 790 13 835 -7 q 715 71 744 32 q 686 167 686 110 q 715 259 686 219 q 792 315 743 299 q 739 361 760 331 q 718 436 718 392 q 742 517 718 483 q 806 569 767 551 q 885 588 844 588 q 968 568 931 588 q 1028 514 1006 549 q 1051 432 1051 479 q 1032 361 1051 392 q 978 315 1013 331 q 1054 260 1026 299 q 1082 167 1082 221 q 1054 71 1082 110 q 981 13 1026 32 q 885 -7 935 -7 m 885 53 q 951 67 921 53 q 1001 107 982 81 q 1019 172 1019 133 q 981 258 1019 226 q 885 290 943 290 q 787 258 825 290 q 749 172 749 226 q 768 107 749 133 q 819 67 788 81 q 885 53 850 53 m 886 333 q 960 360 931 333 q 990 428 990 386 q 961 501 990 474 q 885 528 932 528 q 813 503 844 528 q 781 432 781 478 q 810 360 781 388 q 886 333 840 333 z "},"⅞":{"ha":1056,"x_min":29,"x_max":1004,"o":"m 96 388 l 382 931 l 399 910 l 29 910 l 29 968 l 444 968 l 444 919 l 165 388 l 96 388 m 185 0 l 726 968 l 792 968 l 250 0 l 185 0 m 806 -7 q 710 13 756 -7 q 636 71 665 32 q 607 167 607 110 q 635 259 607 219 q 713 315 664 299 q 660 361 681 331 q 639 436 639 392 q 663 517 639 483 q 726 569 688 551 q 806 588 765 588 q 889 568 851 588 q 949 514 926 549 q 972 432 972 479 q 953 361 972 392 q 899 315 933 331 q 975 260 947 299 q 1003 167 1003 221 q 975 71 1003 110 q 901 13 947 32 q 806 -7 856 -7 m 806 53 q 872 67 842 53 q 922 107 903 81 q 940 172 940 133 q 902 258 940 226 q 806 290 864 290 q 708 258 746 290 q 669 172 669 226 q 689 107 669 133 q 740 67 708 81 q 806 53 771 53 m 807 333 q 881 360 851 333 q 911 428 911 386 q 882 501 911 474 q 806 528 853 528 q 733 503 765 528 q 701 432 701 478 q 731 360 701 388 q 807 333 761 333 z "},"¹":{"ha":356,"x_min":50,"x_max":244,"o":"m 194 678 l 194 1146 l 211 1119 l 50 1119 l 50 1160 l 149 1160 q 196 1203 196 1160 l 196 1253 l 244 1253 l 244 678 l 194 678 z "},"²":{"ha":569,"x_min":79,"x_max":492,"o":"m 79 678 l 79 725 q 188 797 131 758 q 296 882 246 836 q 378 980 346 928 q 410 1090 410 1032 q 379 1178 410 1144 q 288 1213 349 1213 q 217 1194 247 1213 q 172 1141 188 1175 q 156 1060 157 1107 l 107 1064 q 128 1163 107 1119 q 189 1233 149 1207 q 288 1258 229 1258 q 413 1214 365 1258 q 460 1090 460 1169 q 433 979 460 1032 q 360 881 406 926 q 261 796 315 835 q 154 725 207 757 l 143 724 l 492 724 l 492 678 l 79 678 z "},"³":{"ha":565,"x_min":78,"x_max":479,"o":"m 279 669 q 176 690 222 669 q 104 751 131 711 q 78 846 78 790 l 126 850 q 170 751 126 786 q 279 717 214 717 q 386 749 342 717 q 431 842 431 782 q 401 917 431 892 q 329 952 371 943 q 250 960 288 961 l 250 997 q 324 1007 290 997 q 378 1039 358 1017 q 399 1100 399 1061 q 363 1179 399 1150 q 279 1208 328 1208 q 190 1178 225 1208 q 153 1096 154 1147 l 104 1099 q 155 1214 104 1172 q 276 1256 206 1256 q 363 1238 324 1256 q 425 1186 401 1219 q 449 1108 449 1153 q 433 1047 449 1072 q 392 1007 417 1022 q 342 983 368 992 q 408 960 378 978 q 459 912 439 942 q 479 839 479 882 q 452 748 479 786 q 380 690 425 710 q 279 669 335 669 z "},"⁴":{"ha":558,"x_min":60,"x_max":496,"o":"m 346 672 l 346 811 l 60 811 l 60 864 l 342 1253 l 401 1253 l 401 864 l 496 864 l 496 811 l 401 811 l 401 672 l 346 672 m 107 847 l 101 864 l 346 864 l 346 1190 l 353 1189 l 107 847 z "}," ":{"ha":361,"x_min":0,"x_max":0,"o":""}," ":{"ha":361,"x_min":0,"x_max":0,"o":""},"·":{"ha":463,"x_min":92,"x_max":375,"o":"m 92 201 l 92 485 l 375 485 l 375 201 l 92 201 z "},";":{"ha":333,"x_min":17,"x_max":263,"o":"m 17 -217 l 165 179 l 263 179 l 78 -217 l 17 -217 m 140 504 l 140 654 l 246 654 l 246 504 l 140 504 z "},".":{"ha":333,"x_min":114,"x_max":219,"o":"m 114 0 l 114 150 l 219 150 l 219 0 l 114 0 z "},",":{"ha":333,"x_min":38,"x_max":283,"o":"m 38 -217 l 186 197 l 283 197 l 99 -217 l 38 -217 z "},":":{"ha":333,"x_min":114,"x_max":219,"o":"m 114 504 l 114 654 l 219 654 l 219 504 l 114 504 m 114 0 l 114 150 l 219 150 l 219 0 l 114 0 z "},";":{"ha":333,"x_min":17,"x_max":263,"o":"m 17 -217 l 165 179 l 263 179 l 78 -217 l 17 -217 m 140 504 l 140 654 l 246 654 l 246 504 l 140 504 z "},"…":{"ha":919,"x_min":114,"x_max":806,"o":"m 711 0 l 711 150 l 806 150 l 806 0 l 711 0 m 114 0 l 114 150 l 207 150 l 207 0 l 114 0 m 413 0 l 413 150 l 507 150 l 507 0 l 413 0 z "},"!":{"ha":303,"x_min":99,"x_max":204,"o":"m 118 272 l 108 968 l 196 968 l 186 272 l 118 272 m 99 0 l 99 150 l 204 150 l 204 0 l 99 0 z "},"¡":{"ha":303,"x_min":99,"x_max":204,"o":"m 185 413 l 194 -283 l 106 -283 l 117 413 l 185 413 m 204 685 l 204 535 l 99 535 l 99 685 l 204 685 z "},"?":{"ha":700,"x_min":58,"x_max":631,"o":"m 307 269 l 307 363 q 325 451 307 417 q 371 511 343 486 q 430 557 399 536 q 489 600 461 578 q 535 654 517 622 q 553 732 553 686 q 499 860 553 815 q 346 904 444 904 q 194 853 250 904 q 138 710 138 803 l 58 710 q 97 856 60 796 q 199 947 133 915 q 347 978 264 978 q 494 951 431 978 q 594 869 558 924 q 631 731 631 814 q 613 632 631 672 q 566 565 594 592 q 506 519 538 539 q 447 478 475 499 q 401 428 419 457 q 383 357 383 400 l 383 269 l 307 269 m 294 0 l 294 150 l 399 150 l 399 0 l 294 0 z "},"¿":{"ha":432,"x_min":25,"x_max":596,"o":"m 349 415 l 349 322 q 331 233 349 268 q 285 174 313 199 q 225 128 257 149 q 165 85 193 107 q 120 31 138 63 q 103 -47 103 0 q 157 -175 103 -131 q 310 -219 211 -219 q 462 -169 406 -219 q 518 -25 518 -118 l 596 -25 q 559 -170 596 -110 q 458 -262 522 -231 q 308 -293 393 -293 q 161 -266 225 -293 q 61 -184 97 -239 q 25 -46 25 -129 q 43 53 25 14 q 89 119 61 93 q 148 166 117 146 q 208 207 179 186 q 254 256 236 228 q 272 328 272 285 l 272 415 l 349 415 m 361 685 l 361 535 l 256 535 l 256 685 l 361 685 z "},"·":{"ha":431,"x_min":151,"x_max":257,"o":"m 151 410 l 151 560 l 257 560 l 257 410 l 151 410 z "}}}
